<?xml version='1.0' encoding='utf-8'?>
<mlt LC_NUMERIC="en_US.UTF-8" producer="main_bin" version="6.21.0" root="/home/defeo/Research/delay_encryption/video">
 <profile frame_rate_num="25" sample_aspect_num="1" display_aspect_den="9" colorspace="709" progressive="1" description="HD 1080p 25 fps" display_aspect_num="16" frame_rate_den="1" width="1920" height="1080" sample_aspect_den="1"/>
 <consumer f="mp4" g="15" crf="15" progressive="1" target="/home/defeo/Videos/de.mp4" threads="8" real_time="-4" mlt_service="avformat" vcodec="libx264" ab="256k" movflags="+faststart" bf="2" preset="faster" acodec="aac" in="0" out="35722"/>
 <producer id="producer0" in="00:00:00.000" out="00:12:22.520">
  <property name="length">18564</property>
  <property name="eof">pause</property>
  <property name="resource">C0001.MP4</property>
  <property name="audio_index">1</property>
  <property name="video_index">0</property>
  <property name="mute_on_pause">0</property>
  <property name="mlt_service">avformat-novalidate</property>
  <property name="seekable">1</property>
  <property name="aspect_ratio">1</property>
  <property name="kdenlive:clipname"/>
  <property name="kdenlive:folderid">-1</property>
  <property name="kdenlive:id">2</property>
  <property name="kdenlive:file_size">5404753976</property>
  <property name="kdenlive:file_hash">0df0c1783402bc54f69a0a78d6231dd5</property>
  <property name="global_feed">1</property>
  <property name="meta.media.nb_streams">3</property>
  <property name="meta.media.0.stream.type">video</property>
  <property name="meta.media.0.stream.frame_rate">25</property>
  <property name="meta.media.0.stream.sample_aspect_ratio">0</property>
  <property name="meta.media.0.codec.width">3840</property>
  <property name="meta.media.0.codec.height">2160</property>
  <property name="meta.media.0.codec.rotate">0</property>
  <property name="meta.media.0.codec.frame_rate">25</property>
  <property name="meta.media.0.codec.pix_fmt">yuv420p</property>
  <property name="meta.media.0.codec.sample_aspect_ratio">1</property>
  <property name="meta.media.0.codec.colorspace">709</property>
  <property name="meta.media.0.codec.color_trc">11</property>
  <property name="meta.media.0.codec.name">h264</property>
  <property name="meta.media.0.codec.long_name">H.264 / AVC / MPEG-4 AVC / MPEG-4 part 10</property>
  <property name="meta.media.0.codec.bit_rate">56485199</property>
  <property name="meta.attr.0.stream.creation_time.markup">2021-10-07T14:18:32.000000Z</property>
  <property name="meta.attr.0.stream.handler_name.markup">Video Media Handler</property>
  <property name="meta.attr.0.stream.encoder.markup">AVC Coding</property>
  <property name="meta.media.1.stream.type">audio</property>
  <property name="meta.media.1.codec.sample_fmt">s16</property>
  <property name="meta.media.1.codec.sample_rate">48000</property>
  <property name="meta.media.1.codec.channels">2</property>
  <property name="meta.media.1.codec.name">pcm_s16be</property>
  <property name="meta.media.1.codec.long_name">PCM signed 16-bit big-endian</property>
  <property name="meta.media.1.codec.bit_rate">1536000</property>
  <property name="meta.attr.1.stream.creation_time.markup">2021-10-07T14:18:32.000000Z</property>
  <property name="meta.attr.1.stream.handler_name.markup">Sound Media Handler</property>
  <property name="meta.attr.major_brand.markup">XAVC</property>
  <property name="meta.attr.minor_version.markup">16785407</property>
  <property name="meta.attr.compatible_brands.markup">XAVCmp42iso2</property>
  <property name="meta.attr.creation_time.markup">2021-10-07T14:18:32.000000Z</property>
  <property name="meta.media.sample_aspect_num">1</property>
  <property name="meta.media.sample_aspect_den">1</property>
  <property name="meta.media.frame_rate_num">25</property>
  <property name="meta.media.frame_rate_den">1</property>
  <property name="meta.media.colorspace">709</property>
  <property name="meta.media.color_trc">11</property>
  <property name="meta.media.width">3840</property>
  <property name="meta.media.height">2160</property>
  <property name="meta.media.color_range">mpeg</property>
  <property name="meta.media.top_field_first">0</property>
  <property name="meta.media.progressive">1</property>
 </producer>
 <producer id="producer1" in="00:00:00.000" out="01:18:22.520">
  <property name="length">117564</property>
  <property name="eof">pause</property>
  <property name="resource">C0002.MP4</property>
  <property name="audio_index">1</property>
  <property name="video_index">0</property>
  <property name="mute_on_pause">0</property>
  <property name="mlt_service">avformat-novalidate</property>
  <property name="seekable">1</property>
  <property name="aspect_ratio">1</property>
  <property name="kdenlive:clipname"/>
  <property name="kdenlive:folderid">-1</property>
  <property name="kdenlive:id">3</property>
  <property name="kdenlive:file_size">33349940699</property>
  <property name="kdenlive:file_hash">ba0937037b10f657b22f23a49c7604ce</property>
  <property name="global_feed">1</property>
  <property name="meta.media.nb_streams">3</property>
  <property name="meta.media.0.stream.type">video</property>
  <property name="meta.media.0.stream.frame_rate">25</property>
  <property name="meta.media.0.stream.sample_aspect_ratio">0</property>
  <property name="meta.media.0.codec.width">3840</property>
  <property name="meta.media.0.codec.height">2160</property>
  <property name="meta.media.0.codec.rotate">0</property>
  <property name="meta.media.0.codec.frame_rate">25</property>
  <property name="meta.media.0.codec.pix_fmt">yuv420p</property>
  <property name="meta.media.0.codec.sample_aspect_ratio">1</property>
  <property name="meta.media.0.codec.colorspace">709</property>
  <property name="meta.media.0.codec.color_trc">11</property>
  <property name="meta.media.0.codec.name">h264</property>
  <property name="meta.media.0.codec.long_name">H.264 / AVC / MPEG-4 AVC / MPEG-4 part 10</property>
  <property name="meta.media.0.codec.bit_rate">54991848</property>
  <property name="meta.attr.0.stream.creation_time.markup">2021-10-07T14:55:19.000000Z</property>
  <property name="meta.attr.0.stream.handler_name.markup">Video Media Handler</property>
  <property name="meta.attr.0.stream.encoder.markup">AVC Coding</property>
  <property name="meta.media.1.stream.type">audio</property>
  <property name="meta.media.1.codec.sample_fmt">s16</property>
  <property name="meta.media.1.codec.sample_rate">48000</property>
  <property name="meta.media.1.codec.channels">2</property>
  <property name="meta.media.1.codec.name">pcm_s16be</property>
  <property name="meta.media.1.codec.long_name">PCM signed 16-bit big-endian</property>
  <property name="meta.media.1.codec.bit_rate">1536000</property>
  <property name="meta.attr.1.stream.creation_time.markup">2021-10-07T14:55:19.000000Z</property>
  <property name="meta.attr.1.stream.handler_name.markup">Sound Media Handler</property>
  <property name="meta.attr.major_brand.markup">XAVC</property>
  <property name="meta.attr.minor_version.markup">16785407</property>
  <property name="meta.attr.compatible_brands.markup">XAVCmp42iso2</property>
  <property name="meta.attr.creation_time.markup">2021-10-07T14:55:19.000000Z</property>
  <property name="meta.media.sample_aspect_num">1</property>
  <property name="meta.media.sample_aspect_den">1</property>
  <property name="meta.media.frame_rate_num">25</property>
  <property name="meta.media.frame_rate_den">1</property>
  <property name="meta.media.colorspace">709</property>
  <property name="meta.media.color_trc">11</property>
  <property name="meta.media.width">3840</property>
  <property name="meta.media.height">2160</property>
  <property name="meta.media.color_range">mpeg</property>
 </producer>
 <producer id="producer2" in="00:00:00.000" out="00:03:22.240">
  <property name="length">5057</property>
  <property name="eof">pause</property>
  <property name="resource">noise.wav</property>
  <property name="meta.media.nb_streams">1</property>
  <property name="meta.media.0.stream.type">audio</property>
  <property name="meta.media.0.codec.sample_fmt">s32</property>
  <property name="meta.media.0.codec.sample_rate">48000</property>
  <property name="meta.media.0.codec.channels">2</property>
  <property name="meta.media.0.codec.name">pcm_s24le</property>
  <property name="meta.media.0.codec.long_name">PCM signed 24-bit little-endian</property>
  <property name="meta.media.0.codec.bit_rate">2304000</property>
  <property name="meta.attr.encoder.markup">Lavf58.29.100 (libsndfile-1.0.31)</property>
  <property name="seekable">1</property>
  <property name="audio_index">0</property>
  <property name="video_index">-1</property>
  <property name="mute_on_pause">1</property>
  <property name="mlt_service">avformat</property>
  <property name="kdenlive:clipname"/>
  <property name="kdenlive:folderid">-1</property>
  <property name="kdenlive:id">4</property>
  <property name="kdenlive:file_size">58252386</property>
  <property name="kdenlive:file_hash">b045186b00ed8419a1fa570050a05ef0</property>
  <property name="global_feed">1</property>
 </producer>
 <producer id="producer3" in="00:00:00.000" out="00:32:19.640">
  <property name="length">48492</property>
  <property name="eof">pause</property>
  <property name="resource">C-2-1.mp4</property>
  <property name="audio_index">1</property>
  <property name="video_index">0</property>
  <property name="mute_on_pause">0</property>
  <property name="mlt_service">avformat-novalidate</property>
  <property name="meta.media.nb_streams">3</property>
  <property name="meta.media.0.stream.type">video</property>
  <property name="meta.media.0.stream.frame_rate">25</property>
  <property name="meta.media.0.stream.sample_aspect_ratio">0</property>
  <property name="meta.media.0.codec.width">3840</property>
  <property name="meta.media.0.codec.height">2160</property>
  <property name="meta.media.0.codec.rotate">0</property>
  <property name="meta.media.0.codec.frame_rate">25</property>
  <property name="meta.media.0.codec.pix_fmt">yuv420p</property>
  <property name="meta.media.0.codec.sample_aspect_ratio">1</property>
  <property name="meta.media.0.codec.colorspace">709</property>
  <property name="meta.media.0.codec.color_trc">11</property>
  <property name="meta.media.0.codec.name">h264</property>
  <property name="meta.media.0.codec.long_name">H.264 / AVC / MPEG-4 AVC / MPEG-4 part 10</property>
  <property name="meta.media.0.codec.bit_rate">53929733</property>
  <property name="meta.attr.0.stream.creation_time.markup">2021-10-08T09:00:57.000000Z</property>
  <property name="meta.attr.0.stream.handler_name.markup">Video Media Handler</property>
  <property name="meta.attr.0.stream.encoder.markup">AVC Coding</property>
  <property name="meta.media.1.stream.type">audio</property>
  <property name="meta.media.1.codec.sample_fmt">s16</property>
  <property name="meta.media.1.codec.sample_rate">48000</property>
  <property name="meta.media.1.codec.channels">2</property>
  <property name="meta.media.1.codec.name">pcm_s16be</property>
  <property name="meta.media.1.codec.long_name">PCM signed 16-bit big-endian</property>
  <property name="meta.media.1.codec.bit_rate">1536000</property>
  <property name="meta.attr.1.stream.creation_time.markup">2021-10-08T09:00:57.000000Z</property>
  <property name="meta.attr.1.stream.handler_name.markup">Sound Media Handler</property>
  <property name="meta.attr.major_brand.markup">XAVC</property>
  <property name="meta.attr.minor_version.markup">16785407</property>
  <property name="meta.attr.compatible_brands.markup">XAVCmp42iso2</property>
  <property name="meta.attr.creation_time.markup">2021-10-08T09:00:57.000000Z</property>
  <property name="seekable">1</property>
  <property name="meta.media.sample_aspect_num">1</property>
  <property name="meta.media.sample_aspect_den">1</property>
  <property name="aspect_ratio">1</property>
  <property name="kdenlive:clipname"/>
  <property name="kdenlive:folderid">-1</property>
  <property name="meta.media.frame_rate_num">25</property>
  <property name="meta.media.frame_rate_den">1</property>
  <property name="meta.media.colorspace">709</property>
  <property name="meta.media.color_trc">11</property>
  <property name="meta.media.width">3840</property>
  <property name="meta.media.height">2160</property>
  <property name="meta.media.color_range">mpeg</property>
  <property name="kdenlive:id">5</property>
  <property name="kdenlive:file_size">13498438565</property>
  <property name="kdenlive:file_hash">8cda79d4c47072d0071e105c7ec2fad9</property>
  <property name="meta.media.top_field_first">0</property>
  <property name="meta.media.progressive">1</property>
  <property name="global_feed">1</property>
 </producer>
 <producer id="producer4" in="00:00:00.000" out="01:04:45.560">
  <property name="length">97140</property>
  <property name="eof">pause</property>
  <property name="resource">C-2-2.mp4</property>
  <property name="audio_index">1</property>
  <property name="video_index">0</property>
  <property name="mute_on_pause">0</property>
  <property name="mlt_service">avformat-novalidate</property>
  <property name="meta.media.nb_streams">3</property>
  <property name="meta.media.0.stream.type">video</property>
  <property name="meta.media.0.stream.frame_rate">25</property>
  <property name="meta.media.0.stream.sample_aspect_ratio">0</property>
  <property name="meta.media.0.codec.width">3840</property>
  <property name="meta.media.0.codec.height">2160</property>
  <property name="meta.media.0.codec.rotate">0</property>
  <property name="meta.media.0.codec.frame_rate">25</property>
  <property name="meta.media.0.codec.pix_fmt">yuv420p</property>
  <property name="meta.media.0.codec.sample_aspect_ratio">1</property>
  <property name="meta.media.0.codec.colorspace">709</property>
  <property name="meta.media.0.codec.color_trc">11</property>
  <property name="meta.media.0.codec.name">h264</property>
  <property name="meta.media.0.codec.long_name">H.264 / AVC / MPEG-4 AVC / MPEG-4 part 10</property>
  <property name="meta.media.0.codec.bit_rate">55825357</property>
  <property name="meta.attr.0.stream.creation_time.markup">2021-10-08T10:01:39.000000Z</property>
  <property name="meta.attr.0.stream.handler_name.markup">Video Media Handler</property>
  <property name="meta.attr.0.stream.encoder.markup">AVC Coding</property>
  <property name="meta.media.1.stream.type">audio</property>
  <property name="meta.media.1.codec.sample_fmt">s16</property>
  <property name="meta.media.1.codec.sample_rate">48000</property>
  <property name="meta.media.1.codec.channels">2</property>
  <property name="meta.media.1.codec.name">pcm_s16be</property>
  <property name="meta.media.1.codec.long_name">PCM signed 16-bit big-endian</property>
  <property name="meta.media.1.codec.bit_rate">1536000</property>
  <property name="meta.attr.1.stream.creation_time.markup">2021-10-08T10:01:39.000000Z</property>
  <property name="meta.attr.1.stream.handler_name.markup">Sound Media Handler</property>
  <property name="meta.attr.major_brand.markup">XAVC</property>
  <property name="meta.attr.minor_version.markup">16785407</property>
  <property name="meta.attr.compatible_brands.markup">XAVCmp42iso2</property>
  <property name="meta.attr.creation_time.markup">2021-10-08T10:01:39.000000Z</property>
  <property name="seekable">1</property>
  <property name="meta.media.sample_aspect_num">1</property>
  <property name="meta.media.sample_aspect_den">1</property>
  <property name="aspect_ratio">1</property>
  <property name="kdenlive:clipname"/>
  <property name="kdenlive:folderid">-1</property>
  <property name="meta.media.frame_rate_num">25</property>
  <property name="meta.media.frame_rate_den">1</property>
  <property name="meta.media.colorspace">709</property>
  <property name="meta.media.color_trc">11</property>
  <property name="meta.media.width">3840</property>
  <property name="meta.media.height">2160</property>
  <property name="meta.media.color_range">mpeg</property>
  <property name="kdenlive:id">6</property>
  <property name="kdenlive:file_size">27961003343</property>
  <property name="kdenlive:file_hash">653718a5ec56bf95b96ddb29369ba5f8</property>
  <property name="meta.media.top_field_first">0</property>
  <property name="meta.media.progressive">1</property>
  <property name="global_feed">1</property>
 </producer>
 <producer id="producer5" in="00:00:00.000" out="01:04:50.360">
  <property name="length">97260</property>
  <property name="eof">pause</property>
  <property name="resource">C-2-3.mp4</property>
  <property name="audio_index">1</property>
  <property name="video_index">0</property>
  <property name="mute_on_pause">0</property>
  <property name="mlt_service">avformat-novalidate</property>
  <property name="meta.media.nb_streams">3</property>
  <property name="meta.media.0.stream.type">video</property>
  <property name="meta.media.0.stream.frame_rate">25</property>
  <property name="meta.media.0.stream.sample_aspect_ratio">0</property>
  <property name="meta.media.0.codec.width">3840</property>
  <property name="meta.media.0.codec.height">2160</property>
  <property name="meta.media.0.codec.rotate">0</property>
  <property name="meta.media.0.codec.frame_rate">25</property>
  <property name="meta.media.0.codec.pix_fmt">yuv420p</property>
  <property name="meta.media.0.codec.sample_aspect_ratio">1</property>
  <property name="meta.media.0.codec.colorspace">709</property>
  <property name="meta.media.0.codec.color_trc">11</property>
  <property name="meta.media.0.codec.name">h264</property>
  <property name="meta.media.0.codec.long_name">H.264 / AVC / MPEG-4 AVC / MPEG-4 part 10</property>
  <property name="meta.media.0.codec.bit_rate">55575185</property>
  <property name="meta.attr.0.stream.creation_time.markup">2021-10-08T08:57:16.000000Z</property>
  <property name="meta.attr.0.stream.handler_name.markup">Video Media Handler</property>
  <property name="meta.attr.0.stream.encoder.markup">AVC Coding</property>
  <property name="meta.media.1.stream.type">audio</property>
  <property name="meta.media.1.codec.sample_fmt">s16</property>
  <property name="meta.media.1.codec.sample_rate">48000</property>
  <property name="meta.media.1.codec.channels">2</property>
  <property name="meta.media.1.codec.name">pcm_s16be</property>
  <property name="meta.media.1.codec.long_name">PCM signed 16-bit big-endian</property>
  <property name="meta.media.1.codec.bit_rate">1536000</property>
  <property name="meta.attr.1.stream.creation_time.markup">2021-10-08T08:57:16.000000Z</property>
  <property name="meta.attr.1.stream.handler_name.markup">Sound Media Handler</property>
  <property name="meta.attr.major_brand.markup">XAVC</property>
  <property name="meta.attr.minor_version.markup">16785407</property>
  <property name="meta.attr.compatible_brands.markup">XAVCmp42iso2</property>
  <property name="meta.attr.creation_time.markup">2021-10-08T08:57:16.000000Z</property>
  <property name="seekable">1</property>
  <property name="meta.media.sample_aspect_num">1</property>
  <property name="meta.media.sample_aspect_den">1</property>
  <property name="aspect_ratio">1</property>
  <property name="kdenlive:clipname"/>
  <property name="kdenlive:folderid">-1</property>
  <property name="meta.media.frame_rate_num">25</property>
  <property name="meta.media.frame_rate_den">1</property>
  <property name="meta.media.colorspace">709</property>
  <property name="meta.media.color_trc">11</property>
  <property name="meta.media.width">3840</property>
  <property name="meta.media.height">2160</property>
  <property name="meta.media.color_range">mpeg</property>
  <property name="kdenlive:id">7</property>
  <property name="kdenlive:file_size">27873885674</property>
  <property name="kdenlive:file_hash">3f4533893ea8e243c4849ae598a8d5af</property>
  <property name="meta.media.top_field_first">0</property>
  <property name="meta.media.progressive">1</property>
  <property name="global_feed">1</property>
 </producer>
 <producer id="producer7" in="00:00:00.000" out="00:00:15.320">
  <property name="length">384</property>
  <property name="eof">pause</property>
  <property name="resource">105251__milton__b80-1.wav</property>
  <property name="meta.media.nb_streams">1</property>
  <property name="meta.media.0.stream.type">audio</property>
  <property name="meta.media.0.codec.sample_fmt">s16</property>
  <property name="meta.media.0.codec.sample_rate">44100</property>
  <property name="meta.media.0.codec.channels">2</property>
  <property name="meta.media.0.codec.name">pcm_s16le</property>
  <property name="meta.media.0.codec.long_name">PCM signed 16-bit little-endian</property>
  <property name="meta.media.0.codec.bit_rate">1411200</property>
  <property name="seekable">1</property>
  <property name="audio_index">0</property>
  <property name="video_index">-1</property>
  <property name="mute_on_pause">1</property>
  <property name="mlt_service">avformat</property>
  <property name="kdenlive:clipname"/>
  <property name="kdenlive:folderid">-1</property>
  <property name="kdenlive:id">8</property>
  <property name="kdenlive:file_size">2710428</property>
  <property name="kdenlive:file_hash">37567c47a57bd0cee2139ad575bc4c60</property>
  <property name="global_feed">1</property>
  <property name="kdenlive:activeeffect">0</property>
  <filter id="filter0">
   <property name="window">75</property>
   <property name="max_gain">20dB</property>
   <property name="level">00:00:00.000=-8</property>
   <property name="mlt_service">volume</property>
   <property name="kdenlive_id">volume</property>
   <property name="kdenlive:collapsed">0</property>
  </filter>
 </producer>
 <producer id="producer8" in="00:00:00.000" out="00:00:11.960">
  <property name="length">300</property>
  <property name="eof">pause</property>
  <property name="resource">260802__daenerys__applause.wav</property>
  <property name="meta.media.nb_streams">1</property>
  <property name="meta.media.0.stream.type">audio</property>
  <property name="meta.media.0.codec.sample_fmt">s16</property>
  <property name="meta.media.0.codec.sample_rate">44100</property>
  <property name="meta.media.0.codec.channels">2</property>
  <property name="meta.media.0.codec.name">pcm_s16le</property>
  <property name="meta.media.0.codec.long_name">PCM signed 16-bit little-endian</property>
  <property name="meta.media.0.codec.bit_rate">1411200</property>
  <property name="meta.attr.encoded_by.markup">Logic Pro</property>
  <property name="meta.attr.date.markup">2015-01-08</property>
  <property name="meta.attr.creation_time.markup">15:46:34</property>
  <property name="meta.attr.time_reference.markup">476809200</property>
  <property name="meta.attr.umid.markup">0x000000000000000000000000859ABF5FFF7F0000B0D27E6BFAFFFF7F0802FFFF00000000809ABF5FFF7F0000FFFFFF7FFF7F0000A092BF5FFF7F0000F895BF5F</property>
  <property name="seekable">1</property>
  <property name="audio_index">0</property>
  <property name="video_index">-1</property>
  <property name="mute_on_pause">1</property>
  <property name="mlt_service">avformat</property>
  <property name="kdenlive:clipname"/>
  <property name="kdenlive:folderid">-1</property>
  <property name="kdenlive:id">9</property>
  <property name="kdenlive:file_size">2117530</property>
  <property name="kdenlive:file_hash">a630a536c5a68e77f6c49453066e4637</property>
  <property name="global_feed">1</property>
 </producer>
 <producer id="producer9" in="00:00:00.000" out="00:00:08.040">
  <property name="length">202</property>
  <property name="eof">pause</property>
  <property name="resource">35104__m1rk0__applause-8sec.wav</property>
  <property name="meta.media.nb_streams">1</property>
  <property name="meta.media.0.stream.type">audio</property>
  <property name="meta.media.0.codec.sample_fmt">s32</property>
  <property name="meta.media.0.codec.sample_rate">48000</property>
  <property name="meta.media.0.codec.channels">2</property>
  <property name="meta.media.0.codec.name">pcm_s24le</property>
  <property name="meta.media.0.codec.long_name">PCM signed 24-bit little-endian</property>
  <property name="meta.media.0.codec.bit_rate">2304000</property>
  <property name="seekable">1</property>
  <property name="audio_index">0</property>
  <property name="video_index">-1</property>
  <property name="mute_on_pause">1</property>
  <property name="mlt_service">avformat</property>
  <property name="kdenlive:clipname"/>
  <property name="kdenlive:folderid">-1</property>
  <property name="kdenlive:id">10</property>
  <property name="kdenlive:file_size">2324888</property>
  <property name="kdenlive:file_hash">c3d24aab0a11beb9882dc865564c6165</property>
  <property name="global_feed">1</property>
 </producer>
 <producer id="producer10" in="00:00:00.000" out="00:00:14.760">
  <property name="length">370</property>
  <property name="eof">pause</property>
  <property name="resource">165523__zemidlo__snare-roll-hit-crash.flac</property>
  <property name="meta.media.nb_streams">1</property>
  <property name="meta.media.0.stream.type">audio</property>
  <property name="meta.media.0.codec.sample_fmt">s16</property>
  <property name="meta.media.0.codec.sample_rate">44100</property>
  <property name="meta.media.0.codec.channels">2</property>
  <property name="meta.media.0.codec.name">flac</property>
  <property name="meta.media.0.codec.long_name">FLAC (Free Lossless Audio Codec)</property>
  <property name="meta.media.0.codec.bit_rate">0</property>
  <property name="seekable">1</property>
  <property name="audio_index">0</property>
  <property name="video_index">-1</property>
  <property name="mute_on_pause">1</property>
  <property name="mlt_service">avformat</property>
  <property name="kdenlive:clipname"/>
  <property name="kdenlive:folderid">-1</property>
  <property name="kdenlive:id">11</property>
  <property name="kdenlive:file_size">581450</property>
  <property name="kdenlive:file_hash">8a9bd3b52199b5779ae37373804997a3</property>
  <property name="global_feed">1</property>
 </producer>
 <producer id="producer11" in="00:00:00.000" out="00:00:27.840">
  <property name="length">697</property>
  <property name="eof">pause</property>
  <property name="resource">dogetizer-2021-10-12-2-38-14.jpg</property>
  <property name="ttl">25</property>
  <property name="aspect_ratio">1</property>
  <property name="progressive">1</property>
  <property name="seekable">1</property>
  <property name="meta.media.width">800</property>
  <property name="meta.media.height">800</property>
  <property name="mlt_service">qimage</property>
  <property name="kdenlive:clipname"/>
  <property name="kdenlive:duration">00:00:05.000</property>
  <property name="kdenlive:folderid">-1</property>
  <property name="kdenlive:id">12</property>
  <property name="kdenlive:file_size">154755</property>
  <property name="kdenlive:file_hash">67b1ce888db7750c2641ddd7c3bad2ba</property>
  <property name="global_feed">1</property>
 </producer>
 <producer id="producer12" in="00:00:00.000" out="00:08:17.400">
  <property name="length">12436</property>
  <property name="eof">pause</property>
  <property name="resource">0x546953ff</property>
  <property name="aspect_ratio">1</property>
  <property name="mlt_service">color</property>
  <property name="kdenlive:clipname">Color Clip</property>
  <property name="kdenlive:duration">00:00:05.000</property>
  <property name="kdenlive:folderid">-1</property>
  <property name="kdenlive:id">13</property>
  <property name="kdenlive:file_hash">1a8c2d51dc76f739314a032de4a623f1</property>
  <property name="global_feed">1</property>
 </producer>
 <producer id="producer13" in="00:00:00.000" out="00:09:59.960">
  <property name="length">15000</property>
  <property name="eof">pause</property>
  <property name="resource"/>
  <property name="progressive">1</property>
  <property name="aspect_ratio">1</property>
  <property name="seekable">1</property>
  <property name="mlt_service">kdenlivetitle</property>
  <property name="kdenlive:duration">00:10:00.000</property>
  <property name="kdenlive:clipname">Timed commit...</property>
  <property name="xmldata">&lt;kdenlivetitle duration="15000" LC_NUMERIC="en_US.UTF-8" width="1920" height="1080" out="14999">
 &lt;item type="QGraphicsTextItem" z-index="0">
  &lt;position x="96" y="54">
   &lt;transform>1,0,0,0,1,0,0,0,1&lt;/transform>
  &lt;/position>
  &lt;content shadow="1;#64000000;3;3;3" font-underline="0" box-height="101" font="Linux Libertine Display" letter-spacing="0" font-pixel-size="88" font-italic="0" alignment="2" font-weight="50" box-width="726.563" font-color="255,255,255,255">Timed commitments&lt;/content>
 &lt;/item>
 &lt;startviewport rect="0,0,1920,1080"/>
 &lt;endviewport rect="0,0,1920,1080"/>
 &lt;background color="255,255,255,0"/>
&lt;/kdenlivetitle>
</property>
  <property name="kdenlive:folderid">-1</property>
  <property name="kdenlive:id">14</property>
  <property name="kdenlive:file_hash">c18b38985deb0fdc07894fd94f07a74e</property>
  <property name="force_reload">0</property>
  <property name="global_feed">1</property>
  <property name="meta.media.width">1920</property>
  <property name="meta.media.height">1080</property>
 </producer>
 <producer id="producer14" in="00:00:00.000" out="00:09:59.960">
  <property name="length">15000</property>
  <property name="eof">pause</property>
  <property name="resource"/>
  <property name="progressive">1</property>
  <property name="aspect_ratio">1</property>
  <property name="seekable">1</property>
  <property name="mlt_service">kdenlivetitle</property>
  <property name="kdenlive:duration">15000</property>
  <property name="kdenlive:clipname">Time lock pu...</property>
  <property name="xmldata">&lt;kdenlivetitle duration="15000" LC_NUMERIC="en_US.UTF-8" width="1920" height="1080" out="14999">
 &lt;item type="QGraphicsTextItem" z-index="0">
  &lt;position x="1199" y="54">
   &lt;transform>1,0,0,0,1,0,0,0,1&lt;/transform>
  &lt;/position>
  &lt;content shadow="1;#64000000;3;3;3" font-underline="0" box-height="101" font="Linux Libertine Display" letter-spacing="0" font-pixel-size="88" font-italic="0" alignment="2" font-weight="50" box-width="624.531" font-color="255,255,255,255">Time lock puzzles&lt;/content>
 &lt;/item>
 &lt;startviewport rect="0,0,1920,1080"/>
 &lt;endviewport rect="0,0,1920,1080"/>
 &lt;background color="255,255,255,0"/>
&lt;/kdenlivetitle>
</property>
  <property name="kdenlive:folderid">-1</property>
  <property name="kdenlive:id">15</property>
  <property name="kdenlive:file_hash">3fd999f152c487b91babd3816e44858f</property>
  <property name="force_reload">0</property>
  <property name="meta.media.width">1920</property>
  <property name="meta.media.height">1080</property>
 </producer>
 <producer id="producer15" in="00:00:00.000" out="00:00:04.960">
  <property name="length">00:00:05.000</property>
  <property name="eof">pause</property>
  <property name="resource">doge-4x4.jpg</property>
  <property name="ttl">25</property>
  <property name="aspect_ratio">1</property>
  <property name="progressive">1</property>
  <property name="seekable">1</property>
  <property name="meta.media.width">800</property>
  <property name="meta.media.height">800</property>
  <property name="mlt_service">qimage</property>
  <property name="kdenlive:clipname"/>
  <property name="kdenlive:duration">00:00:05.000</property>
  <property name="kdenlive:folderid">-1</property>
  <property name="kdenlive:id">16</property>
  <property name="kdenlive:file_size">224940</property>
  <property name="kdenlive:file_hash">64df35cda7af90b2ad68dfc734ece206</property>
  <property name="global_feed">1</property>
 </producer>
 <producer id="producer16" in="00:00:00.000" out="00:00:04.960">
  <property name="length">00:00:05.000</property>
  <property name="eof">pause</property>
  <property name="resource">doge-5x5.jpg</property>
  <property name="ttl">25</property>
  <property name="aspect_ratio">1</property>
  <property name="progressive">1</property>
  <property name="seekable">1</property>
  <property name="meta.media.width">800</property>
  <property name="meta.media.height">800</property>
  <property name="mlt_service">qimage</property>
  <property name="kdenlive:clipname"/>
  <property name="kdenlive:duration">00:00:05.000</property>
  <property name="kdenlive:folderid">-1</property>
  <property name="kdenlive:id">17</property>
  <property name="kdenlive:file_size">241275</property>
  <property name="kdenlive:file_hash">61c7ef6733b4218527d34f591f4b3111</property>
  <property name="global_feed">1</property>
 </producer>
 <producer id="producer17" in="00:00:00.000" out="00:00:04.960">
  <property name="length">00:00:05.000</property>
  <property name="eof">pause</property>
  <property name="resource">doge-6x6.jpg</property>
  <property name="ttl">25</property>
  <property name="aspect_ratio">1</property>
  <property name="progressive">1</property>
  <property name="seekable">1</property>
  <property name="meta.media.width">800</property>
  <property name="meta.media.height">800</property>
  <property name="mlt_service">qimage</property>
  <property name="kdenlive:clipname"/>
  <property name="kdenlive:duration">00:00:05.000</property>
  <property name="kdenlive:folderid">-1</property>
  <property name="kdenlive:id">18</property>
  <property name="kdenlive:file_size">265355</property>
  <property name="kdenlive:file_hash">da3428126e04ff30a149259db3159fd3</property>
  <property name="global_feed">1</property>
 </producer>
 <producer id="producer18" in="00:00:00.000" out="00:00:04.960">
  <property name="length">00:00:05.000</property>
  <property name="eof">pause</property>
  <property name="resource">doge-7x7.jpg</property>
  <property name="ttl">25</property>
  <property name="aspect_ratio">1</property>
  <property name="progressive">1</property>
  <property name="seekable">1</property>
  <property name="meta.media.width">800</property>
  <property name="meta.media.height">800</property>
  <property name="mlt_service">qimage</property>
  <property name="kdenlive:clipname"/>
  <property name="kdenlive:duration">00:00:05.000</property>
  <property name="kdenlive:folderid">-1</property>
  <property name="kdenlive:id">19</property>
  <property name="kdenlive:file_size">284963</property>
  <property name="kdenlive:file_hash">061ae835375f4779efd60f0773ce267c</property>
 </producer>
 <producer id="producer19" in="00:00:00.000" out="00:00:21.440">
  <property name="length">537</property>
  <property name="eof">pause</property>
  <property name="resource">doge-8x8.jpg</property>
  <property name="ttl">25</property>
  <property name="aspect_ratio">1</property>
  <property name="progressive">1</property>
  <property name="seekable">1</property>
  <property name="meta.media.width">800</property>
  <property name="meta.media.height">800</property>
  <property name="mlt_service">qimage</property>
  <property name="kdenlive:clipname"/>
  <property name="kdenlive:duration">00:00:05.000</property>
  <property name="kdenlive:folderid">-1</property>
  <property name="kdenlive:id">20</property>
  <property name="kdenlive:file_size">300564</property>
  <property name="kdenlive:file_hash">774066bb70cb76f38d9ee4f2b0dfb0f1</property>
  <property name="global_feed">1</property>
 </producer>
 <producer id="producer20" in="00:00:00.000" out="00:00:46.000">
  <property name="length">1151</property>
  <property name="eof">pause</property>
  <property name="resource">doge-tlp.png</property>
  <property name="ttl">25</property>
  <property name="aspect_ratio">1</property>
  <property name="progressive">1</property>
  <property name="seekable">1</property>
  <property name="meta.media.width">800</property>
  <property name="meta.media.height">800</property>
  <property name="mlt_service">qimage</property>
  <property name="kdenlive:clipname"/>
  <property name="kdenlive:duration">00:00:05.000</property>
  <property name="kdenlive:folderid">-1</property>
  <property name="kdenlive:id">21</property>
  <property name="kdenlive:file_size">710607</property>
  <property name="kdenlive:file_hash">59414e88588c847aea0a5f832c4f8462</property>
  <property name="kdenlive:activeeffect">-1</property>
  <property name="global_feed">1</property>
 </producer>
 <producer id="producer22" in="00:00:00.000" out="00:01:19.560">
  <property name="length">1990</property>
  <property name="eof">pause</property>
  <property name="resource">doge-glasses.png</property>
  <property name="ttl">25</property>
  <property name="aspect_ratio">1</property>
  <property name="progressive">1</property>
  <property name="seekable">1</property>
  <property name="meta.media.width">843</property>
  <property name="meta.media.height">849</property>
  <property name="mlt_service">qimage</property>
  <property name="kdenlive:clipname"/>
  <property name="kdenlive:duration">00:00:05.000</property>
  <property name="kdenlive:folderid">-1</property>
  <property name="kdenlive:id">22</property>
  <property name="kdenlive:file_size">526776</property>
  <property name="kdenlive:file_hash">ca059c1714de36f4f0b1267cc6c1d208</property>
  <property name="global_feed">1</property>
 </producer>
 <producer id="producer21" in="00:00:00.000" out="00:01:14.280">
  <property name="length">1858</property>
  <property name="eof">pause</property>
  <property name="resource">Doge-Meme-PNG-Picture.png</property>
  <property name="ttl">25</property>
  <property name="aspect_ratio">1</property>
  <property name="progressive">1</property>
  <property name="seekable">1</property>
  <property name="meta.media.width">658</property>
  <property name="meta.media.height">764</property>
  <property name="mlt_service">qimage</property>
  <property name="kdenlive:clipname"/>
  <property name="kdenlive:duration">00:00:05.000</property>
  <property name="kdenlive:folderid">-1</property>
  <property name="kdenlive:id">23</property>
  <property name="kdenlive:file_size">448703</property>
  <property name="kdenlive:file_hash">0c914594e0de71eed76d6dd663138ec2</property>
  <property name="kdenlive:activeeffect">-1</property>
  <property name="global_feed">1</property>
 </producer>
 <producer id="producer23" in="00:00:00.000" out="00:09:59.960">
  <property name="length">15000</property>
  <property name="eof">pause</property>
  <property name="resource"/>
  <property name="progressive">1</property>
  <property name="aspect_ratio">1</property>
  <property name="seekable">1</property>
  <property name="mlt_service">kdenlivetitle</property>
  <property name="kdenlive:duration">15000</property>
  <property name="kdenlive:clipname">1,000,000 $</property>
  <property name="xmldata">&lt;kdenlivetitle duration="15000" LC_NUMERIC="en_US.UTF-8" width="1920" height="1080" out="14999">
 &lt;item type="QGraphicsTextItem" z-index="1001">
  &lt;position x="1180" y="141">
   &lt;transform>1,0,0,0,1,0,0,0,1&lt;/transform>
  &lt;/position>
  &lt;content line-spacing="0" shadow="1;#64000000;3;3;3" font-underline="0" box-height="84" font="Linux Libertine Display" letter-spacing="0" font-pixel-size="73" font-italic="0" alignment="2" font-weight="75" box-width="321.625" font-color="255,2,2,255">1,000,000 $&lt;/content>
 &lt;/item>
 &lt;startviewport rect="0,0,1920,1080"/>
 &lt;endviewport rect="0,0,1920,1080"/>
 &lt;background color="255,255,255,0"/>
&lt;/kdenlivetitle>
</property>
  <property name="kdenlive:folderid">-1</property>
  <property name="kdenlive:id">24</property>
  <property name="kdenlive:file_hash">b10a3cf1abc534b99045c06ef266a5dd</property>
  <property name="force_reload">0</property>
  <property name="meta.media.width">1920</property>
  <property name="meta.media.height">1080</property>
  <property name="global_feed">1</property>
 </producer>
 <producer id="producer24" in="00:00:00.000" out="00:02:47.640">
  <property name="length">4192</property>
  <property name="eof">pause</property>
  <property name="resource">pexels-jack-nicole-6339299.mp4</property>
  <property name="audio_index">1</property>
  <property name="video_index">0</property>
  <property name="mute_on_pause">0</property>
  <property name="mlt_service">avformat-novalidate</property>
  <property name="meta.media.nb_streams">2</property>
  <property name="meta.media.0.stream.type">video</property>
  <property name="meta.media.0.stream.frame_rate">30</property>
  <property name="meta.media.0.stream.sample_aspect_ratio">0</property>
  <property name="meta.media.0.codec.width">1920</property>
  <property name="meta.media.0.codec.height">1080</property>
  <property name="meta.media.0.codec.rotate">0</property>
  <property name="meta.media.0.codec.frame_rate">30</property>
  <property name="meta.media.0.codec.pix_fmt">yuv420p</property>
  <property name="meta.media.0.codec.sample_aspect_ratio">0</property>
  <property name="meta.media.0.codec.colorspace">709</property>
  <property name="meta.media.0.codec.color_trc">1</property>
  <property name="meta.media.0.codec.name">h264</property>
  <property name="meta.media.0.codec.long_name">H.264 / AVC / MPEG-4 AVC / MPEG-4 part 10</property>
  <property name="meta.media.0.codec.bit_rate">4993051</property>
  <property name="meta.attr.0.stream.creation_time.markup">2020-12-30T10:58:50.000000Z</property>
  <property name="meta.attr.0.stream.handler_name.markup">L-SMASH Video Handler</property>
  <property name="meta.attr.0.stream.encoder.markup">AVC Coding</property>
  <property name="meta.media.1.stream.type">audio</property>
  <property name="meta.media.1.codec.sample_fmt">fltp</property>
  <property name="meta.media.1.codec.sample_rate">48000</property>
  <property name="meta.media.1.codec.channels">2</property>
  <property name="meta.media.1.codec.name">aac</property>
  <property name="meta.media.1.codec.long_name">AAC (Advanced Audio Coding)</property>
  <property name="meta.media.1.codec.bit_rate">253375</property>
  <property name="meta.attr.1.stream.creation_time.markup">2020-12-30T10:58:50.000000Z</property>
  <property name="meta.attr.1.stream.handler_name.markup">L-SMASH Audio Handler</property>
  <property name="meta.attr.major_brand.markup">mp42</property>
  <property name="meta.attr.minor_version.markup">0</property>
  <property name="meta.attr.compatible_brands.markup">mp42mp41isomavc1</property>
  <property name="meta.attr.creation_time.markup">2020-12-30T10:58:50.000000Z</property>
  <property name="seekable">1</property>
  <property name="meta.media.sample_aspect_num">1</property>
  <property name="meta.media.sample_aspect_den">1</property>
  <property name="aspect_ratio">1</property>
  <property name="kdenlive:clipname"/>
  <property name="kdenlive:folderid">-1</property>
  <property name="meta.media.frame_rate_num">30</property>
  <property name="meta.media.frame_rate_den">1</property>
  <property name="meta.media.colorspace">709</property>
  <property name="meta.media.color_trc">1</property>
  <property name="meta.media.width">1920</property>
  <property name="meta.media.height">1080</property>
  <property name="meta.media.color_range">mpeg</property>
  <property name="kdenlive:id">25</property>
  <property name="kdenlive:file_size">110078230</property>
  <property name="kdenlive:file_hash">cfdeb7ff10614a71ccda470f7359d860</property>
  <property name="meta.media.top_field_first">0</property>
  <property name="meta.media.progressive">1</property>
  <property name="global_feed">1</property>
 </producer>
 <producer id="producer25" in="00:00:00.000" out="00:09:59.960">
  <property name="length">15000</property>
  <property name="eof">pause</property>
  <property name="resource"/>
  <property name="progressive">1</property>
  <property name="aspect_ratio">1</property>
  <property name="seekable">1</property>
  <property name="mlt_service">kdenlivetitle</property>
  <property name="kdenlive:duration">15000</property>
  <property name="kdenlive:clipname">MAXARG</property>
  <property name="xmldata">&lt;kdenlivetitle duration="15000" LC_NUMERIC="en_US.UTF-8" width="1920" height="1080" out="14999">
 &lt;item type="QGraphicsTextItem" z-index="0">
  &lt;position x="767" y="487">
   &lt;transform>1,0,0,0,1,0,0,0,1&lt;/transform>
  &lt;/position>
  &lt;content line-spacing="0" shadow="1;#64000000;3;3;3" font-underline="0" box-height="105" font-outline-color="0,0,0,255" font="Linux Libertine Display" letter-spacing="0" font-pixel-size="91" font-italic="0" alignment="2" font-weight="75" font-outline="0" box-width="388.063" font-color="244,244,244,255">MAXARG&lt;/content>
 &lt;/item>
 &lt;item type="QGraphicsRectItem" z-index="-1">
  &lt;position x="687" y="405">
   &lt;transform zoom="100">1,0,0,0,1,0,0,0,1&lt;/transform>
  &lt;/position>
  &lt;content brushcolor="3,84,121,255" pencolor="0,0,0,255" penwidth="4" rect="0,0,546.459,270"/>
 &lt;/item>
 &lt;startviewport rect="0,0,1920,1080"/>
 &lt;endviewport rect="0,0,1920,1080"/>
 &lt;background color="255,255,255,0"/>
&lt;/kdenlivetitle>
</property>
  <property name="kdenlive:folderid">-1</property>
  <property name="kdenlive:id">26</property>
  <property name="kdenlive:file_hash">df0f825ad750346e7d6a8e893d1a0a53</property>
  <property name="force_reload">0</property>
  <property name="meta.media.width">1920</property>
  <property name="meta.media.height">1080</property>
 </producer>
 <producer id="producer26" in="00:00:00.000" out="00:00:04.960">
  <property name="length">00:00:05.000</property>
  <property name="eof">pause</property>
  <property name="resource">finger.png</property>
  <property name="ttl">25</property>
  <property name="aspect_ratio">1</property>
  <property name="progressive">1</property>
  <property name="seekable">1</property>
  <property name="meta.media.width">512</property>
  <property name="meta.media.height">512</property>
  <property name="mlt_service">qimage</property>
  <property name="kdenlive:clipname"/>
  <property name="kdenlive:duration">00:00:05.000</property>
  <property name="kdenlive:folderid">-1</property>
  <property name="kdenlive:id">27</property>
  <property name="kdenlive:file_size">19090</property>
  <property name="kdenlive:file_hash">ee85ff1e26d2700dccc866c544312f1c</property>
 </producer>
 <producer id="producer32" in="00:00:00.000" out="00:00:12.840">
  <property name="length">00:00:12.880</property>
  <property name="eof">pause</property>
  <property name="resource">theauction.png</property>
  <property name="ttl">25</property>
  <property name="aspect_ratio">1</property>
  <property name="progressive">1</property>
  <property name="seekable">1</property>
  <property name="meta.media.width">1920</property>
  <property name="meta.media.height">1080</property>
  <property name="mlt_service">qimage</property>
  <property name="kdenlive:clipname"/>
  <property name="kdenlive:duration">00:00:05.000</property>
  <property name="kdenlive:folderid">-1</property>
  <property name="kdenlive:id">28</property>
  <property name="kdenlive:file_size">268985</property>
  <property name="kdenlive:file_hash">72a99772c87031d6c83b6ea98e2530b0</property>
  <property name="global_feed">1</property>
 </producer>
 <producer id="producer29" in="00:00:00.000" out="00:00:15.320">
  <property name="length">00:00:15.360</property>
  <property name="eof">pause</property>
  <property name="resource">curtain-left.png</property>
  <property name="ttl">25</property>
  <property name="aspect_ratio">1</property>
  <property name="progressive">1</property>
  <property name="seekable">1</property>
  <property name="meta.media.width">6720</property>
  <property name="meta.media.height">3780</property>
  <property name="mlt_service">qimage</property>
  <property name="kdenlive:clipname"/>
  <property name="kdenlive:duration">00:00:05.000</property>
  <property name="kdenlive:folderid">-1</property>
  <property name="kdenlive:id">29</property>
  <property name="kdenlive:file_size">10828477</property>
  <property name="kdenlive:file_hash">d441ed7f60c2efb4ad32ddbc39f2ece3</property>
  <property name="global_feed">1</property>
 </producer>
 <producer id="producer30" in="00:00:00.000" out="00:00:15.320">
  <property name="length">384</property>
  <property name="eof">pause</property>
  <property name="resource">curtain-right.png</property>
  <property name="ttl">25</property>
  <property name="aspect_ratio">1</property>
  <property name="progressive">1</property>
  <property name="seekable">1</property>
  <property name="meta.media.width">6720</property>
  <property name="meta.media.height">3780</property>
  <property name="mlt_service">qimage</property>
  <property name="kdenlive:clipname"/>
  <property name="kdenlive:duration">00:00:05.000</property>
  <property name="kdenlive:folderid">-1</property>
  <property name="kdenlive:id">30</property>
  <property name="kdenlive:file_size">10889190</property>
  <property name="kdenlive:file_hash">c1a691571e1e192a269ae64299a83ff0</property>
 </producer>
 <producer id="producer31" in="00:00:00.000" out="00:00:10.000">
  <property name="length">251</property>
  <property name="eof">pause</property>
  <property name="resource">slide.png</property>
  <property name="ttl">25</property>
  <property name="aspect_ratio">1</property>
  <property name="progressive">1</property>
  <property name="seekable">1</property>
  <property name="meta.media.width">1890</property>
  <property name="meta.media.height">1063</property>
  <property name="mlt_service">qimage</property>
  <property name="kdenlive:clipname"/>
  <property name="kdenlive:duration">00:00:05.000</property>
  <property name="kdenlive:folderid">-1</property>
  <property name="kdenlive:id">31</property>
  <property name="kdenlive:file_size">25210</property>
  <property name="kdenlive:file_hash">243a7b3d22cfcc0e6429847d701fe8d4</property>
 </producer>
 <producer id="producer27" in="00:00:00.000" out="00:03:08.520">
  <property name="length">4714</property>
  <property name="eof">pause</property>
  <property name="resource">squares.png</property>
  <property name="ttl">25</property>
  <property name="aspect_ratio">1</property>
  <property name="progressive">1</property>
  <property name="seekable">1</property>
  <property name="meta.media.width">6658</property>
  <property name="meta.media.height">6344</property>
  <property name="mlt_service">qimage</property>
  <property name="kdenlive:clipname"/>
  <property name="kdenlive:duration">00:00:05.000</property>
  <property name="kdenlive:folderid">-1</property>
  <property name="kdenlive:id">32</property>
  <property name="kdenlive:file_size">3169977</property>
  <property name="kdenlive:file_hash">188b1e8c1297d8c259355d134a07776e</property>
  <property name="global_feed">1</property>
 </producer>
 <producer id="producer28" in="00:00:00.000" out="00:00:50.520">
  <property name="length">1264</property>
  <property name="eof">pause</property>
  <property name="resource">movie-f017068.png</property>
  <property name="ttl">25</property>
  <property name="aspect_ratio">1</property>
  <property name="progressive">1</property>
  <property name="seekable">1</property>
  <property name="meta.media.width">1920</property>
  <property name="meta.media.height">1080</property>
  <property name="mlt_service">qimage</property>
  <property name="kdenlive:clipname"/>
  <property name="kdenlive:duration">00:00:05.000</property>
  <property name="kdenlive:folderid">-1</property>
  <property name="kdenlive:id">33</property>
  <property name="kdenlive:file_size">2003294</property>
  <property name="kdenlive:file_hash">23756fcb0b28da477618cdb5f18d1078</property>
  <property name="global_feed">1</property>
 </producer>
 <producer id="producer36" in="00:00:00.000" out="00:00:18.960">
  <property name="length">475</property>
  <property name="eof">pause</property>
  <property name="resource">media/videos/sign/1080p60/Sign.mov</property>
  <property name="audio_index">-1</property>
  <property name="video_index">0</property>
  <property name="mute_on_pause">0</property>
  <property name="mlt_service">avformat-novalidate</property>
  <property name="seekable">1</property>
  <property name="aspect_ratio">1</property>
  <property name="kdenlive:clipname"/>
  <property name="kdenlive:folderid">-1</property>
  <property name="kdenlive:id">34</property>
  <property name="kdenlive:file_size">21758357</property>
  <property name="kdenlive:file_hash">ffadb0311d497dba1645dfcc3397e06b</property>
  <property name="global_feed">1</property>
  <property name="meta.media.nb_streams">1</property>
  <property name="meta.media.0.stream.type">video</property>
  <property name="meta.media.0.stream.frame_rate">60</property>
  <property name="meta.media.0.stream.sample_aspect_ratio">0</property>
  <property name="meta.media.0.codec.width">1920</property>
  <property name="meta.media.0.codec.height">1080</property>
  <property name="meta.media.0.codec.rotate">0</property>
  <property name="meta.media.0.codec.frame_rate">15360</property>
  <property name="meta.media.0.codec.pix_fmt">argb</property>
  <property name="meta.media.0.codec.sample_aspect_ratio">0</property>
  <property name="meta.media.0.codec.colorspace">709</property>
  <property name="meta.media.0.codec.name">qtrle</property>
  <property name="meta.media.0.codec.long_name">QuickTime Animation (RLE) video</property>
  <property name="meta.media.0.codec.bit_rate">9158887</property>
  <property name="meta.attr.0.stream.handler_name.markup">VideoHandler</property>
  <property name="meta.attr.0.stream.encoder.markup">Lavc58.134.100 qtrle</property>
  <property name="meta.attr.major_brand.markup">qt  </property>
  <property name="meta.attr.minor_version.markup">512</property>
  <property name="meta.attr.compatible_brands.markup">qt  </property>
  <property name="meta.attr.encoder.markup">Lavf58.76.100</property>
  <property name="meta.attr.comment.markup">Rendered with Manim Community v0.11.0</property>
  <property name="meta.media.sample_aspect_num">1</property>
  <property name="meta.media.sample_aspect_den">1</property>
  <property name="meta.media.frame_rate_num">60</property>
  <property name="meta.media.frame_rate_den">1</property>
  <property name="meta.media.colorspace">709</property>
  <property name="meta.media.color_trc">2</property>
  <property name="meta.media.width">1920</property>
  <property name="meta.media.height">1080</property>
  <property name="meta.media.color_range">mpeg</property>
  <property name="meta.media.top_field_first">0</property>
  <property name="meta.media.progressive">1</property>
 </producer>
 <producer id="producer34" in="00:00:00.000" out="00:00:16.960">
  <property name="length">425</property>
  <property name="eof">pause</property>
  <property name="resource">media/videos/imply/1080p60/ImplyDE.mov</property>
  <property name="audio_index">-1</property>
  <property name="video_index">0</property>
  <property name="mute_on_pause">0</property>
  <property name="mlt_service">avformat-novalidate</property>
  <property name="seekable">1</property>
  <property name="aspect_ratio">1</property>
  <property name="kdenlive:clipname"/>
  <property name="kdenlive:folderid">-1</property>
  <property name="kdenlive:id">35</property>
  <property name="kdenlive:file_size">12983161</property>
  <property name="kdenlive:file_hash">79a2f14388acd7bced2e9f94a3b9207b</property>
  <property name="global_feed">1</property>
  <property name="meta.media.nb_streams">1</property>
  <property name="meta.media.0.stream.type">video</property>
  <property name="meta.media.0.stream.frame_rate">60</property>
  <property name="meta.media.0.stream.sample_aspect_ratio">0</property>
  <property name="meta.media.0.codec.width">1920</property>
  <property name="meta.media.0.codec.height">1080</property>
  <property name="meta.media.0.codec.rotate">0</property>
  <property name="meta.media.0.codec.frame_rate">15360</property>
  <property name="meta.media.0.codec.pix_fmt">argb</property>
  <property name="meta.media.0.codec.sample_aspect_ratio">0</property>
  <property name="meta.media.0.codec.colorspace">709</property>
  <property name="meta.media.0.codec.name">qtrle</property>
  <property name="meta.media.0.codec.long_name">QuickTime Animation (RLE) video</property>
  <property name="meta.media.0.codec.bit_rate">6107185</property>
  <property name="meta.attr.0.stream.handler_name.markup">VideoHandler</property>
  <property name="meta.attr.0.stream.encoder.markup">Lavc58.134.100 qtrle</property>
  <property name="meta.attr.major_brand.markup">qt  </property>
  <property name="meta.attr.minor_version.markup">512</property>
  <property name="meta.attr.compatible_brands.markup">qt  </property>
  <property name="meta.attr.encoder.markup">Lavf58.76.100</property>
  <property name="meta.attr.comment.markup">Rendered with Manim Community v0.11.0</property>
  <property name="meta.media.sample_aspect_num">1</property>
  <property name="meta.media.sample_aspect_den">1</property>
  <property name="meta.media.frame_rate_num">60</property>
  <property name="meta.media.frame_rate_den">1</property>
  <property name="meta.media.colorspace">709</property>
  <property name="meta.media.color_trc">2</property>
  <property name="meta.media.width">1920</property>
  <property name="meta.media.height">1080</property>
  <property name="meta.media.color_range">mpeg</property>
  <property name="meta.media.top_field_first">0</property>
  <property name="meta.media.progressive">1</property>
 </producer>
 <producer id="producer35" in="00:00:00.000" out="00:00:13.960">
  <property name="length">350</property>
  <property name="eof">pause</property>
  <property name="resource">media/videos/imply/1080p60/ImplyIBE.mov</property>
  <property name="audio_index">-1</property>
  <property name="video_index">0</property>
  <property name="mute_on_pause">0</property>
  <property name="mlt_service">avformat-novalidate</property>
  <property name="seekable">1</property>
  <property name="aspect_ratio">1</property>
  <property name="kdenlive:clipname"/>
  <property name="kdenlive:folderid">-1</property>
  <property name="kdenlive:id">36</property>
  <property name="kdenlive:file_size">8663262</property>
  <property name="kdenlive:file_hash">f71281bcbd8da38f61aaf8792f193deb</property>
  <property name="global_feed">1</property>
  <property name="meta.media.nb_streams">1</property>
  <property name="meta.media.0.stream.type">video</property>
  <property name="meta.media.0.stream.frame_rate">60</property>
  <property name="meta.media.0.stream.sample_aspect_ratio">0</property>
  <property name="meta.media.0.codec.width">1920</property>
  <property name="meta.media.0.codec.height">1080</property>
  <property name="meta.media.0.codec.rotate">0</property>
  <property name="meta.media.0.codec.frame_rate">15360</property>
  <property name="meta.media.0.codec.pix_fmt">argb</property>
  <property name="meta.media.0.codec.sample_aspect_ratio">0</property>
  <property name="meta.media.0.codec.colorspace">709</property>
  <property name="meta.media.0.codec.name">qtrle</property>
  <property name="meta.media.0.codec.long_name">QuickTime Animation (RLE) video</property>
  <property name="meta.media.0.codec.bit_rate">4947836</property>
  <property name="meta.attr.0.stream.handler_name.markup">VideoHandler</property>
  <property name="meta.attr.0.stream.encoder.markup">Lavc58.134.100 qtrle</property>
  <property name="meta.attr.major_brand.markup">qt  </property>
  <property name="meta.attr.minor_version.markup">512</property>
  <property name="meta.attr.compatible_brands.markup">qt  </property>
  <property name="meta.attr.encoder.markup">Lavf58.76.100</property>
  <property name="meta.attr.comment.markup">Rendered with Manim Community v0.11.0</property>
  <property name="meta.media.sample_aspect_num">1</property>
  <property name="meta.media.sample_aspect_den">1</property>
  <property name="meta.media.frame_rate_num">60</property>
  <property name="meta.media.frame_rate_den">1</property>
  <property name="meta.media.colorspace">709</property>
  <property name="meta.media.color_trc">2</property>
  <property name="meta.media.width">1920</property>
  <property name="meta.media.height">1080</property>
  <property name="meta.media.color_range">mpeg</property>
  <property name="meta.media.top_field_first">0</property>
  <property name="meta.media.progressive">1</property>
 </producer>
 <producer id="producer37" in="00:00:00.000" out="00:00:04.960">
  <property name="length">00:00:05.000</property>
  <property name="eof">pause</property>
  <property name="resource">grid.png</property>
  <property name="ttl">25</property>
  <property name="aspect_ratio">1</property>
  <property name="progressive">1</property>
  <property name="seekable">1</property>
  <property name="meta.media.width">1920</property>
  <property name="meta.media.height">1080</property>
  <property name="mlt_service">qimage</property>
  <property name="kdenlive:clipname"/>
  <property name="kdenlive:duration">00:00:05.000</property>
  <property name="kdenlive:folderid">-1</property>
  <property name="kdenlive:id">38</property>
  <property name="kdenlive:file_size">12447</property>
  <property name="kdenlive:file_hash">a1d86a993e3e9344216613f3628b11b4</property>
 </producer>
 <producer id="producer39" in="00:00:00.000" out="00:01:00.960">
  <property name="length">1525</property>
  <property name="eof">pause</property>
  <property name="resource">media/videos/ibe/1080p60/IBE.mp4</property>
  <property name="audio_index">-1</property>
  <property name="video_index">0</property>
  <property name="mute_on_pause">0</property>
  <property name="mlt_service">avformat-novalidate</property>
  <property name="meta.media.nb_streams">1</property>
  <property name="meta.media.0.stream.type">video</property>
  <property name="meta.media.0.stream.frame_rate">60</property>
  <property name="meta.media.0.stream.sample_aspect_ratio">0</property>
  <property name="meta.media.0.codec.width">1920</property>
  <property name="meta.media.0.codec.height">1080</property>
  <property name="meta.media.0.codec.rotate">0</property>
  <property name="meta.media.0.codec.frame_rate">60</property>
  <property name="meta.media.0.codec.pix_fmt">yuv420p</property>
  <property name="meta.media.0.codec.sample_aspect_ratio">0</property>
  <property name="meta.media.0.codec.colorspace">709</property>
  <property name="meta.media.0.codec.name">h264</property>
  <property name="meta.media.0.codec.long_name">H.264 / AVC / MPEG-4 AVC / MPEG-4 part 10</property>
  <property name="meta.media.0.codec.bit_rate">281697</property>
  <property name="meta.attr.0.stream.handler_name.markup">VideoHandler</property>
  <property name="meta.attr.major_brand.markup">isom</property>
  <property name="meta.attr.minor_version.markup">512</property>
  <property name="meta.attr.compatible_brands.markup">isomiso2avc1mp41</property>
  <property name="meta.attr.encoder.markup">Lavf58.76.100</property>
  <property name="meta.attr.comment.markup">Rendered with Manim Community v0.11.0</property>
  <property name="seekable">1</property>
  <property name="meta.media.sample_aspect_num">1</property>
  <property name="meta.media.sample_aspect_den">1</property>
  <property name="aspect_ratio">1</property>
  <property name="kdenlive:clipname"/>
  <property name="kdenlive:folderid">-1</property>
  <property name="meta.media.frame_rate_num">60</property>
  <property name="meta.media.frame_rate_den">1</property>
  <property name="meta.media.colorspace">709</property>
  <property name="meta.media.color_trc">2</property>
  <property name="meta.media.width">1920</property>
  <property name="meta.media.height">1080</property>
  <property name="meta.media.color_range">mpeg</property>
  <property name="kdenlive:id">39</property>
  <property name="kdenlive:file_size">2191213</property>
  <property name="kdenlive:file_hash">8eef2053b18b0729af535a974469a92e</property>
  <property name="meta.media.top_field_first">0</property>
  <property name="meta.media.progressive">1</property>
  <property name="global_feed">1</property>
 </producer>
 <producer id="producer6" in="00:00:00.000" out="00:00:41.960">
  <property name="length">1050</property>
  <property name="eof">pause</property>
  <property name="resource">media/videos/walk/1080p60/Walk.mov</property>
  <property name="audio_index">-1</property>
  <property name="video_index">0</property>
  <property name="mute_on_pause">0</property>
  <property name="mlt_service">avformat-novalidate</property>
  <property name="meta.media.nb_streams">1</property>
  <property name="meta.media.0.stream.type">video</property>
  <property name="meta.media.0.stream.frame_rate">60</property>
  <property name="meta.media.0.stream.sample_aspect_ratio">0</property>
  <property name="meta.media.0.codec.width">1920</property>
  <property name="meta.media.0.codec.height">1080</property>
  <property name="meta.media.0.codec.rotate">0</property>
  <property name="meta.media.0.codec.frame_rate">15360</property>
  <property name="meta.media.0.codec.pix_fmt">argb</property>
  <property name="meta.media.0.codec.sample_aspect_ratio">0</property>
  <property name="meta.media.0.codec.colorspace">709</property>
  <property name="meta.media.0.codec.name">qtrle</property>
  <property name="meta.media.0.codec.long_name">QuickTime Animation (RLE) video</property>
  <property name="meta.media.0.codec.bit_rate">10278647</property>
  <property name="meta.attr.0.stream.handler_name.markup">VideoHandler</property>
  <property name="meta.attr.0.stream.encoder.markup">Lavc58.134.100 qtrle</property>
  <property name="meta.attr.major_brand.markup">qt  </property>
  <property name="meta.attr.minor_version.markup">512</property>
  <property name="meta.attr.compatible_brands.markup">qt  </property>
  <property name="meta.attr.encoder.markup">Lavf58.76.100</property>
  <property name="meta.attr.comment.markup">Rendered with Manim Community v0.11.0</property>
  <property name="seekable">1</property>
  <property name="meta.media.sample_aspect_num">1</property>
  <property name="meta.media.sample_aspect_den">1</property>
  <property name="aspect_ratio">1</property>
  <property name="kdenlive:clipname"/>
  <property name="kdenlive:folderid">-1</property>
  <property name="meta.media.frame_rate_num">60</property>
  <property name="meta.media.frame_rate_den">1</property>
  <property name="meta.media.colorspace">709</property>
  <property name="meta.media.color_trc">2</property>
  <property name="meta.media.width">1920</property>
  <property name="meta.media.height">1080</property>
  <property name="meta.media.color_range">mpeg</property>
  <property name="kdenlive:id">40</property>
  <property name="kdenlive:file_size">53975276</property>
  <property name="kdenlive:file_hash">ec25c6dc475b81bfec7ad9838386b2f1</property>
  <property name="meta.media.top_field_first">0</property>
  <property name="meta.media.progressive">1</property>
  <property name="global_feed">1</property>
 </producer>
 <producer id="producer33" in="00:00:00.000" out="00:00:28.960">
  <property name="length">725</property>
  <property name="eof">pause</property>
  <property name="resource">pairingeq.png</property>
  <property name="ttl">25</property>
  <property name="aspect_ratio">1</property>
  <property name="progressive">1</property>
  <property name="seekable">1</property>
  <property name="meta.media.width">1920</property>
  <property name="meta.media.height">550</property>
  <property name="mlt_service">qimage</property>
  <property name="kdenlive:clipname"/>
  <property name="kdenlive:duration">00:00:05.000</property>
  <property name="kdenlive:folderid">-1</property>
  <property name="kdenlive:id">41</property>
  <property name="kdenlive:file_size">120880</property>
  <property name="kdenlive:file_hash">430b62b48806628650452fc6b650e2a7</property>
  <property name="global_feed">1</property>
 </producer>
 <producer id="producer38" in="00:00:00.000" out="00:00:14.520">
  <property name="length">364</property>
  <property name="eof">pause</property>
  <property name="resource"/>
  <property name="progressive">1</property>
  <property name="aspect_ratio">1</property>
  <property name="seekable">1</property>
  <property name="mlt_service">kdenlivetitle</property>
  <property name="kdenlive:duration">364</property>
  <property name="kdenlive:clipname">Title clip</property>
  <property name="xmldata">&lt;kdenlivetitle duration="364" LC_NUMERIC="en_US.UTF-8" width="1920" height="1080" out="363">
 &lt;item type="QGraphicsTextItem" z-index="10">
  &lt;position x="322" y="2039">
   &lt;transform>1,0,0,0,1,0,0,0,1&lt;/transform>
  &lt;/position>
  &lt;content line-spacing="0" shadow="0;#64000000;3;3;3" font-underline="0" box-height="46" font="Linux Libertine Display" letter-spacing="0" font-pixel-size="40" font-italic="0" alignment="2" font-weight="75" box-width="1276.83" font-color="244,244,244,255">We are grateful to the IBM ThinkLab, Zürich, for providing the recording studio.&lt;/content>
 &lt;/item>
 &lt;item type="QGraphicsTextItem" z-index="9">
  &lt;position x="522" y="1749">
   &lt;transform>1,0,0,0,1,0,0,0,1&lt;/transform>
  &lt;/position>
  &lt;content line-spacing="0" shadow="0;#64000000;3;3;3" font-underline="0" box-height="184" font="Linux Libertine Display" letter-spacing="0" font-pixel-size="40" font-italic="0" alignment="1" font-weight="75" box-width="875.875" font-color="244,244,244,255">Video editiing                                                   Kdenlive
Image editing                                                        GIMP
Vector animations                                         Manim CE
Mathematics rendering                 Manim CE, TeXmacs&lt;/content>
 &lt;/item>
 &lt;item type="QGraphicsTextItem" z-index="8">
  &lt;position x="768" y="1613">
   &lt;transform>1,0,0,0,1,0,0,0,1&lt;/transform>
  &lt;/position>
  &lt;content line-spacing="0" shadow="0;#64000000;3;3;3" font-underline="0" box-height="69" font="Linux Libertine Display" letter-spacing="0" font-pixel-size="60" font-italic="0" alignment="2" font-weight="75" box-width="384.313" font-color="244,244,244,255">Software credits&lt;/content>
 &lt;/item>
 &lt;item type="QGraphicsTextItem" z-index="7">
  &lt;position x="501" y="1279">
   &lt;transform>1,0,0,0,1,0,0,0,1&lt;/transform>
  &lt;/position>
  &lt;content line-spacing="0" shadow="0;#64000000;3;3;3" font-underline="0" box-height="184" font="Linux Libertine Display" letter-spacing="0" font-pixel-size="40" font-italic="0" alignment="1" font-weight="75" box-width="918.359" font-color="244,244,244,255">Clock                                       by Jack Nicole (pexels.com)
Curtain                                     by @voyas (unsplash.com)
Emoji 1F449                by Ebrahim (Wikimedia commons)
Doge memes                     Dogetizer (dogemuchwow.com)&lt;/content>
 &lt;/item>
 &lt;item type="QGraphicsTextItem" z-index="6">
  &lt;position x="803" y="1145">
   &lt;transform>1,0,0,0,1,0,0,0,1&lt;/transform>
  &lt;/position>
  &lt;content line-spacing="0" shadow="0;#64000000;3;3;3" font-underline="0" box-height="69" font="Linux Libertine Display" letter-spacing="0" font-pixel-size="60" font-italic="0" alignment="2" font-weight="75" box-width="313.969" font-color="244,244,244,255">Video credits&lt;/content>
 &lt;/item>
 &lt;item type="QGraphicsTextItem" z-index="5">
  &lt;position x="331" y="835">
   &lt;transform>1,0,0,0,1,0,0,0,1&lt;/transform>
  &lt;/position>
  &lt;content line-spacing="0" shadow="0;#64000000;3;3;3" font-underline="0" box-height="138" font="Linux Libertine Display" letter-spacing="0" font-pixel-size="40" font-italic="0" alignment="1" font-weight="75" box-width="1258.16" font-color="244,244,244,255">Back to the 80's (The Auction theme)                          by milton. (freesound.org)
Applauses                                               by daenerys and m1rk0 (freesound.org)
Drum roll	                                                                   by zemidlo (freesound.org)&lt;/content>
 &lt;/item>
 &lt;item type="QGraphicsTextItem" z-index="3">
  &lt;position x="794" y="690">
   &lt;transform>1,0,0,0,1,0,0,0,1&lt;/transform>
  &lt;/position>
  &lt;content line-spacing="0" shadow="0;#64000000;3;3;3" font-underline="0" box-height="69" font="Linux Libertine Display" letter-spacing="0" font-pixel-size="60" font-italic="0" alignment="2" font-weight="75" box-width="331.203" font-color="244,244,244,255">Audio Credits&lt;/content>
 &lt;/item>
 &lt;item type="QGraphicsTextItem" z-index="2">
  &lt;position x="439" y="438">
   &lt;transform>1,0,0,0,1,0,0,0,1&lt;/transform>
  &lt;/position>
  &lt;content line-spacing="0" shadow="0;#64000000;3;3;3" font-underline="0" box-height="92" font="Linux Libertine Display" letter-spacing="0" font-pixel-size="80" font-italic="0" alignment="2" font-weight="75" box-width="1041.53" font-color="244,244,244,255">Jeffrey Burdges and Luca De Feo&lt;/content>
 &lt;/item>
 &lt;item type="QGraphicsTextItem" z-index="1">
  &lt;position x="689" y="320">
   &lt;transform>1,0,0,0,1,0,0,0,1&lt;/transform>
  &lt;/position>
  &lt;content line-spacing="0" shadow="0;#64000000;3;3;3" font-underline="0" box-height="81" font="Linux Libertine Display" letter-spacing="0" font-pixel-size="70" font-italic="0" alignment="2" font-weight="75" box-width="541.172" font-color="244,244,244,255">a research paper by&lt;/content>
 &lt;/item>
 &lt;item type="QGraphicsTextItem" z-index="0">
  &lt;position x="640" y="108">
   &lt;transform>1,0,0,0,1,0,0,0,1&lt;/transform>
  &lt;/position>
  &lt;content shadow="0;#64000000;3;3;3" font-underline="0" box-height="105" font="Linux Libertine Display" letter-spacing="0" font-pixel-size="91" font-italic="0" alignment="2" font-weight="75" box-width="639.953" font-color="244,244,244,255">Delay Encryption&lt;/content>
 &lt;/item>
 &lt;startviewport rect="0,54.5,1920,1080"/>
 &lt;endviewport rect="0,1080.5,1920,1080"/>
 &lt;background color="0,0,0,255"/>
&lt;/kdenlivetitle>
</property>
  <property name="kdenlive:folderid">-1</property>
  <property name="kdenlive:id">42</property>
  <property name="kdenlive:file_hash">4cdc9bf7d363255db8124a58d9b4abbf</property>
  <property name="force_reload">0</property>
  <property name="meta.media.width">1920</property>
  <property name="meta.media.height">1080</property>
 </producer>
 <producer id="producer41" in="00:00:00.000" out="00:00:04.960">
  <property name="length">00:00:05.000</property>
  <property name="eof">pause</property>
  <property name="resource">IBE-f000074.png</property>
  <property name="ttl">25</property>
  <property name="aspect_ratio">1</property>
  <property name="progressive">1</property>
  <property name="seekable">1</property>
  <property name="meta.media.width">1920</property>
  <property name="meta.media.height">1080</property>
  <property name="mlt_service">qimage</property>
  <property name="kdenlive:clipname"/>
  <property name="kdenlive:duration">00:00:05.000</property>
  <property name="kdenlive:folderid">-1</property>
  <property name="kdenlive:id">43</property>
  <property name="kdenlive:file_size">34848</property>
  <property name="kdenlive:file_hash">2317dce37c791821f62ae5f0656f0263</property>
 </producer>
 <producer id="producer42" in="00:00:00.000" out="00:00:07.560">
  <property name="length">190</property>
  <property name="eof">pause</property>
  <property name="resource">IBE-f000100.png</property>
  <property name="ttl">25</property>
  <property name="aspect_ratio">1</property>
  <property name="progressive">1</property>
  <property name="seekable">1</property>
  <property name="meta.media.width">1920</property>
  <property name="meta.media.height">1080</property>
  <property name="mlt_service">qimage</property>
  <property name="kdenlive:clipname"/>
  <property name="kdenlive:duration">00:00:05.000</property>
  <property name="kdenlive:folderid">-1</property>
  <property name="kdenlive:id">44</property>
  <property name="kdenlive:file_size">43435</property>
  <property name="kdenlive:file_hash">b063a7ed6efbf32789389f719f2aaca0</property>
 </producer>
 <producer id="producer43" in="00:00:00.000" out="00:00:04.960">
  <property name="length">00:00:05.000</property>
  <property name="eof">pause</property>
  <property name="resource">IBE-f000210.png</property>
  <property name="ttl">25</property>
  <property name="aspect_ratio">1</property>
  <property name="progressive">1</property>
  <property name="seekable">1</property>
  <property name="meta.media.width">1920</property>
  <property name="meta.media.height">1080</property>
  <property name="mlt_service">qimage</property>
  <property name="kdenlive:clipname"/>
  <property name="kdenlive:duration">00:00:05.000</property>
  <property name="kdenlive:folderid">-1</property>
  <property name="kdenlive:id">45</property>
  <property name="kdenlive:file_size">74603</property>
  <property name="kdenlive:file_hash">129ed9f727a4a42fa38cd12b654bbe1b</property>
 </producer>
 <producer id="producer44" in="00:00:00.000" out="00:00:09.400">
  <property name="length">236</property>
  <property name="eof">pause</property>
  <property name="resource">IBE-f000325.png</property>
  <property name="ttl">25</property>
  <property name="aspect_ratio">1</property>
  <property name="progressive">1</property>
  <property name="seekable">1</property>
  <property name="meta.media.width">1920</property>
  <property name="meta.media.height">1080</property>
  <property name="mlt_service">qimage</property>
  <property name="kdenlive:clipname"/>
  <property name="kdenlive:duration">00:00:05.000</property>
  <property name="kdenlive:folderid">-1</property>
  <property name="kdenlive:id">46</property>
  <property name="kdenlive:file_size">95523</property>
  <property name="kdenlive:file_hash">8181d73c6ec0087c8ba83511e67970a0</property>
 </producer>
 <producer id="producer45" in="00:00:00.000" out="00:00:06.120">
  <property name="length">154</property>
  <property name="eof">pause</property>
  <property name="resource">IBE-f000420.png</property>
  <property name="ttl">25</property>
  <property name="aspect_ratio">1</property>
  <property name="progressive">1</property>
  <property name="seekable">1</property>
  <property name="meta.media.width">1920</property>
  <property name="meta.media.height">1080</property>
  <property name="mlt_service">qimage</property>
  <property name="kdenlive:clipname"/>
  <property name="kdenlive:duration">00:00:05.000</property>
  <property name="kdenlive:folderid">-1</property>
  <property name="kdenlive:id">47</property>
  <property name="kdenlive:file_size">130859</property>
  <property name="kdenlive:file_hash">e00dc5af9b84ad70301e086fff8a4ab3</property>
 </producer>
 <producer id="producer46" in="00:00:00.000" out="00:00:34.160">
  <property name="length">855</property>
  <property name="eof">pause</property>
  <property name="resource">IBE-f000454.png</property>
  <property name="ttl">25</property>
  <property name="aspect_ratio">1</property>
  <property name="progressive">1</property>
  <property name="seekable">1</property>
  <property name="meta.media.width">1920</property>
  <property name="meta.media.height">1080</property>
  <property name="mlt_service">qimage</property>
  <property name="kdenlive:clipname"/>
  <property name="kdenlive:duration">00:00:05.000</property>
  <property name="kdenlive:folderid">-1</property>
  <property name="kdenlive:id">48</property>
  <property name="kdenlive:file_size">166707</property>
  <property name="kdenlive:file_hash">d841d48dcbf3d74dffd0c9c99268c2c5</property>
 </producer>
 <producer id="producer47" in="00:00:00.000" out="00:00:08.280">
  <property name="length">208</property>
  <property name="eof">pause</property>
  <property name="resource">IBE-f000559.png</property>
  <property name="ttl">25</property>
  <property name="aspect_ratio">1</property>
  <property name="progressive">1</property>
  <property name="seekable">1</property>
  <property name="meta.media.width">1920</property>
  <property name="meta.media.height">1080</property>
  <property name="mlt_service">qimage</property>
  <property name="kdenlive:clipname"/>
  <property name="kdenlive:duration">00:00:05.000</property>
  <property name="kdenlive:folderid">-1</property>
  <property name="kdenlive:id">49</property>
  <property name="kdenlive:file_size">120399</property>
  <property name="kdenlive:file_hash">92ef5c8dfffbdc243cb4195440416be8</property>
 </producer>
 <producer id="producer48" in="00:00:00.000" out="00:00:04.960">
  <property name="length">00:00:05.000</property>
  <property name="eof">pause</property>
  <property name="resource">IBE-f000617.png</property>
  <property name="ttl">25</property>
  <property name="aspect_ratio">1</property>
  <property name="progressive">1</property>
  <property name="seekable">1</property>
  <property name="meta.media.width">1920</property>
  <property name="meta.media.height">1080</property>
  <property name="mlt_service">qimage</property>
  <property name="kdenlive:clipname"/>
  <property name="kdenlive:duration">00:00:05.000</property>
  <property name="kdenlive:folderid">-1</property>
  <property name="kdenlive:id">50</property>
  <property name="kdenlive:file_size">170517</property>
  <property name="kdenlive:file_hash">421cd713c21b84ffa8700cef2d5c7113</property>
 </producer>
 <producer id="producer49" in="00:00:00.000" out="00:00:10.880">
  <property name="length">273</property>
  <property name="eof">pause</property>
  <property name="resource">IBE-f000660.png</property>
  <property name="ttl">25</property>
  <property name="aspect_ratio">1</property>
  <property name="progressive">1</property>
  <property name="seekable">1</property>
  <property name="meta.media.width">1920</property>
  <property name="meta.media.height">1080</property>
  <property name="mlt_service">qimage</property>
  <property name="kdenlive:clipname"/>
  <property name="kdenlive:duration">00:00:05.000</property>
  <property name="kdenlive:folderid">-1</property>
  <property name="kdenlive:id">51</property>
  <property name="kdenlive:file_size">162387</property>
  <property name="kdenlive:file_hash">35841adbc845c3a15c22a17c3c237cda</property>
 </producer>
 <producer id="producer50" in="00:00:00.000" out="00:00:06.000">
  <property name="length">151</property>
  <property name="eof">pause</property>
  <property name="resource">IBE-f000717.png</property>
  <property name="ttl">25</property>
  <property name="aspect_ratio">1</property>
  <property name="progressive">1</property>
  <property name="seekable">1</property>
  <property name="meta.media.width">1920</property>
  <property name="meta.media.height">1080</property>
  <property name="mlt_service">qimage</property>
  <property name="kdenlive:clipname"/>
  <property name="kdenlive:duration">00:00:05.000</property>
  <property name="kdenlive:folderid">-1</property>
  <property name="kdenlive:id">52</property>
  <property name="kdenlive:file_size">171023</property>
  <property name="kdenlive:file_hash">7e8baed1e62fcd3f1b3a55ea550fc0af</property>
 </producer>
 <producer id="producer51" in="00:00:00.000" out="00:00:05.240">
  <property name="length">132</property>
  <property name="eof">pause</property>
  <property name="resource">IBE-f000750.png</property>
  <property name="ttl">25</property>
  <property name="aspect_ratio">1</property>
  <property name="progressive">1</property>
  <property name="seekable">1</property>
  <property name="meta.media.width">1920</property>
  <property name="meta.media.height">1080</property>
  <property name="mlt_service">qimage</property>
  <property name="kdenlive:clipname"/>
  <property name="kdenlive:duration">00:00:05.000</property>
  <property name="kdenlive:folderid">-1</property>
  <property name="kdenlive:id">53</property>
  <property name="kdenlive:file_size">204525</property>
  <property name="kdenlive:file_hash">81040f0fb143340d1c3eb9409bbe836b</property>
 </producer>
 <producer id="producer52" in="00:00:00.000" out="00:00:08.400">
  <property name="length">211</property>
  <property name="eof">pause</property>
  <property name="resource">IBE-f000780.png</property>
  <property name="ttl">25</property>
  <property name="aspect_ratio">1</property>
  <property name="progressive">1</property>
  <property name="seekable">1</property>
  <property name="meta.media.width">1920</property>
  <property name="meta.media.height">1080</property>
  <property name="mlt_service">qimage</property>
  <property name="kdenlive:clipname"/>
  <property name="kdenlive:duration">00:00:05.000</property>
  <property name="kdenlive:folderid">-1</property>
  <property name="kdenlive:id">54</property>
  <property name="kdenlive:file_size">206467</property>
  <property name="kdenlive:file_hash">55707103742f18a8782256b2317ac4c3</property>
 </producer>
 <producer id="producer53" in="00:00:00.000" out="00:00:06.440">
  <property name="length">162</property>
  <property name="eof">pause</property>
  <property name="resource">IBE-f000829.png</property>
  <property name="ttl">25</property>
  <property name="aspect_ratio">1</property>
  <property name="progressive">1</property>
  <property name="seekable">1</property>
  <property name="meta.media.width">1920</property>
  <property name="meta.media.height">1080</property>
  <property name="mlt_service">qimage</property>
  <property name="kdenlive:clipname"/>
  <property name="kdenlive:duration">00:00:05.000</property>
  <property name="kdenlive:folderid">-1</property>
  <property name="kdenlive:id">55</property>
  <property name="kdenlive:file_size">223415</property>
  <property name="kdenlive:file_hash">b97848e1b701ad5cc20100585038d2f5</property>
 </producer>
 <producer id="producer54" in="00:00:00.000" out="00:00:06.240">
  <property name="length">157</property>
  <property name="eof">pause</property>
  <property name="resource">IBE-f000929.png</property>
  <property name="ttl">25</property>
  <property name="aspect_ratio">1</property>
  <property name="progressive">1</property>
  <property name="seekable">1</property>
  <property name="meta.media.width">1920</property>
  <property name="meta.media.height">1080</property>
  <property name="mlt_service">qimage</property>
  <property name="kdenlive:clipname"/>
  <property name="kdenlive:duration">00:00:05.000</property>
  <property name="kdenlive:folderid">-1</property>
  <property name="kdenlive:id">56</property>
  <property name="kdenlive:file_size">122362</property>
  <property name="kdenlive:file_hash">f6ddba8d73d5f4cf969e37e57e5f5be9</property>
 </producer>
 <producer id="producer55" in="00:00:00.000" out="00:00:08.920">
  <property name="length">224</property>
  <property name="eof">pause</property>
  <property name="resource">IBE-f001043.png</property>
  <property name="ttl">25</property>
  <property name="aspect_ratio">1</property>
  <property name="progressive">1</property>
  <property name="seekable">1</property>
  <property name="meta.media.width">1920</property>
  <property name="meta.media.height">1080</property>
  <property name="mlt_service">qimage</property>
  <property name="kdenlive:clipname"/>
  <property name="kdenlive:duration">00:00:05.000</property>
  <property name="kdenlive:folderid">-1</property>
  <property name="kdenlive:id">57</property>
  <property name="kdenlive:file_size">168421</property>
  <property name="kdenlive:file_hash">859a45724cc7b56fa8f5cd5887917a3a</property>
 </producer>
 <producer id="producer56" in="00:00:00.000" out="00:01:04.960">
  <property name="length">1625</property>
  <property name="eof">pause</property>
  <property name="resource">IBE-f001223.png</property>
  <property name="ttl">25</property>
  <property name="aspect_ratio">1</property>
  <property name="progressive">1</property>
  <property name="seekable">1</property>
  <property name="meta.media.width">1920</property>
  <property name="meta.media.height">1080</property>
  <property name="mlt_service">qimage</property>
  <property name="kdenlive:clipname"/>
  <property name="kdenlive:duration">00:00:05.000</property>
  <property name="kdenlive:folderid">-1</property>
  <property name="kdenlive:id">58</property>
  <property name="kdenlive:file_size">166599</property>
  <property name="kdenlive:file_hash">d33a86bad36e191c1a77c485169cca9c</property>
 </producer>
 <producer id="producer57" in="00:00:00.000" out="00:00:04.960">
  <property name="length">00:00:05.000</property>
  <property name="eof">pause</property>
  <property name="resource">IBE-f001268.png</property>
  <property name="ttl">25</property>
  <property name="aspect_ratio">1</property>
  <property name="progressive">1</property>
  <property name="seekable">1</property>
  <property name="meta.media.width">1920</property>
  <property name="meta.media.height">1080</property>
  <property name="mlt_service">qimage</property>
  <property name="kdenlive:clipname"/>
  <property name="kdenlive:duration">00:00:05.000</property>
  <property name="kdenlive:folderid">-1</property>
  <property name="kdenlive:id">59</property>
  <property name="kdenlive:file_size">167939</property>
  <property name="kdenlive:file_hash">9b2fb871d7903e36056609e3382120aa</property>
 </producer>
 <producer id="producer58" in="00:00:00.000" out="00:00:05.320">
  <property name="length">134</property>
  <property name="eof">pause</property>
  <property name="resource">IBE-f001318.png</property>
  <property name="ttl">25</property>
  <property name="aspect_ratio">1</property>
  <property name="progressive">1</property>
  <property name="seekable">1</property>
  <property name="meta.media.width">1920</property>
  <property name="meta.media.height">1080</property>
  <property name="mlt_service">qimage</property>
  <property name="kdenlive:clipname"/>
  <property name="kdenlive:duration">00:00:05.000</property>
  <property name="kdenlive:folderid">-1</property>
  <property name="kdenlive:id">60</property>
  <property name="kdenlive:file_size">179946</property>
  <property name="kdenlive:file_hash">8cabf4494b3dc0bb346afc11eac85a64</property>
 </producer>
 <producer id="producer59" in="00:00:00.000" out="00:00:04.960">
  <property name="length">00:00:05.000</property>
  <property name="eof">pause</property>
  <property name="resource">IBE-f001354.png</property>
  <property name="ttl">25</property>
  <property name="aspect_ratio">1</property>
  <property name="progressive">1</property>
  <property name="seekable">1</property>
  <property name="meta.media.width">1920</property>
  <property name="meta.media.height">1080</property>
  <property name="mlt_service">qimage</property>
  <property name="kdenlive:clipname"/>
  <property name="kdenlive:duration">00:00:05.000</property>
  <property name="kdenlive:folderid">-1</property>
  <property name="kdenlive:id">61</property>
  <property name="kdenlive:file_size">191364</property>
  <property name="kdenlive:file_hash">d8ed6cbf752a15e20b72d57b28b0f509</property>
 </producer>
 <producer id="producer60" in="00:00:00.000" out="00:00:15.840">
  <property name="length">397</property>
  <property name="eof">pause</property>
  <property name="resource">IBE-f001463.png</property>
  <property name="ttl">25</property>
  <property name="aspect_ratio">1</property>
  <property name="progressive">1</property>
  <property name="seekable">1</property>
  <property name="meta.media.width">1920</property>
  <property name="meta.media.height">1080</property>
  <property name="mlt_service">qimage</property>
  <property name="kdenlive:clipname"/>
  <property name="kdenlive:duration">00:00:05.000</property>
  <property name="kdenlive:folderid">-1</property>
  <property name="kdenlive:id">62</property>
  <property name="kdenlive:file_size">194884</property>
  <property name="kdenlive:file_hash">e1abbdb0ada6ada542ed4be9775d6ac0</property>
 </producer>
 <producer id="producer61" in="00:00:00.000" out="00:00:11.720">
  <property name="length">294</property>
  <property name="eof">pause</property>
  <property name="resource">IBE-f001524.png</property>
  <property name="ttl">25</property>
  <property name="aspect_ratio">1</property>
  <property name="progressive">1</property>
  <property name="seekable">1</property>
  <property name="meta.media.width">1920</property>
  <property name="meta.media.height">1080</property>
  <property name="mlt_service">qimage</property>
  <property name="kdenlive:clipname"/>
  <property name="kdenlive:duration">00:00:05.000</property>
  <property name="kdenlive:folderid">-1</property>
  <property name="kdenlive:id">63</property>
  <property name="kdenlive:file_size">196226</property>
  <property name="kdenlive:file_hash">bb1edc0df8e3ab9eb0521e607f933ce3</property>
 </producer>
 <producer id="producer62" in="00:00:00.000" out="00:00:04.960">
  <property name="length">00:00:05.000</property>
  <property name="eof">pause</property>
  <property name="resource">Sign-f000075.png</property>
  <property name="ttl">25</property>
  <property name="aspect_ratio">1</property>
  <property name="progressive">1</property>
  <property name="seekable">1</property>
  <property name="meta.media.width">1920</property>
  <property name="meta.media.height">1080</property>
  <property name="mlt_service">qimage</property>
  <property name="kdenlive:clipname"/>
  <property name="kdenlive:duration">00:00:05.000</property>
  <property name="kdenlive:folderid">-1</property>
  <property name="kdenlive:id">64</property>
  <property name="kdenlive:file_size">60116</property>
  <property name="kdenlive:file_hash">4e52d7311e9291263e5ec60e39146b2b</property>
 </producer>
 <producer id="producer63" in="00:00:00.000" out="00:00:04.960">
  <property name="length">00:00:05.000</property>
  <property name="eof">pause</property>
  <property name="resource">Sign-f000110.png</property>
  <property name="ttl">25</property>
  <property name="aspect_ratio">1</property>
  <property name="progressive">1</property>
  <property name="seekable">1</property>
  <property name="meta.media.width">1920</property>
  <property name="meta.media.height">1080</property>
  <property name="mlt_service">qimage</property>
  <property name="kdenlive:clipname"/>
  <property name="kdenlive:duration">00:00:05.000</property>
  <property name="kdenlive:folderid">-1</property>
  <property name="kdenlive:id">65</property>
  <property name="kdenlive:file_size">60473</property>
  <property name="kdenlive:file_hash">c8ac95ca4fa9a586f3c99feaa04ed5e7</property>
 </producer>
 <producer id="producer64" in="00:00:00.000" out="00:00:05.880">
  <property name="length">148</property>
  <property name="eof">pause</property>
  <property name="resource">ImplyDE-f000088.png</property>
  <property name="ttl">25</property>
  <property name="aspect_ratio">1</property>
  <property name="progressive">1</property>
  <property name="seekable">1</property>
  <property name="meta.media.width">1920</property>
  <property name="meta.media.height">1080</property>
  <property name="mlt_service">qimage</property>
  <property name="kdenlive:clipname"/>
  <property name="kdenlive:duration">00:00:05.000</property>
  <property name="kdenlive:folderid">-1</property>
  <property name="kdenlive:id">66</property>
  <property name="kdenlive:file_size">43060</property>
  <property name="kdenlive:file_hash">95d76e37d5579075dbf6299bdcb2e798</property>
 </producer>
 <producer id="producer65" in="00:00:00.000" out="00:00:20.640">
  <property name="length">517</property>
  <property name="eof">pause</property>
  <property name="resource">ImplyDE-f000148.png</property>
  <property name="ttl">25</property>
  <property name="aspect_ratio">1</property>
  <property name="progressive">1</property>
  <property name="seekable">1</property>
  <property name="meta.media.width">1920</property>
  <property name="meta.media.height">1080</property>
  <property name="mlt_service">qimage</property>
  <property name="kdenlive:clipname"/>
  <property name="kdenlive:duration">00:00:05.000</property>
  <property name="kdenlive:folderid">-1</property>
  <property name="kdenlive:id">67</property>
  <property name="kdenlive:file_size">56802</property>
  <property name="kdenlive:file_hash">4d6bf746ebb588ebca82b5ad8974d5ab</property>
 </producer>
 <producer id="producer66" in="00:00:00.000" out="00:00:15.800">
  <property name="length">396</property>
  <property name="eof">pause</property>
  <property name="resource">ImplyDE-f000424.png</property>
  <property name="ttl">25</property>
  <property name="aspect_ratio">1</property>
  <property name="progressive">1</property>
  <property name="seekable">1</property>
  <property name="meta.media.width">1920</property>
  <property name="meta.media.height">1080</property>
  <property name="mlt_service">qimage</property>
  <property name="kdenlive:clipname"/>
  <property name="kdenlive:duration">00:00:05.000</property>
  <property name="kdenlive:folderid">-1</property>
  <property name="kdenlive:id">68</property>
  <property name="kdenlive:file_size">62174</property>
  <property name="kdenlive:file_hash">979866c72669900f469bb54cdf5c8f7b</property>
 </producer>
 <producer id="producer67" in="00:00:00.000" out="00:00:24.120">
  <property name="length">604</property>
  <property name="eof">pause</property>
  <property name="resource">Walk-f000028.png</property>
  <property name="ttl">25</property>
  <property name="aspect_ratio">1</property>
  <property name="progressive">1</property>
  <property name="seekable">1</property>
  <property name="meta.media.width">1920</property>
  <property name="meta.media.height">1080</property>
  <property name="mlt_service">qimage</property>
  <property name="kdenlive:clipname"/>
  <property name="kdenlive:duration">00:00:05.000</property>
  <property name="kdenlive:folderid">-1</property>
  <property name="kdenlive:id">69</property>
  <property name="kdenlive:file_size">12684</property>
  <property name="kdenlive:file_hash">08f8dfb26d277cccc1c3547255d3c691</property>
 </producer>
 <producer id="producer68" in="00:00:00.000" out="00:00:06.240">
  <property name="length">157</property>
  <property name="eof">pause</property>
  <property name="resource">Walk-f000108.png</property>
  <property name="ttl">25</property>
  <property name="aspect_ratio">1</property>
  <property name="progressive">1</property>
  <property name="seekable">1</property>
  <property name="meta.media.width">1920</property>
  <property name="meta.media.height">1080</property>
  <property name="mlt_service">qimage</property>
  <property name="kdenlive:clipname"/>
  <property name="kdenlive:duration">00:00:05.000</property>
  <property name="kdenlive:folderid">-1</property>
  <property name="kdenlive:id">70</property>
  <property name="kdenlive:file_size">181941</property>
  <property name="kdenlive:file_hash">2cb0dbc19dcbe3576a4bebcc3c1a990d</property>
 </producer>
 <producer id="producer69" in="00:00:00.000" out="00:00:45.200">
  <property name="length">1131</property>
  <property name="eof">pause</property>
  <property name="resource">Walk-f000156.png</property>
  <property name="ttl">25</property>
  <property name="aspect_ratio">1</property>
  <property name="progressive">1</property>
  <property name="seekable">1</property>
  <property name="meta.media.width">1920</property>
  <property name="meta.media.height">1080</property>
  <property name="mlt_service">qimage</property>
  <property name="kdenlive:clipname"/>
  <property name="kdenlive:duration">00:00:05.000</property>
  <property name="kdenlive:folderid">-1</property>
  <property name="kdenlive:id">71</property>
  <property name="kdenlive:file_size">15442</property>
  <property name="kdenlive:file_hash">dc78f1c66e9200bc55a51b1229b18428</property>
 </producer>
 <producer id="producer70" in="00:00:00.000" out="00:00:45.240">
  <property name="length">1132</property>
  <property name="eof">pause</property>
  <property name="resource">Walk-f001049.png</property>
  <property name="ttl">25</property>
  <property name="aspect_ratio">1</property>
  <property name="progressive">1</property>
  <property name="seekable">1</property>
  <property name="meta.media.width">1920</property>
  <property name="meta.media.height">1080</property>
  <property name="mlt_service">qimage</property>
  <property name="kdenlive:clipname"/>
  <property name="kdenlive:duration">00:00:05.000</property>
  <property name="kdenlive:folderid">-1</property>
  <property name="kdenlive:id">72</property>
  <property name="kdenlive:file_size">25924</property>
  <property name="kdenlive:file_hash">7556b1c9c2b39937f0c3adf1dc5615d0</property>
 </producer>
 <producer id="producer40" in="00:00:00.000" out="00:01:05.400">
  <property name="length">1636</property>
  <property name="eof">pause</property>
  <property name="resource">isogeny.png</property>
  <property name="ttl">25</property>
  <property name="aspect_ratio">1</property>
  <property name="progressive">1</property>
  <property name="seekable">1</property>
  <property name="meta.media.width">513</property>
  <property name="meta.media.height">239</property>
  <property name="mlt_service">qimage</property>
  <property name="kdenlive:clipname">isogeny.png</property>
  <property name="kdenlive:duration">00:00:05.000</property>
  <property name="kdenlive:folderid">-1</property>
  <property name="kdenlive:id">37</property>
  <property name="kdenlive:file_size">14198</property>
  <property name="global_feed">1</property>
  <property name="kdenlive:originalurl">isogeny.png</property>
  <property name="kdenlive:file_hash">0bc4f884459b28f0096a4a006c4067a0</property>
 </producer>
 <playlist autoclose="1" id="main_bin">
  <property name="kdenlive:docproperties.activeTrack">20</property>
  <property name="kdenlive:docproperties.audioTarget">-1</property>
  <property name="kdenlive:docproperties.decimalPoint">.</property>
  <property name="kdenlive:docproperties.dirtypreviewchunks"/>
  <property name="kdenlive:docproperties.disablepreview">0</property>
  <property name="kdenlive:docproperties.documentid">1633643704453</property>
  <property name="kdenlive:docproperties.enableTimelineZone">0</property>
  <property name="kdenlive:docproperties.enableexternalproxy">0</property>
  <property name="kdenlive:docproperties.enableproxy">0</property>
  <property name="kdenlive:docproperties.externalproxyparams"/>
  <property name="kdenlive:docproperties.generateimageproxy">0</property>
  <property name="kdenlive:docproperties.generateproxy">0</property>
  <property name="kdenlive:docproperties.groups">[
    {
        "children": [
            {
                "data": "6:3678",
                "leaf": "clip",
                "type": "Leaf"
            },
            {
                "data": "26:3678",
                "leaf": "clip",
                "type": "Leaf"
            }
        ],
        "type": "AVSplit"
    },
    {
        "children": [
            {
                "data": "26:3330",
                "leaf": "clip",
                "type": "Leaf"
            },
            {
                "data": "6:3330",
                "leaf": "clip",
                "type": "Leaf"
            }
        ],
        "type": "AVSplit"
    },
    {
        "children": [
            {
                "data": "21:28738",
                "leaf": "clip",
                "type": "Leaf"
            },
            {
                "data": "7:28738",
                "leaf": "clip",
                "type": "Leaf"
            }
        ],
        "type": "Normal"
    },
    {
        "children": [
            {
                "data": "8:25586",
                "leaf": "clip",
                "type": "Leaf"
            },
            {
                "data": "22:25586",
                "leaf": "clip",
                "type": "Leaf"
            },
            {
                "data": "9:25586",
                "leaf": "clip",
                "type": "Leaf"
            }
        ],
        "type": "Normal"
    },
    {
        "children": [
            {
                "data": "21:32322",
                "leaf": "clip",
                "type": "Leaf"
            },
            {
                "data": "7:32296",
                "leaf": "clip",
                "type": "Leaf"
            },
            {
                "data": "9:32322",
                "leaf": "clip",
                "type": "Leaf"
            }
        ],
        "type": "Normal"
    },
    {
        "children": [
            {
                "data": "9:17068",
                "leaf": "clip",
                "type": "Leaf"
            },
            {
                "data": "8:17068",
                "leaf": "clip",
                "type": "Leaf"
            },
            {
                "data": "22:17068",
                "leaf": "clip",
                "type": "Leaf"
            }
        ],
        "type": "Normal"
    },
    {
        "children": [
            {
                "data": "21:21011",
                "leaf": "clip",
                "type": "Leaf"
            },
            {
                "data": "9:21011",
                "leaf": "clip",
                "type": "Leaf"
            },
            {
                "data": "7:21011",
                "leaf": "clip",
                "type": "Leaf"
            }
        ],
        "type": "Normal"
    },
    {
        "children": [
            {
                "data": "7:22550",
                "leaf": "clip",
                "type": "Leaf"
            },
            {
                "data": "21:22550",
                "leaf": "clip",
                "type": "Leaf"
            },
            {
                "data": "9:22550",
                "leaf": "clip",
                "type": "Leaf"
            }
        ],
        "type": "Normal"
    },
    {
        "children": [
            {
                "data": "8:32688",
                "leaf": "clip",
                "type": "Leaf"
            },
            {
                "data": "22:32688",
                "leaf": "clip",
                "type": "Leaf"
            },
            {
                "data": "9:32688",
                "leaf": "clip",
                "type": "Leaf"
            }
        ],
        "type": "Normal"
    },
    {
        "children": [
            {
                "data": "26:1628",
                "leaf": "clip",
                "type": "Leaf"
            },
            {
                "data": "6:1628",
                "leaf": "clip",
                "type": "Leaf"
            }
        ],
        "type": "AVSplit"
    },
    {
        "children": [
            {
                "data": "26:842",
                "leaf": "clip",
                "type": "Leaf"
            },
            {
                "data": "6:842",
                "leaf": "clip",
                "type": "Leaf"
            }
        ],
        "type": "AVSplit"
    },
    {
        "children": [
            {
                "data": "9:22234",
                "leaf": "clip",
                "type": "Leaf"
            },
            {
                "data": "8:22234",
                "leaf": "clip",
                "type": "Leaf"
            },
            {
                "data": "22:22234",
                "leaf": "clip",
                "type": "Leaf"
            }
        ],
        "type": "Normal"
    },
    {
        "children": [
            {
                "data": "8:30813",
                "leaf": "clip",
                "type": "Leaf"
            },
            {
                "data": "9:30813",
                "leaf": "clip",
                "type": "Leaf"
            },
            {
                "data": "22:30813",
                "leaf": "clip",
                "type": "Leaf"
            }
        ],
        "type": "Normal"
    },
    {
        "children": [
            {
                "data": "26:4031",
                "leaf": "clip",
                "type": "Leaf"
            },
            {
                "data": "6:4031",
                "leaf": "clip",
                "type": "Leaf"
            }
        ],
        "type": "AVSplit"
    },
    {
        "children": [
            {
                "data": "9:23636",
                "leaf": "clip",
                "type": "Leaf"
            },
            {
                "data": "8:23636",
                "leaf": "clip",
                "type": "Leaf"
            },
            {
                "data": "22:23636",
                "leaf": "clip",
                "type": "Leaf"
            }
        ],
        "type": "Normal"
    },
    {
        "children": [
            {
                "data": "21:26630",
                "leaf": "clip",
                "type": "Leaf"
            },
            {
                "data": "7:26630",
                "leaf": "clip",
                "type": "Leaf"
            }
        ],
        "type": "Normal"
    },
    {
        "children": [
            {
                "data": "22:29086",
                "leaf": "clip",
                "type": "Leaf"
            },
            {
                "data": "8:29086",
                "leaf": "clip",
                "type": "Leaf"
            }
        ],
        "type": "Normal"
    },
    {
        "children": [
            {
                "data": "22:28202",
                "leaf": "clip",
                "type": "Leaf"
            },
            {
                "data": "8:28202",
                "leaf": "clip",
                "type": "Leaf"
            }
        ],
        "type": "Normal"
    },
    {
        "children": [
            {
                "data": "26:359",
                "leaf": "clip",
                "type": "Leaf"
            },
            {
                "data": "6:364",
                "leaf": "clip",
                "type": "Leaf"
            }
        ],
        "type": "AVSplit"
    },
    {
        "children": [
            {
                "data": "7:29518",
                "leaf": "clip",
                "type": "Leaf"
            },
            {
                "data": "9:29518",
                "leaf": "clip",
                "type": "Leaf"
            },
            {
                "data": "21:29518",
                "leaf": "clip",
                "type": "Leaf"
            }
        ],
        "type": "Normal"
    },
    {
        "children": [
            {
                "data": "9:24082",
                "leaf": "clip",
                "type": "Leaf"
            },
            {
                "data": "21:24082",
                "leaf": "clip",
                "type": "Leaf"
            },
            {
                "data": "7:24082",
                "leaf": "clip",
                "type": "Leaf"
            }
        ],
        "type": "Normal"
    },
    {
        "children": [
            {
                "data": "6:2535",
                "leaf": "clip",
                "type": "Leaf"
            },
            {
                "data": "26:2535",
                "leaf": "clip",
                "type": "Leaf"
            }
        ],
        "type": "AVSplit"
    },
    {
        "children": [
            {
                "data": "6:2923",
                "leaf": "clip",
                "type": "Leaf"
            },
            {
                "data": "26:2923",
                "leaf": "clip",
                "type": "Leaf"
            }
        ],
        "type": "AVSplit"
    },
    {
        "children": [
            {
                "data": "6:2160",
                "leaf": "clip",
                "type": "Leaf"
            },
            {
                "data": "26:2160",
                "leaf": "clip",
                "type": "Leaf"
            }
        ],
        "type": "AVSplit"
    },
    {
        "children": [
            {
                "data": "22:34826",
                "leaf": "clip",
                "type": "Leaf"
            },
            {
                "data": "8:34826",
                "leaf": "clip",
                "type": "Leaf"
            }
        ],
        "type": "Normal"
    }
]
</property>
  <property name="kdenlive:docproperties.guides">[
    {
        "comment": "guide",
        "pos": 280,
        "type": 0
    },
    {
        "comment": "guide",
        "pos": 359,
        "type": 0
    },
    {
        "comment": "guide",
        "pos": 485,
        "type": 0
    },
    {
        "comment": "guide",
        "pos": 4395,
        "type": 0
    },
    {
        "comment": "guide",
        "pos": 4714,
        "type": 0
    },
    {
        "comment": "guide",
        "pos": 10967,
        "type": 0
    },
    {
        "comment": "guide",
        "pos": 10992,
        "type": 0
    },
    {
        "comment": "guide",
        "pos": 14125,
        "type": 0
    },
    {
        "comment": "guide",
        "pos": 14151,
        "type": 0
    },
    {
        "comment": "guide",
        "pos": 17068,
        "type": 0
    }
]
</property>
  <property name="kdenlive:docproperties.kdenliveversion">20.04.0</property>
  <property name="kdenlive:docproperties.position">23636</property>
  <property name="kdenlive:docproperties.previewchunks"/>
  <property name="kdenlive:docproperties.previewextension">mkv</property>
  <property name="kdenlive:docproperties.previewparameters">vcodec=h264_vaapi g=1 bf=0 profile=578</property>
  <property name="kdenlive:docproperties.profile">atsc_1080p_25</property>
  <property name="kdenlive:docproperties.proxyextension"/>
  <property name="kdenlive:docproperties.proxyimageminsize">2000</property>
  <property name="kdenlive:docproperties.proxyimagesize">800</property>
  <property name="kdenlive:docproperties.proxyminsize">1000</property>
  <property name="kdenlive:docproperties.proxyparams"/>
  <property name="kdenlive:docproperties.renderaudioquality">256</property>
  <property name="kdenlive:docproperties.rendercategory">Generic (HD for web, mobile devices...)</property>
  <property name="kdenlive:docproperties.renderendguide">0</property>
  <property name="kdenlive:docproperties.renderexportaudio">0</property>
  <property name="kdenlive:docproperties.renderfield">0</property>
  <property name="kdenlive:docproperties.renderguide">0</property>
  <property name="kdenlive:docproperties.renderplay">0</property>
  <property name="kdenlive:docproperties.renderprofile">MP4 - the dominating format (H264/AAC)</property>
  <property name="kdenlive:docproperties.renderquality">15</property>
  <property name="kdenlive:docproperties.renderratio">1</property>
  <property name="kdenlive:docproperties.renderrescale">0</property>
  <property name="kdenlive:docproperties.renderrescaleheight">1080</property>
  <property name="kdenlive:docproperties.renderrescalewidth">1920</property>
  <property name="kdenlive:docproperties.renderscanning">0</property>
  <property name="kdenlive:docproperties.renderspeed">2</property>
  <property name="kdenlive:docproperties.renderstartguide">0</property>
  <property name="kdenlive:docproperties.rendertcoverlay">0</property>
  <property name="kdenlive:docproperties.rendertctype">0</property>
  <property name="kdenlive:docproperties.rendertwopass">0</property>
  <property name="kdenlive:docproperties.renderurl">/home/defeo/Videos/de.mp4</property>
  <property name="kdenlive:docproperties.renderzone">0</property>
  <property name="kdenlive:docproperties.scrollPos">291211</property>
  <property name="kdenlive:docproperties.seekOffset">30000</property>
  <property name="kdenlive:docproperties.version">0.99</property>
  <property name="kdenlive:docproperties.verticalzoom">1</property>
  <property name="kdenlive:docproperties.videoTarget">-1</property>
  <property name="kdenlive:docproperties.zonein">15817</property>
  <property name="kdenlive:docproperties.zoneout">16043</property>
  <property name="kdenlive:docproperties.zoom">3</property>
  <property name="kdenlive:documentnotes"/>
  <property name="xml_retain">1</property>
  <entry producer="producer0" in="00:00:00.000" out="00:12:22.520"/>
  <entry producer="producer1" in="00:00:00.000" out="01:18:22.520"/>
  <entry producer="producer2" in="00:00:00.000" out="00:03:22.240"/>
  <entry producer="producer3" in="00:00:00.000" out="00:32:19.640"/>
  <entry producer="producer4" in="00:00:00.000" out="01:04:45.560"/>
  <entry producer="producer5" in="00:00:00.000" out="01:04:50.360"/>
  <entry producer="producer7" in="00:00:00.000" out="00:00:15.320"/>
  <entry producer="producer8" in="00:00:00.000" out="00:00:11.960"/>
  <entry producer="producer9" in="00:00:00.000" out="00:00:08.040"/>
  <entry producer="producer10" in="00:00:00.000" out="00:00:14.760"/>
  <entry producer="producer11" in="00:00:00.000" out="00:00:27.840"/>
  <entry producer="producer12" in="00:00:00.000" out="00:08:17.400"/>
  <entry producer="producer13" in="00:00:00.000" out="00:09:59.960"/>
  <entry producer="producer14" in="00:00:00.000" out="00:09:59.960"/>
  <entry producer="producer15" in="00:00:00.000" out="00:00:04.960"/>
  <entry producer="producer16" in="00:00:00.000" out="00:00:04.960"/>
  <entry producer="producer17" in="00:00:00.000" out="00:00:04.960"/>
  <entry producer="producer18" in="00:00:00.000" out="00:00:04.960"/>
  <entry producer="producer19" in="00:00:00.000" out="00:00:21.440"/>
  <entry producer="producer20" in="00:00:00.000" out="00:00:46.000"/>
  <entry producer="producer22" in="00:00:00.000" out="00:01:19.560"/>
  <entry producer="producer21" in="00:00:00.000" out="00:01:14.280"/>
  <entry producer="producer23" in="00:00:00.000" out="00:09:59.960"/>
  <entry producer="producer24" in="00:00:00.000" out="00:02:47.640"/>
  <entry producer="producer25" in="00:00:00.000" out="00:09:59.960"/>
  <entry producer="producer26" in="00:00:00.000" out="00:00:04.960"/>
  <entry producer="producer32" in="00:00:00.000" out="00:00:12.840"/>
  <entry producer="producer29" in="00:00:00.000" out="00:00:15.320"/>
  <entry producer="producer30" in="00:00:00.000" out="00:00:15.320"/>
  <entry producer="producer31" in="00:00:00.000" out="00:00:10.000"/>
  <entry producer="producer27" in="00:00:00.000" out="00:03:08.520"/>
  <entry producer="producer28" in="00:00:00.000" out="00:00:50.520"/>
  <entry producer="producer36" in="00:00:00.000" out="00:00:18.960"/>
  <entry producer="producer34" in="00:00:00.000" out="00:00:16.960"/>
  <entry producer="producer35" in="00:00:00.000" out="00:00:13.960"/>
  <entry producer="producer37" in="00:00:00.000" out="00:00:04.960"/>
  <entry producer="producer39" in="00:00:00.000" out="00:01:00.960"/>
  <entry producer="producer6" in="00:00:00.000" out="00:00:41.960"/>
  <entry producer="producer33" in="00:00:00.000" out="00:00:28.960"/>
  <entry producer="producer38" in="00:00:00.000" out="00:00:14.520"/>
  <entry producer="producer41" in="00:00:00.000" out="00:00:04.960"/>
  <entry producer="producer42" in="00:00:00.000" out="00:00:07.560"/>
  <entry producer="producer43" in="00:00:00.000" out="00:00:04.960"/>
  <entry producer="producer44" in="00:00:00.000" out="00:00:09.400"/>
  <entry producer="producer45" in="00:00:00.000" out="00:00:06.120"/>
  <entry producer="producer46" in="00:00:00.000" out="00:00:34.160"/>
  <entry producer="producer47" in="00:00:00.000" out="00:00:08.280"/>
  <entry producer="producer48" in="00:00:00.000" out="00:00:04.960"/>
  <entry producer="producer49" in="00:00:00.000" out="00:00:10.880"/>
  <entry producer="producer50" in="00:00:00.000" out="00:00:06.000"/>
  <entry producer="producer51" in="00:00:00.000" out="00:00:05.240"/>
  <entry producer="producer52" in="00:00:00.000" out="00:00:08.400"/>
  <entry producer="producer53" in="00:00:00.000" out="00:00:06.440"/>
  <entry producer="producer54" in="00:00:00.000" out="00:00:06.240"/>
  <entry producer="producer55" in="00:00:00.000" out="00:00:08.920"/>
  <entry producer="producer56" in="00:00:00.000" out="00:01:04.960"/>
  <entry producer="producer57" in="00:00:00.000" out="00:00:04.960"/>
  <entry producer="producer58" in="00:00:00.000" out="00:00:05.320"/>
  <entry producer="producer59" in="00:00:00.000" out="00:00:04.960"/>
  <entry producer="producer60" in="00:00:00.000" out="00:00:15.840"/>
  <entry producer="producer61" in="00:00:00.000" out="00:00:11.720"/>
  <entry producer="producer62" in="00:00:00.000" out="00:00:04.960"/>
  <entry producer="producer63" in="00:00:00.000" out="00:00:04.960"/>
  <entry producer="producer64" in="00:00:00.000" out="00:00:05.880"/>
  <entry producer="producer65" in="00:00:00.000" out="00:00:20.640"/>
  <entry producer="producer66" in="00:00:00.000" out="00:00:15.800"/>
  <entry producer="producer67" in="00:00:00.000" out="00:00:24.120"/>
  <entry producer="producer68" in="00:00:00.000" out="00:00:06.240"/>
  <entry producer="producer69" in="00:00:00.000" out="00:00:45.200"/>
  <entry producer="producer70" in="00:00:00.000" out="00:00:45.240"/>
  <entry producer="producer40" in="00:00:00.000" out="00:00:44.520"/>
 </playlist>
 <producer id="black_track" in="00:00:00.000" out="00:43:48.920">
  <property name="length">2147483647</property>
  <property name="eof">continue</property>
  <property name="resource">black</property>
  <property name="aspect_ratio">1</property>
  <property name="mlt_service">color</property>
  <property name="mlt_image_format">rgb24a</property>
  <property name="set.test_audio">0</property>
 </producer>
 <producer id="producer71" in="00:00:00.000" out="00:03:22.240">
  <property name="length">5057</property>
  <property name="eof">pause</property>
  <property name="resource">noise.wav</property>
  <property name="meta.media.nb_streams">1</property>
  <property name="meta.media.0.stream.type">audio</property>
  <property name="meta.media.0.codec.sample_fmt">s32</property>
  <property name="meta.media.0.codec.sample_rate">48000</property>
  <property name="meta.media.0.codec.channels">2</property>
  <property name="meta.media.0.codec.name">pcm_s24le</property>
  <property name="meta.media.0.codec.long_name">PCM signed 24-bit little-endian</property>
  <property name="meta.media.0.codec.bit_rate">2304000</property>
  <property name="meta.attr.encoder.markup">Lavf58.29.100 (libsndfile-1.0.31)</property>
  <property name="seekable">1</property>
  <property name="audio_index">0</property>
  <property name="video_index">-1</property>
  <property name="mute_on_pause">0</property>
  <property name="mlt_service">avformat-novalidate</property>
  <property name="kdenlive:clipname"/>
  <property name="kdenlive:folderid">-1</property>
  <property name="kdenlive:id">4</property>
  <property name="kdenlive:file_size">58252386</property>
  <property name="kdenlive:file_hash">b045186b00ed8419a1fa570050a05ef0</property>
  <property name="global_feed">1</property>
  <property name="xml">was here</property>
  <property name="set.test_audio">0</property>
  <property name="set.test_image">1</property>
 </producer>
 <playlist autoclose="1" id="playlist0">
  <property name="kdenlive:audio_track">1</property>
  <blank length="00:03:08.560"/>
  <entry producer="producer71" in="00:01:02.920" out="00:01:21.760">
   <property name="kdenlive:id">4</property>
  </entry>
  <blank length="00:00:07.160"/>
  <entry producer="producer71" in="00:01:28.960" out="00:01:37.440">
   <property name="kdenlive:id">4</property>
  </entry>
  <blank length="00:00:08.880"/>
  <entry producer="producer71" in="00:01:46.360" out="00:01:52.040">
   <property name="kdenlive:id">4</property>
  </entry>
  <blank length="00:00:17.040"/>
  <entry producer="producer71" in="00:02:09.120" out="00:02:27.480">
   <property name="kdenlive:id">4</property>
  </entry>
  <blank length="00:00:06.360"/>
  <entry producer="producer71" in="00:02:33.880" out="00:02:42.400">
   <property name="kdenlive:id">4</property>
  </entry>
  <blank length="00:00:07.560"/>
  <entry producer="producer71" in="00:02:50.000" out="00:03:22.240">
   <property name="kdenlive:id">4</property>
  </entry>
  <entry producer="producer71" in="00:00:00.000" out="00:00:05.040">
   <property name="kdenlive:id">4</property>
  </entry>
  <blank length="00:00:19.600"/>
  <entry producer="producer71" in="00:00:24.680" out="00:00:35.040">
   <property name="kdenlive:id">4</property>
  </entry>
  <blank length="00:00:00.680"/>
  <entry producer="producer71" in="00:00:35.760" out="00:00:57.640">
   <property name="kdenlive:id">4</property>
  </entry>
  <blank length="00:00:03.080"/>
  <entry producer="producer71" in="00:01:00.760" out="00:01:46.480">
   <property name="kdenlive:id">4</property>
  </entry>
  <blank length="00:00:09.440"/>
  <entry producer="producer71" in="00:01:55.960" out="00:02:08.080">
   <property name="kdenlive:id">4</property>
  </entry>
  <blank length="00:00:04.440"/>
  <entry producer="producer71" in="00:02:12.560" out="00:03:22.240">
   <property name="kdenlive:id">4</property>
  </entry>
  <entry producer="producer71" in="00:00:00.000" out="00:00:35.520">
   <property name="kdenlive:id">4</property>
  </entry>
  <blank length="00:00:33.040"/>
  <entry producer="producer71" in="00:01:08.600" out="00:02:14.000">
   <property name="kdenlive:id">4</property>
  </entry>
  <filter id="filter1">
   <property name="window">75</property>
   <property name="max_gain">20dB</property>
   <property name="mlt_service">volume</property>
   <property name="internal_added">237</property>
   <property name="disable">1</property>
  </filter>
  <filter id="filter2">
   <property name="channel">-1</property>
   <property name="mlt_service">panner</property>
   <property name="internal_added">237</property>
   <property name="start">0.5</property>
   <property name="disable">1</property>
  </filter>
  <filter id="filter3" out="00:23:48.920">
   <property name="window">75</property>
   <property name="max_gain">20dB</property>
   <property name="level">00:00:00.000=4</property>
   <property name="mlt_service">volume</property>
   <property name="kdenlive_id">volume</property>
   <property name="kdenlive:collapsed">0</property>
  </filter>
 </playlist>
 <playlist autoclose="1" id="playlist1">
  <property name="kdenlive:audio_track">1</property>
 </playlist>
 <tractor id="tractor0" in="00:00:00.000" out="00:11:04.200">
  <property name="kdenlive:audio_track">1</property>
  <property name="kdenlive:trackheight">69</property>
  <property name="kdenlive:collapsed">43</property>
  <property name="kdenlive:track_name">noise</property>
  <property name="kdenlive:thumbs_format"/>
  <property name="kdenlive:audio_rec"/>
  <property name="kdenlive:timeline_active">1</property>
  <property name="kdenlive:locked_track">1</property>
  <track hide="video" producer="playlist0"/>
  <track hide="video" producer="playlist1"/>
  <filter id="filter4">
   <property name="iec_scale">0</property>
   <property name="mlt_service">audiolevel</property>
   <property name="disable">1</property>
  </filter>
 </tractor>
 <producer id="producer72" in="00:00:00.000" out="01:18:22.520">
  <property name="length">117564</property>
  <property name="eof">pause</property>
  <property name="resource">C0002.MP4</property>
  <property name="audio_index">1</property>
  <property name="video_index">0</property>
  <property name="mute_on_pause">0</property>
  <property name="mlt_service">avformat-novalidate</property>
  <property name="seekable">1</property>
  <property name="aspect_ratio">1</property>
  <property name="kdenlive:clipname"/>
  <property name="kdenlive:folderid">-1</property>
  <property name="kdenlive:id">3</property>
  <property name="kdenlive:file_size">33349940699</property>
  <property name="kdenlive:file_hash">ba0937037b10f657b22f23a49c7604ce</property>
  <property name="global_feed">1</property>
  <property name="xml">was here</property>
  <property name="meta.media.nb_streams">3</property>
  <property name="meta.media.0.stream.type">video</property>
  <property name="meta.media.0.stream.frame_rate">25</property>
  <property name="meta.media.0.stream.sample_aspect_ratio">0</property>
  <property name="meta.media.0.codec.width">3840</property>
  <property name="meta.media.0.codec.height">2160</property>
  <property name="meta.media.0.codec.rotate">0</property>
  <property name="meta.media.0.codec.frame_rate">25</property>
  <property name="meta.media.0.codec.pix_fmt">yuv420p</property>
  <property name="meta.media.0.codec.sample_aspect_ratio">1</property>
  <property name="meta.media.0.codec.colorspace">709</property>
  <property name="meta.media.0.codec.color_trc">11</property>
  <property name="meta.media.0.codec.name">h264</property>
  <property name="meta.media.0.codec.long_name">H.264 / AVC / MPEG-4 AVC / MPEG-4 part 10</property>
  <property name="meta.media.0.codec.bit_rate">54991848</property>
  <property name="meta.attr.0.stream.creation_time.markup">2021-10-07T14:55:19.000000Z</property>
  <property name="meta.attr.0.stream.handler_name.markup">Video Media Handler</property>
  <property name="meta.attr.0.stream.encoder.markup">AVC Coding</property>
  <property name="meta.media.1.stream.type">audio</property>
  <property name="meta.media.1.codec.sample_fmt">s16</property>
  <property name="meta.media.1.codec.sample_rate">48000</property>
  <property name="meta.media.1.codec.channels">2</property>
  <property name="meta.media.1.codec.name">pcm_s16be</property>
  <property name="meta.media.1.codec.long_name">PCM signed 16-bit big-endian</property>
  <property name="meta.media.1.codec.bit_rate">1536000</property>
  <property name="meta.attr.1.stream.creation_time.markup">2021-10-07T14:55:19.000000Z</property>
  <property name="meta.attr.1.stream.handler_name.markup">Sound Media Handler</property>
  <property name="meta.attr.major_brand.markup">XAVC</property>
  <property name="meta.attr.minor_version.markup">16785407</property>
  <property name="meta.attr.compatible_brands.markup">XAVCmp42iso2</property>
  <property name="meta.attr.creation_time.markup">2021-10-07T14:55:19.000000Z</property>
  <property name="meta.media.sample_aspect_num">1</property>
  <property name="meta.media.sample_aspect_den">1</property>
  <property name="meta.media.frame_rate_num">25</property>
  <property name="meta.media.frame_rate_den">1</property>
  <property name="meta.media.colorspace">709</property>
  <property name="meta.media.color_trc">11</property>
  <property name="meta.media.width">3840</property>
  <property name="meta.media.height">2160</property>
  <property name="meta.media.color_range">mpeg</property>
  <property name="set.test_audio">0</property>
  <property name="set.test_image">1</property>
 </producer>
 <playlist autoclose="1" id="playlist2">
  <property name="kdenlive:audio_track">1</property>
  <blank length="00:03:27.440"/>
  <entry producer="producer72" in="00:11:43.120" out="00:11:50.240">
   <property name="kdenlive:id">3</property>
  </entry>
  <blank length="00:00:08.520"/>
  <entry producer="producer72" in="00:11:58.800" out="00:12:07.640">
   <property name="kdenlive:id">3</property>
  </entry>
  <blank length="00:00:05.280"/>
  <entry producer="producer72" in="00:12:12.960" out="00:12:30.400">
   <property name="kdenlive:id">3</property>
   <filter id="filter5" in="00:12:12.960" out="00:12:13.400">
    <property name="window">75</property>
    <property name="max_gain">20dB</property>
    <property name="mlt_service">volume</property>
    <property name="kdenlive_id">fadein</property>
    <property name="gain">0</property>
    <property name="end">1</property>
   </filter>
  </entry>
  <blank length="00:00:18.400"/>
  <entry producer="producer72" in="00:12:48.840" out="00:12:55.160">
   <property name="kdenlive:id">3</property>
  </entry>
  <blank length="00:00:08.560"/>
  <entry producer="producer72" in="00:34:42.480" out="00:34:50.000">
   <property name="kdenlive:id">3</property>
  </entry>
  <blank length="00:00:37.360"/>
  <entry producer="producer72" in="00:35:27.400" out="00:35:46.960">
   <property name="kdenlive:id">3</property>
  </entry>
  <blank length="00:00:10.400"/>
  <entry producer="producer72" in="00:35:57.400" out="00:35:58.040">
   <property name="kdenlive:id">3</property>
  </entry>
  <blank length="00:00:21.920"/>
  <entry producer="producer72" in="00:36:20.000" out="00:36:23.040">
   <property name="kdenlive:id">3</property>
   <filter id="filter6" in="00:36:22.840" out="00:36:23.040">
    <property name="window">75</property>
    <property name="max_gain">20dB</property>
    <property name="mlt_service">volume</property>
    <property name="kdenlive_id">fadeout</property>
    <property name="gain">1</property>
    <property name="end">0</property>
   </filter>
  </entry>
  <blank length="00:00:34.840"/>
  <entry producer="producer72" in="00:36:57.920" out="00:36:58.360">
   <property name="kdenlive:id">3</property>
   <filter id="filter7" in="00:36:57.920" out="00:36:58.160">
    <property name="window">75</property>
    <property name="max_gain">20dB</property>
    <property name="mlt_service">volume</property>
    <property name="kdenlive_id">fadein</property>
    <property name="gain">0</property>
    <property name="end">1</property>
   </filter>
   <filter id="filter8" in="00:36:58.080" out="00:36:58.360">
    <property name="window">75</property>
    <property name="max_gain">20dB</property>
    <property name="mlt_service">volume</property>
    <property name="kdenlive_id">fadeout</property>
    <property name="gain">1</property>
    <property name="end">0</property>
   </filter>
  </entry>
  <blank length="00:00:10.440"/>
  <entry producer="producer72" in="00:37:08.840" out="00:37:18.240">
   <property name="kdenlive:id">3</property>
  </entry>
  <blank length="00:00:12.160"/>
  <entry producer="producer72" in="01:13:13.160" out="01:13:17.560">
   <property name="kdenlive:id">3</property>
  </entry>
  <blank length="00:01:45.280"/>
  <entry producer="producer72" in="01:15:02.880" out="01:15:35.880">
   <property name="kdenlive:id">3</property>
  </entry>
  <blank length="00:01:05.440"/>
  <entry producer="producer72" in="01:16:41.360" out="01:16:59.000">
   <property name="kdenlive:id">3</property>
  </entry>
  <filter id="filter9" out="01:21:37.240">
   <property name="window">75</property>
   <property name="max_gain">20dB</property>
   <property name="level">00:00:00.000=14</property>
   <property name="mlt_service">volume</property>
   <property name="kdenlive_id">volume</property>
   <property name="kdenlive:collapsed">0</property>
  </filter>
  <filter id="filter10">
   <property name="window">75</property>
   <property name="max_gain">20dB</property>
   <property name="mlt_service">volume</property>
   <property name="internal_added">237</property>
   <property name="disable">1</property>
  </filter>
  <filter id="filter11">
   <property name="channel">-1</property>
   <property name="mlt_service">panner</property>
   <property name="internal_added">237</property>
   <property name="start">0.5</property>
   <property name="disable">1</property>
  </filter>
  <filter id="filter12" out="01:11:17.360">
   <property name="channel">-1</property>
   <property name="split">00:00:00.000=0.6</property>
   <property name="mlt_service">panner</property>
   <property name="kdenlive_id">audiobalance</property>
   <property name="start">0.5</property>
   <property name="kdenlive:collapsed">1</property>
  </filter>
 </playlist>
 <playlist autoclose="1" id="playlist3">
  <property name="kdenlive:audio_track">1</property>
 </playlist>
 <tractor id="tractor1" in="00:00:00.000" out="00:11:21.880">
  <property name="kdenlive:audio_track">1</property>
  <property name="kdenlive:trackheight">84</property>
  <property name="kdenlive:collapsed">43</property>
  <property name="kdenlive:track_name">Jeff</property>
  <property name="kdenlive:thumbs_format"/>
  <property name="kdenlive:audio_rec"/>
  <property name="kdenlive:timeline_active">1</property>
  <property name="kdenlive:locked_track">1</property>
  <track hide="video" producer="playlist2"/>
  <track hide="video" producer="playlist3"/>
  <filter id="filter13">
   <property name="iec_scale">0</property>
   <property name="mlt_service">audiolevel</property>
   <property name="disable">1</property>
  </filter>
 </tractor>
 <producer id="producer73" in="00:00:00.000" out="01:18:22.520">
  <property name="length">117564</property>
  <property name="eof">pause</property>
  <property name="resource">C0002.MP4</property>
  <property name="audio_index">1</property>
  <property name="video_index">0</property>
  <property name="mute_on_pause">0</property>
  <property name="mlt_service">avformat-novalidate</property>
  <property name="seekable">1</property>
  <property name="aspect_ratio">1</property>
  <property name="kdenlive:clipname"/>
  <property name="kdenlive:folderid">-1</property>
  <property name="kdenlive:id">3</property>
  <property name="kdenlive:file_size">33349940699</property>
  <property name="kdenlive:file_hash">ba0937037b10f657b22f23a49c7604ce</property>
  <property name="global_feed">1</property>
  <property name="xml">was here</property>
  <property name="meta.media.nb_streams">3</property>
  <property name="meta.media.0.stream.type">video</property>
  <property name="meta.media.0.stream.frame_rate">25</property>
  <property name="meta.media.0.stream.sample_aspect_ratio">0</property>
  <property name="meta.media.0.codec.width">3840</property>
  <property name="meta.media.0.codec.height">2160</property>
  <property name="meta.media.0.codec.rotate">0</property>
  <property name="meta.media.0.codec.frame_rate">25</property>
  <property name="meta.media.0.codec.pix_fmt">yuv420p</property>
  <property name="meta.media.0.codec.sample_aspect_ratio">1</property>
  <property name="meta.media.0.codec.colorspace">709</property>
  <property name="meta.media.0.codec.color_trc">11</property>
  <property name="meta.media.0.codec.name">h264</property>
  <property name="meta.media.0.codec.long_name">H.264 / AVC / MPEG-4 AVC / MPEG-4 part 10</property>
  <property name="meta.media.0.codec.bit_rate">54991848</property>
  <property name="meta.attr.0.stream.creation_time.markup">2021-10-07T14:55:19.000000Z</property>
  <property name="meta.attr.0.stream.handler_name.markup">Video Media Handler</property>
  <property name="meta.attr.0.stream.encoder.markup">AVC Coding</property>
  <property name="meta.media.1.stream.type">audio</property>
  <property name="meta.media.1.codec.sample_fmt">s16</property>
  <property name="meta.media.1.codec.sample_rate">48000</property>
  <property name="meta.media.1.codec.channels">2</property>
  <property name="meta.media.1.codec.name">pcm_s16be</property>
  <property name="meta.media.1.codec.long_name">PCM signed 16-bit big-endian</property>
  <property name="meta.media.1.codec.bit_rate">1536000</property>
  <property name="meta.attr.1.stream.creation_time.markup">2021-10-07T14:55:19.000000Z</property>
  <property name="meta.attr.1.stream.handler_name.markup">Sound Media Handler</property>
  <property name="meta.attr.major_brand.markup">XAVC</property>
  <property name="meta.attr.minor_version.markup">16785407</property>
  <property name="meta.attr.compatible_brands.markup">XAVCmp42iso2</property>
  <property name="meta.attr.creation_time.markup">2021-10-07T14:55:19.000000Z</property>
  <property name="meta.media.sample_aspect_num">1</property>
  <property name="meta.media.sample_aspect_den">1</property>
  <property name="meta.media.frame_rate_num">25</property>
  <property name="meta.media.frame_rate_den">1</property>
  <property name="meta.media.colorspace">709</property>
  <property name="meta.media.color_trc">11</property>
  <property name="meta.media.width">3840</property>
  <property name="meta.media.height">2160</property>
  <property name="meta.media.color_range">mpeg</property>
  <property name="set.test_audio">0</property>
  <property name="set.test_image">1</property>
 </producer>
 <playlist autoclose="1" id="playlist4">
  <property name="kdenlive:audio_track">1</property>
  <blank length="00:03:08.560"/>
  <entry producer="producer73" in="00:11:24.240" out="00:11:43.080">
   <property name="kdenlive:id">3</property>
  </entry>
  <blank length="00:00:07.160"/>
  <entry producer="producer73" in="00:11:50.280" out="00:11:58.760">
   <property name="kdenlive:id">3</property>
  </entry>
  <blank length="00:00:08.880"/>
  <entry producer="producer73" in="00:12:07.680" out="00:12:13.360">
   <property name="kdenlive:id">3</property>
  </entry>
  <blank length="00:00:17.040"/>
  <entry producer="producer73" in="00:12:30.440" out="00:12:48.800">
   <property name="kdenlive:id">3</property>
  </entry>
  <blank length="00:00:06.360"/>
  <entry producer="producer73" in="00:12:55.200" out="00:13:03.720">
   <property name="kdenlive:id">3</property>
  </entry>
  <blank length="00:00:07.560"/>
  <entry producer="producer73" in="00:34:50.040" out="00:35:27.360">
   <property name="kdenlive:id">3</property>
  </entry>
  <blank length="00:00:19.600"/>
  <entry producer="producer73" in="00:35:47.000" out="00:35:57.360">
   <property name="kdenlive:id">3</property>
  </entry>
  <blank length="00:00:00.680"/>
  <entry producer="producer73" in="00:35:58.080" out="00:36:19.960">
   <property name="kdenlive:id">3</property>
  </entry>
  <blank length="00:00:03.080"/>
  <entry producer="producer73" in="00:36:23.080" out="00:37:08.800">
   <property name="kdenlive:id">3</property>
  </entry>
  <blank length="00:00:09.440"/>
  <entry producer="producer73" in="00:37:18.280" out="00:37:30.000">
   <property name="kdenlive:id">3</property>
  </entry>
  <blank length="00:00:04.840"/>
  <entry producer="producer73" in="01:13:17.600" out="01:15:02.840">
   <property name="kdenlive:id">3</property>
  </entry>
  <blank length="00:00:33.040"/>
  <entry producer="producer73" in="01:15:35.920" out="01:16:41.320">
   <property name="kdenlive:id">3</property>
  </entry>
  <filter id="filter14">
   <property name="window">75</property>
   <property name="max_gain">20dB</property>
   <property name="mlt_service">volume</property>
   <property name="internal_added">237</property>
   <property name="disable">1</property>
  </filter>
  <filter id="filter15">
   <property name="channel">-1</property>
   <property name="mlt_service">panner</property>
   <property name="internal_added">237</property>
   <property name="start">0.5</property>
   <property name="disable">1</property>
  </filter>
  <filter id="filter16" out="00:11:04.240">
   <property name="mlt_service">ladspa.1216</property>
   <property name="kdenlive_id">ladspa.1216</property>
   <property name="0">12.063</property>
   <property name="1">2.5518</property>
   <property name="2">0.043</property>
   <property name="3">0.048</property>
   <property name="4">0</property>
   <property name="5">-11.9</property>
   <property name="6">-37.45</property>
   <property name="wetness">0.789</property>
   <property name="kdenlive:collapsed">1</property>
   <property name="instances">2</property>
   <property name="disable">0</property>
  </filter>
  <filter id="filter17" out="01:11:17.360">
   <property name="channel">-1</property>
   <property name="split">00:00:00.000=0.4</property>
   <property name="mlt_service">panner</property>
   <property name="kdenlive_id">audiobalance</property>
   <property name="start">0.5</property>
   <property name="kdenlive:collapsed">1</property>
  </filter>
  <filter id="filter18" out="00:11:04.240">
   <property name="mlt_service">ladspa.1042</property>
   <property name="kdenlive_id">ladspa.1042</property>
   <property name="0">300</property>
   <property name="wetness">1</property>
   <property name="kdenlive:collapsed">1</property>
   <property name="instances">2</property>
   <property name="disable">0</property>
  </filter>
 </playlist>
 <playlist autoclose="1" id="playlist5">
  <property name="kdenlive:audio_track">1</property>
 </playlist>
 <tractor id="tractor2" in="00:00:00.000" out="00:11:04.200">
  <property name="kdenlive:audio_track">1</property>
  <property name="kdenlive:trackheight">79</property>
  <property name="kdenlive:collapsed">43</property>
  <property name="kdenlive:track_name">Luca</property>
  <property name="kdenlive:thumbs_format"/>
  <property name="kdenlive:audio_rec"/>
  <property name="kdenlive:timeline_active">1</property>
  <property name="kdenlive:locked_track">1</property>
  <track hide="video" producer="playlist4"/>
  <track hide="video" producer="playlist5"/>
  <filter id="filter19">
   <property name="iec_scale">0</property>
   <property name="mlt_service">audiolevel</property>
   <property name="disable">1</property>
  </filter>
 </tractor>
 <producer id="producer74" in="00:00:00.000" out="00:00:08.040">
  <property name="length">202</property>
  <property name="eof">pause</property>
  <property name="resource">35104__m1rk0__applause-8sec.wav</property>
  <property name="meta.media.nb_streams">1</property>
  <property name="meta.media.0.stream.type">audio</property>
  <property name="meta.media.0.codec.sample_fmt">s32</property>
  <property name="meta.media.0.codec.sample_rate">48000</property>
  <property name="meta.media.0.codec.channels">2</property>
  <property name="meta.media.0.codec.name">pcm_s24le</property>
  <property name="meta.media.0.codec.long_name">PCM signed 24-bit little-endian</property>
  <property name="meta.media.0.codec.bit_rate">2304000</property>
  <property name="seekable">1</property>
  <property name="audio_index">0</property>
  <property name="video_index">-1</property>
  <property name="mute_on_pause">0</property>
  <property name="mlt_service">avformat-novalidate</property>
  <property name="kdenlive:clipname"/>
  <property name="kdenlive:folderid">-1</property>
  <property name="kdenlive:id">10</property>
  <property name="kdenlive:file_size">2324888</property>
  <property name="kdenlive:file_hash">c3d24aab0a11beb9882dc865564c6165</property>
  <property name="global_feed">1</property>
  <property name="xml">was here</property>
  <property name="set.test_audio">0</property>
  <property name="set.test_image">1</property>
 </producer>
 <producer id="producer75" in="00:00:00.000" out="00:00:11.960">
  <property name="length">300</property>
  <property name="eof">pause</property>
  <property name="resource">260802__daenerys__applause.wav</property>
  <property name="meta.media.nb_streams">1</property>
  <property name="meta.media.0.stream.type">audio</property>
  <property name="meta.media.0.codec.sample_fmt">s16</property>
  <property name="meta.media.0.codec.sample_rate">44100</property>
  <property name="meta.media.0.codec.channels">2</property>
  <property name="meta.media.0.codec.name">pcm_s16le</property>
  <property name="meta.media.0.codec.long_name">PCM signed 16-bit little-endian</property>
  <property name="meta.media.0.codec.bit_rate">1411200</property>
  <property name="meta.attr.encoded_by.markup">Logic Pro</property>
  <property name="meta.attr.date.markup">2015-01-08</property>
  <property name="meta.attr.creation_time.markup">15:46:34</property>
  <property name="meta.attr.time_reference.markup">476809200</property>
  <property name="meta.attr.umid.markup">0x000000000000000000000000859ABF5FFF7F0000B0D27E6BFAFFFF7F0802FFFF00000000809ABF5FFF7F0000FFFFFF7FFF7F0000A092BF5FFF7F0000F895BF5F</property>
  <property name="seekable">1</property>
  <property name="audio_index">0</property>
  <property name="video_index">-1</property>
  <property name="mute_on_pause">0</property>
  <property name="mlt_service">avformat-novalidate</property>
  <property name="kdenlive:clipname"/>
  <property name="kdenlive:folderid">-1</property>
  <property name="kdenlive:id">9</property>
  <property name="kdenlive:file_size">2117530</property>
  <property name="kdenlive:file_hash">a630a536c5a68e77f6c49453066e4637</property>
  <property name="global_feed">1</property>
  <property name="xml">was here</property>
  <property name="set.test_audio">0</property>
  <property name="set.test_image">1</property>
 </producer>
 <playlist autoclose="1" id="playlist6">
  <property name="kdenlive:audio_track">1</property>
  <blank length="00:00:31.760"/>
  <entry producer="producer74" in="00:00:00.000" out="00:00:08.040">
   <property name="kdenlive:id">10</property>
   <filter id="filter20" in="00:00:02.720" out="00:00:08.040">
    <property name="window">75</property>
    <property name="max_gain">20dB</property>
    <property name="mlt_service">volume</property>
    <property name="kdenlive_id">fadeout</property>
    <property name="gain">1</property>
    <property name="end">0</property>
    <property name="kdenlive:collapsed">0</property>
   </filter>
  </entry>
  <blank length="00:02:13.360"/>
  <entry producer="producer75" in="00:00:00.000" out="00:00:08.480">
   <property name="kdenlive:id">9</property>
   <filter id="filter21" out="00:00:03.240">
    <property name="window">75</property>
    <property name="max_gain">20dB</property>
    <property name="mlt_service">volume</property>
    <property name="kdenlive_id">fadein</property>
    <property name="gain">0</property>
    <property name="end">1</property>
    <property name="kdenlive:collapsed">0</property>
   </filter>
   <filter id="filter22" in="00:00:07.680" out="00:00:08.480">
    <property name="window">75</property>
    <property name="max_gain">20dB</property>
    <property name="mlt_service">volume</property>
    <property name="kdenlive_id">fadeout</property>
    <property name="gain">1</property>
    <property name="end">0</property>
    <property name="kdenlive:collapsed">0</property>
   </filter>
  </entry>
  <filter id="filter23">
   <property name="window">75</property>
   <property name="max_gain">20dB</property>
   <property name="mlt_service">volume</property>
   <property name="internal_added">237</property>
   <property name="disable">1</property>
  </filter>
  <filter id="filter24">
   <property name="channel">-1</property>
   <property name="mlt_service">panner</property>
   <property name="internal_added">237</property>
   <property name="start">0.5</property>
   <property name="disable">1</property>
  </filter>
 </playlist>
 <playlist autoclose="1" id="playlist7">
  <property name="kdenlive:audio_track">1</property>
 </playlist>
 <tractor id="tractor3" in="00:00:00.000" out="00:03:01.680">
  <property name="kdenlive:audio_track">1</property>
  <property name="kdenlive:trackheight">69</property>
  <property name="kdenlive:collapsed">43</property>
  <property name="kdenlive:track_name">fx2</property>
  <property name="kdenlive:thumbs_format"/>
  <property name="kdenlive:audio_rec"/>
  <property name="kdenlive:timeline_active">1</property>
  <property name="kdenlive:locked_track">1</property>
  <track hide="video" producer="playlist6"/>
  <track hide="video" producer="playlist7"/>
  <filter id="filter25">
   <property name="iec_scale">0</property>
   <property name="mlt_service">audiolevel</property>
   <property name="disable">1</property>
  </filter>
 </tractor>
 <producer id="producer76" in="00:00:00.000" out="00:00:11.960">
  <property name="length">300</property>
  <property name="eof">pause</property>
  <property name="resource">260802__daenerys__applause.wav</property>
  <property name="meta.media.nb_streams">1</property>
  <property name="meta.media.0.stream.type">audio</property>
  <property name="meta.media.0.codec.sample_fmt">s16</property>
  <property name="meta.media.0.codec.sample_rate">44100</property>
  <property name="meta.media.0.codec.channels">2</property>
  <property name="meta.media.0.codec.name">pcm_s16le</property>
  <property name="meta.media.0.codec.long_name">PCM signed 16-bit little-endian</property>
  <property name="meta.media.0.codec.bit_rate">1411200</property>
  <property name="meta.attr.encoded_by.markup">Logic Pro</property>
  <property name="meta.attr.date.markup">2015-01-08</property>
  <property name="meta.attr.creation_time.markup">15:46:34</property>
  <property name="meta.attr.time_reference.markup">476809200</property>
  <property name="meta.attr.umid.markup">0x000000000000000000000000859ABF5FFF7F0000B0D27E6BFAFFFF7F0802FFFF00000000809ABF5FFF7F0000FFFFFF7FFF7F0000A092BF5FFF7F0000F895BF5F</property>
  <property name="seekable">1</property>
  <property name="audio_index">0</property>
  <property name="video_index">-1</property>
  <property name="mute_on_pause">0</property>
  <property name="mlt_service">avformat-novalidate</property>
  <property name="kdenlive:clipname"/>
  <property name="kdenlive:folderid">-1</property>
  <property name="kdenlive:id">9</property>
  <property name="kdenlive:file_size">2117530</property>
  <property name="kdenlive:file_hash">a630a536c5a68e77f6c49453066e4637</property>
  <property name="global_feed">1</property>
  <property name="xml">was here</property>
  <property name="set.test_audio">0</property>
  <property name="set.test_image">1</property>
 </producer>
 <producer id="producer77" in="00:00:00.000" out="00:00:08.040">
  <property name="length">202</property>
  <property name="eof">pause</property>
  <property name="resource">35104__m1rk0__applause-8sec.wav</property>
  <property name="meta.media.nb_streams">1</property>
  <property name="meta.media.0.stream.type">audio</property>
  <property name="meta.media.0.codec.sample_fmt">s32</property>
  <property name="meta.media.0.codec.sample_rate">48000</property>
  <property name="meta.media.0.codec.channels">2</property>
  <property name="meta.media.0.codec.name">pcm_s24le</property>
  <property name="meta.media.0.codec.long_name">PCM signed 24-bit little-endian</property>
  <property name="meta.media.0.codec.bit_rate">2304000</property>
  <property name="seekable">1</property>
  <property name="audio_index">0</property>
  <property name="video_index">-1</property>
  <property name="mute_on_pause">0</property>
  <property name="mlt_service">avformat-novalidate</property>
  <property name="kdenlive:clipname"/>
  <property name="kdenlive:folderid">-1</property>
  <property name="kdenlive:id">10</property>
  <property name="kdenlive:file_size">2324888</property>
  <property name="kdenlive:file_hash">c3d24aab0a11beb9882dc865564c6165</property>
  <property name="global_feed">1</property>
  <property name="xml">was here</property>
  <property name="set.test_audio">0</property>
  <property name="set.test_image">1</property>
 </producer>
 <playlist autoclose="1" id="playlist8">
  <property name="kdenlive:audio_track">1</property>
  <blank length="00:00:08.960"/>
  <entry producer="producer76" in="00:00:00.000" out="00:00:09.080">
   <property name="kdenlive:id">9</property>
   <filter id="filter26" in="00:00:06.920" out="00:00:09.080">
    <property name="window">75</property>
    <property name="max_gain">20dB</property>
    <property name="mlt_service">volume</property>
    <property name="kdenlive_id">fadeout</property>
    <property name="gain">1</property>
    <property name="end">0</property>
    <property name="kdenlive:collapsed">0</property>
   </filter>
   <filter id="filter27" out="00:00:02.680">
    <property name="window">75</property>
    <property name="max_gain">20dB</property>
    <property name="mlt_service">volume</property>
    <property name="kdenlive_id">fadein</property>
    <property name="gain">0</property>
    <property name="end">1</property>
    <property name="kdenlive:collapsed">0</property>
   </filter>
  </entry>
  <blank length="00:00:08.800"/>
  <entry producer="producer77" in="00:00:00.000" out="00:00:08.040">
   <property name="kdenlive:id">10</property>
   <filter id="filter28" in="00:00:03.280" out="00:00:08.040">
    <property name="window">75</property>
    <property name="max_gain">20dB</property>
    <property name="mlt_service">volume</property>
    <property name="kdenlive_id">fadeout</property>
    <property name="gain">1</property>
    <property name="end">0</property>
   </filter>
  </entry>
  <blank length="00:01:11.200"/>
  <entry producer="producer77" in="00:00:00.000" out="00:00:08.040">
   <property name="kdenlive:id">10</property>
   <filter id="filter29" in="00:00:02.840" out="00:00:08.040">
    <property name="window">75</property>
    <property name="max_gain">20dB</property>
    <property name="mlt_service">volume</property>
    <property name="kdenlive_id">fadeout</property>
    <property name="gain">1</property>
    <property name="end">0</property>
    <property name="kdenlive:collapsed">0</property>
   </filter>
  </entry>
  <blank length="00:00:01.800"/>
  <entry producer="producer77" in="00:00:00.000" out="00:00:08.040">
   <property name="kdenlive:id">10</property>
  </entry>
  <blank length="00:00:16.400"/>
  <entry producer="producer77" in="00:00:00.000" out="00:00:08.040">
   <property name="kdenlive:id">10</property>
  </entry>
  <blank length="00:00:23.160"/>
  <entry producer="producer77" in="00:00:00.000" out="00:00:08.040">
   <property name="kdenlive:id">10</property>
  </entry>
  <filter id="filter30">
   <property name="window">75</property>
   <property name="max_gain">20dB</property>
   <property name="mlt_service">volume</property>
   <property name="internal_added">237</property>
   <property name="disable">1</property>
  </filter>
  <filter id="filter31">
   <property name="channel">-1</property>
   <property name="mlt_service">panner</property>
   <property name="internal_added">237</property>
   <property name="start">0.5</property>
   <property name="disable">1</property>
  </filter>
 </playlist>
 <playlist autoclose="1" id="playlist9">
  <property name="kdenlive:audio_track">1</property>
 </playlist>
 <tractor id="tractor4" in="00:00:00.000" out="00:02:59.800">
  <property name="kdenlive:audio_track">1</property>
  <property name="kdenlive:trackheight">69</property>
  <property name="kdenlive:collapsed">43</property>
  <property name="kdenlive:track_name">fx</property>
  <property name="kdenlive:thumbs_format"/>
  <property name="kdenlive:audio_rec"/>
  <property name="kdenlive:timeline_active">1</property>
  <property name="kdenlive:locked_track">1</property>
  <track hide="video" producer="playlist8"/>
  <track hide="video" producer="playlist9"/>
  <filter id="filter32">
   <property name="iec_scale">0</property>
   <property name="mlt_service">audiolevel</property>
   <property name="disable">1</property>
  </filter>
 </tractor>
 <producer id="producer78" in="00:00:00.000" out="00:00:15.320">
  <property name="length">384</property>
  <property name="eof">pause</property>
  <property name="resource">105251__milton__b80-1.wav</property>
  <property name="meta.media.nb_streams">1</property>
  <property name="meta.media.0.stream.type">audio</property>
  <property name="meta.media.0.codec.sample_fmt">s16</property>
  <property name="meta.media.0.codec.sample_rate">44100</property>
  <property name="meta.media.0.codec.channels">2</property>
  <property name="meta.media.0.codec.name">pcm_s16le</property>
  <property name="meta.media.0.codec.long_name">PCM signed 16-bit little-endian</property>
  <property name="meta.media.0.codec.bit_rate">1411200</property>
  <property name="seekable">1</property>
  <property name="audio_index">0</property>
  <property name="video_index">-1</property>
  <property name="mute_on_pause">0</property>
  <property name="mlt_service">avformat-novalidate</property>
  <property name="kdenlive:clipname"/>
  <property name="kdenlive:folderid">-1</property>
  <property name="kdenlive:id">8</property>
  <property name="kdenlive:file_size">2710428</property>
  <property name="kdenlive:file_hash">37567c47a57bd0cee2139ad575bc4c60</property>
  <property name="global_feed">1</property>
  <property name="kdenlive:activeeffect">0</property>
  <property name="xml">was here</property>
  <property name="set.test_audio">0</property>
  <property name="set.test_image">1</property>
  <filter id="filter33">
   <property name="window">75</property>
   <property name="max_gain">20dB</property>
   <property name="level">00:00:00.000=-8</property>
   <property name="mlt_service">volume</property>
   <property name="kdenlive_id">volume</property>
  </filter>
 </producer>
 <producer id="producer79" in="00:00:00.000" out="00:00:14.760">
  <property name="length">370</property>
  <property name="eof">pause</property>
  <property name="resource">165523__zemidlo__snare-roll-hit-crash.flac</property>
  <property name="meta.media.nb_streams">1</property>
  <property name="meta.media.0.stream.type">audio</property>
  <property name="meta.media.0.codec.sample_fmt">s16</property>
  <property name="meta.media.0.codec.sample_rate">44100</property>
  <property name="meta.media.0.codec.channels">2</property>
  <property name="meta.media.0.codec.name">flac</property>
  <property name="meta.media.0.codec.long_name">FLAC (Free Lossless Audio Codec)</property>
  <property name="meta.media.0.codec.bit_rate">0</property>
  <property name="seekable">1</property>
  <property name="audio_index">0</property>
  <property name="video_index">-1</property>
  <property name="mute_on_pause">0</property>
  <property name="mlt_service">avformat-novalidate</property>
  <property name="kdenlive:clipname"/>
  <property name="kdenlive:folderid">-1</property>
  <property name="kdenlive:id">11</property>
  <property name="kdenlive:file_size">581450</property>
  <property name="kdenlive:file_hash">8a9bd3b52199b5779ae37373804997a3</property>
  <property name="global_feed">1</property>
  <property name="xml">was here</property>
  <property name="set.test_audio">0</property>
  <property name="set.test_image">1</property>
 </producer>
 <playlist autoclose="1" id="playlist10">
  <property name="kdenlive:audio_track">1</property>
  <blank length="00:00:01.680"/>
  <entry producer="producer78" in="00:00:00.000" out="00:00:15.320">
   <property name="kdenlive:id">8</property>
  </entry>
  <blank length="00:01:23.360"/>
  <entry producer="producer79" in="00:00:00.000" out="00:00:02.440">
   <property name="kdenlive:id">11</property>
  </entry>
  <entry producer="producer79" in="00:00:06.080" out="00:00:14.760">
   <property name="kdenlive:id">11</property>
  </entry>
  <blank length="00:00:01.120"/>
  <entry producer="producer79" in="00:00:00.000" out="00:00:01.520">
   <property name="kdenlive:id">11</property>
  </entry>
  <entry producer="producer79" in="00:00:06.400" out="00:00:14.760">
   <property name="kdenlive:id">11</property>
  </entry>
  <blank length="00:00:05.080"/>
  <entry producer="producer79" in="00:00:00.000" out="00:00:14.760">
   <property name="kdenlive:id">11</property>
  </entry>
  <blank length="00:00:31.880"/>
  <entry producer="producer78" in="00:00:00.000" out="00:00:14.480">
   <property name="kdenlive:id">8</property>
   <filter id="filter34" out="00:00:02.760">
    <property name="window">75</property>
    <property name="max_gain">20dB</property>
    <property name="mlt_service">volume</property>
    <property name="kdenlive_id">fadein</property>
    <property name="gain">0</property>
    <property name="end">1</property>
    <property name="kdenlive:collapsed">0</property>
   </filter>
  </entry>
  <blank length="00:20:24.600"/>
  <entry producer="producer78" in="00:00:00.000" out="00:00:15.320">
   <property name="kdenlive:id">8</property>
   <filter id="filter35" out="00:00:00.800">
    <property name="window">75</property>
    <property name="max_gain">20dB</property>
    <property name="mlt_service">volume</property>
    <property name="kdenlive_id">fadein</property>
    <property name="gain">0</property>
    <property name="end">1</property>
    <property name="kdenlive:collapsed">0</property>
   </filter>
  </entry>
  <filter id="filter36">
   <property name="window">75</property>
   <property name="max_gain">20dB</property>
   <property name="mlt_service">volume</property>
   <property name="internal_added">237</property>
   <property name="disable">1</property>
  </filter>
  <filter id="filter37">
   <property name="channel">-1</property>
   <property name="mlt_service">panner</property>
   <property name="internal_added">237</property>
   <property name="start">0.5</property>
   <property name="disable">1</property>
  </filter>
 </playlist>
 <playlist autoclose="1" id="playlist11">
  <property name="kdenlive:audio_track">1</property>
 </playlist>
 <tractor id="tractor5" in="00:00:00.000" out="00:23:48.880">
  <property name="kdenlive:audio_track">1</property>
  <property name="kdenlive:trackheight">69</property>
  <property name="kdenlive:collapsed">43</property>
  <property name="kdenlive:track_name">jingles</property>
  <property name="kdenlive:thumbs_format"/>
  <property name="kdenlive:audio_rec"/>
  <property name="kdenlive:timeline_active">1</property>
  <property name="kdenlive:locked_track">1</property>
  <track hide="video" producer="playlist10"/>
  <track hide="video" producer="playlist11"/>
  <filter id="filter38">
   <property name="iec_scale">0</property>
   <property name="mlt_service">audiolevel</property>
   <property name="disable">1</property>
  </filter>
 </tractor>
 <producer id="producer80" in="00:00:00.000" out="00:32:19.640">
  <property name="length">48492</property>
  <property name="eof">pause</property>
  <property name="resource">C-2-1.mp4</property>
  <property name="audio_index">1</property>
  <property name="video_index">0</property>
  <property name="mute_on_pause">0</property>
  <property name="mlt_service">avformat-novalidate</property>
  <property name="seekable">1</property>
  <property name="aspect_ratio">1</property>
  <property name="kdenlive:clipname"/>
  <property name="kdenlive:folderid">-1</property>
  <property name="kdenlive:id">5</property>
  <property name="kdenlive:file_size">13498438565</property>
  <property name="kdenlive:file_hash">8cda79d4c47072d0071e105c7ec2fad9</property>
  <property name="global_feed">1</property>
  <property name="xml">was here</property>
  <property name="meta.media.nb_streams">3</property>
  <property name="meta.media.0.stream.type">video</property>
  <property name="meta.media.0.stream.frame_rate">25</property>
  <property name="meta.media.0.stream.sample_aspect_ratio">0</property>
  <property name="meta.media.0.codec.width">3840</property>
  <property name="meta.media.0.codec.height">2160</property>
  <property name="meta.media.0.codec.rotate">0</property>
  <property name="meta.media.0.codec.frame_rate">25</property>
  <property name="meta.media.0.codec.pix_fmt">yuv420p</property>
  <property name="meta.media.0.codec.sample_aspect_ratio">1</property>
  <property name="meta.media.0.codec.colorspace">709</property>
  <property name="meta.media.0.codec.color_trc">11</property>
  <property name="meta.media.0.codec.name">h264</property>
  <property name="meta.media.0.codec.long_name">H.264 / AVC / MPEG-4 AVC / MPEG-4 part 10</property>
  <property name="meta.media.0.codec.bit_rate">53929733</property>
  <property name="meta.attr.0.stream.creation_time.markup">2021-10-08T09:00:57.000000Z</property>
  <property name="meta.attr.0.stream.handler_name.markup">Video Media Handler</property>
  <property name="meta.attr.0.stream.encoder.markup">AVC Coding</property>
  <property name="meta.media.1.stream.type">audio</property>
  <property name="meta.media.1.codec.sample_fmt">s16</property>
  <property name="meta.media.1.codec.sample_rate">48000</property>
  <property name="meta.media.1.codec.channels">2</property>
  <property name="meta.media.1.codec.name">pcm_s16be</property>
  <property name="meta.media.1.codec.long_name">PCM signed 16-bit big-endian</property>
  <property name="meta.media.1.codec.bit_rate">1536000</property>
  <property name="meta.attr.1.stream.creation_time.markup">2021-10-08T09:00:57.000000Z</property>
  <property name="meta.attr.1.stream.handler_name.markup">Sound Media Handler</property>
  <property name="meta.attr.major_brand.markup">XAVC</property>
  <property name="meta.attr.minor_version.markup">16785407</property>
  <property name="meta.attr.compatible_brands.markup">XAVCmp42iso2</property>
  <property name="meta.attr.creation_time.markup">2021-10-08T09:00:57.000000Z</property>
  <property name="meta.media.sample_aspect_num">1</property>
  <property name="meta.media.sample_aspect_den">1</property>
  <property name="meta.media.frame_rate_num">25</property>
  <property name="meta.media.frame_rate_den">1</property>
  <property name="meta.media.colorspace">709</property>
  <property name="meta.media.color_trc">11</property>
  <property name="meta.media.width">3840</property>
  <property name="meta.media.height">2160</property>
  <property name="meta.media.color_range">mpeg</property>
  <property name="meta.media.top_field_first">0</property>
  <property name="meta.media.progressive">1</property>
  <property name="set.test_audio">0</property>
  <property name="set.test_image">1</property>
 </producer>
 <playlist autoclose="1" id="playlist12">
  <property name="kdenlive:audio_track">1</property>
  <blank length="00:00:14.560"/>
  <entry producer="producer80" in="00:08:09.400" out="00:08:28.480">
   <property name="kdenlive:id">5</property>
  </entry>
  <entry producer="producer80" in="00:11:39.120" out="00:12:10.000">
   <property name="kdenlive:id">5</property>
  </entry>
  <blank length="00:00:00.520"/>
  <entry producer="producer80" in="00:21:02.160" out="00:21:23.400">
   <property name="kdenlive:id">5</property>
  </entry>
  <entry producer="producer80" in="00:23:00.200" out="00:23:15.040">
   <property name="kdenlive:id">5</property>
  </entry>
  <blank length="00:00:00.120"/>
  <entry producer="producer80" in="00:23:15.080" out="00:23:26.880">
   <property name="kdenlive:id">5</property>
  </entry>
  <blank length="00:00:03.680"/>
  <entry producer="producer80" in="00:29:01.120" out="00:29:17.360">
   <property name="kdenlive:id">5</property>
  </entry>
  <entry producer="producer80" in="00:26:17.120" out="00:26:29.920">
   <property name="kdenlive:id">5</property>
  </entry>
  <blank length="00:00:01.080"/>
  <entry producer="producer80" in="00:31:05.160" out="00:31:18.720">
   <property name="kdenlive:id">5</property>
  </entry>
  <blank length="00:00:00.520"/>
  <entry producer="producer80" in="00:31:18.760" out="00:31:33.280">
   <property name="kdenlive:id">5</property>
  </entry>
  <filter id="filter39">
   <property name="window">75</property>
   <property name="max_gain">20dB</property>
   <property name="mlt_service">volume</property>
   <property name="internal_added">237</property>
   <property name="disable">1</property>
  </filter>
  <filter id="filter40">
   <property name="channel">-1</property>
   <property name="mlt_service">panner</property>
   <property name="internal_added">237</property>
   <property name="start">0.5</property>
   <property name="disable">1</property>
  </filter>
 </playlist>
 <playlist autoclose="1" id="playlist13">
  <property name="kdenlive:audio_track">1</property>
 </playlist>
 <tractor id="tractor6" in="00:00:00.000" out="00:02:55.760">
  <property name="kdenlive:audio_track">1</property>
  <property name="kdenlive:trackheight">69</property>
  <property name="kdenlive:collapsed">43</property>
  <property name="kdenlive:track_name">Auctioneer</property>
  <property name="kdenlive:thumbs_format"/>
  <property name="kdenlive:audio_rec"/>
  <property name="kdenlive:timeline_active">1</property>
  <property name="kdenlive:locked_track">1</property>
  <track hide="video" producer="playlist12"/>
  <track hide="video" producer="playlist13"/>
  <filter id="filter41">
   <property name="iec_scale">0</property>
   <property name="mlt_service">audiolevel</property>
   <property name="disable">1</property>
  </filter>
 </tractor>
 <producer id="producer81" in="00:00:00.000" out="01:04:50.360">
  <property name="length">97260</property>
  <property name="eof">pause</property>
  <property name="resource">C-2-3.mp4</property>
  <property name="audio_index">1</property>
  <property name="video_index">0</property>
  <property name="mute_on_pause">0</property>
  <property name="mlt_service">avformat-novalidate</property>
  <property name="seekable">1</property>
  <property name="aspect_ratio">1</property>
  <property name="kdenlive:clipname"/>
  <property name="kdenlive:folderid">-1</property>
  <property name="kdenlive:id">7</property>
  <property name="kdenlive:file_size">27873885674</property>
  <property name="kdenlive:file_hash">3f4533893ea8e243c4849ae598a8d5af</property>
  <property name="global_feed">1</property>
  <property name="xml">was here</property>
  <property name="meta.media.nb_streams">3</property>
  <property name="meta.media.0.stream.type">video</property>
  <property name="meta.media.0.stream.frame_rate">25</property>
  <property name="meta.media.0.stream.sample_aspect_ratio">0</property>
  <property name="meta.media.0.codec.width">3840</property>
  <property name="meta.media.0.codec.height">2160</property>
  <property name="meta.media.0.codec.rotate">0</property>
  <property name="meta.media.0.codec.frame_rate">25</property>
  <property name="meta.media.0.codec.pix_fmt">yuv420p</property>
  <property name="meta.media.0.codec.sample_aspect_ratio">1</property>
  <property name="meta.media.0.codec.colorspace">709</property>
  <property name="meta.media.0.codec.color_trc">11</property>
  <property name="meta.media.0.codec.name">h264</property>
  <property name="meta.media.0.codec.long_name">H.264 / AVC / MPEG-4 AVC / MPEG-4 part 10</property>
  <property name="meta.media.0.codec.bit_rate">55575185</property>
  <property name="meta.attr.0.stream.creation_time.markup">2021-10-08T08:57:16.000000Z</property>
  <property name="meta.attr.0.stream.handler_name.markup">Video Media Handler</property>
  <property name="meta.attr.0.stream.encoder.markup">AVC Coding</property>
  <property name="meta.media.1.stream.type">audio</property>
  <property name="meta.media.1.codec.sample_fmt">s16</property>
  <property name="meta.media.1.codec.sample_rate">48000</property>
  <property name="meta.media.1.codec.channels">2</property>
  <property name="meta.media.1.codec.name">pcm_s16be</property>
  <property name="meta.media.1.codec.long_name">PCM signed 16-bit big-endian</property>
  <property name="meta.media.1.codec.bit_rate">1536000</property>
  <property name="meta.attr.1.stream.creation_time.markup">2021-10-08T08:57:16.000000Z</property>
  <property name="meta.attr.1.stream.handler_name.markup">Sound Media Handler</property>
  <property name="meta.attr.major_brand.markup">XAVC</property>
  <property name="meta.attr.minor_version.markup">16785407</property>
  <property name="meta.attr.compatible_brands.markup">XAVCmp42iso2</property>
  <property name="meta.attr.creation_time.markup">2021-10-08T08:57:16.000000Z</property>
  <property name="meta.media.sample_aspect_num">1</property>
  <property name="meta.media.sample_aspect_den">1</property>
  <property name="meta.media.frame_rate_num">25</property>
  <property name="meta.media.frame_rate_den">1</property>
  <property name="meta.media.colorspace">709</property>
  <property name="meta.media.color_trc">11</property>
  <property name="meta.media.width">3840</property>
  <property name="meta.media.height">2160</property>
  <property name="meta.media.color_range">mpeg</property>
  <property name="meta.media.top_field_first">0</property>
  <property name="meta.media.progressive">1</property>
  <property name="set.test_audio">0</property>
  <property name="set.test_image">1</property>
 </producer>
 <playlist autoclose="1" id="playlist14">
  <property name="kdenlive:audio_track">1</property>
  <blank length="00:14:00.440"/>
  <entry producer="producer81" in="00:28:50.560" out="00:29:39.440">
   <property name="kdenlive:id">7</property>
  </entry>
  <blank length="00:00:12.640"/>
  <entry producer="producer81" in="00:29:53.760" out="00:30:37.160">
   <property name="kdenlive:id">7</property>
   <filter id="filter42">
    <property name="window">75</property>
    <property name="max_gain">20dB</property>
    <property name="level">00:29:53.760|=0;00:30:23.200|=-20;00:30:27.880|=0</property>
    <property name="mlt_service">volume</property>
    <property name="kdenlive_id">volume</property>
    <property name="kdenlive:collapsed">0</property>
   </filter>
  </entry>
  <blank length="00:00:17.840"/>
  <entry producer="producer81" in="00:33:17.800" out="00:34:17.920">
   <property name="kdenlive:id">7</property>
  </entry>
  <blank length="00:00:41.760"/>
  <entry producer="producer81" in="00:41:18.440" out="00:42:20.760">
   <property name="kdenlive:id">7</property>
  </entry>
  <blank length="00:00:16.360"/>
  <entry producer="producer81" in="00:42:43.480" out="00:42:43.880">
   <property name="kdenlive:id">7</property>
  </entry>
  <blank length="00:00:04.120"/>
  <entry producer="producer81" in="00:42:48.040" out="00:42:48.560">
   <property name="kdenlive:id">7</property>
  </entry>
  <blank length="00:00:00.480"/>
  <entry producer="producer81" in="00:42:49.080" out="00:43:02.960">
   <property name="kdenlive:id">7</property>
  </entry>
  <blank length="00:00:17.280"/>
  <entry producer="producer81" in="00:58:50.800" out="00:59:42.560">
   <property name="kdenlive:id">7</property>
  </entry>
  <blank length="00:00:59.320"/>
  <entry producer="producer81" in="01:00:41.920" out="01:00:57.560">
   <property name="kdenlive:id">7</property>
  </entry>
  <blank length="00:00:39.040"/>
  <entry producer="producer81" in="01:01:36.640" out="01:01:40.680">
   <property name="kdenlive:id">7</property>
  </entry>
  <blank length="00:00:41.240"/>
  <entry producer="producer81" in="01:02:21.960" out="01:02:23.080">
   <property name="kdenlive:id">7</property>
  </entry>
  <filter id="filter43" out="00:23:48.320">
   <property name="channel">-1</property>
   <property name="split">00:00:00.000=0.45</property>
   <property name="mlt_service">panner</property>
   <property name="kdenlive_id">audiobalance</property>
   <property name="start">0.5</property>
   <property name="kdenlive:collapsed">0</property>
  </filter>
  <filter id="filter44">
   <property name="window">75</property>
   <property name="max_gain">20dB</property>
   <property name="mlt_service">volume</property>
   <property name="internal_added">237</property>
   <property name="disable">1</property>
  </filter>
  <filter id="filter45">
   <property name="channel">-1</property>
   <property name="mlt_service">panner</property>
   <property name="internal_added">237</property>
   <property name="start">0.5</property>
   <property name="disable">1</property>
  </filter>
 </playlist>
 <playlist autoclose="1" id="playlist15">
  <property name="kdenlive:audio_track">1</property>
 </playlist>
 <tractor id="tractor7" in="00:00:00.000" out="00:23:13.000">
  <property name="kdenlive:audio_track">1</property>
  <property name="kdenlive:trackheight">69</property>
  <property name="kdenlive:collapsed">43</property>
  <property name="kdenlive:track_name">Jeff</property>
  <property name="kdenlive:thumbs_format"/>
  <property name="kdenlive:audio_rec"/>
  <property name="kdenlive:timeline_active">1</property>
  <property name="kdenlive:locked_track">1</property>
  <track hide="video" producer="playlist14"/>
  <track hide="video" producer="playlist15"/>
  <filter id="filter46">
   <property name="iec_scale">0</property>
   <property name="mlt_service">audiolevel</property>
   <property name="disable">1</property>
  </filter>
 </tractor>
 <producer id="producer82" in="00:00:00.000" out="01:04:45.560">
  <property name="length">97140</property>
  <property name="eof">pause</property>
  <property name="resource">C-2-2.mp4</property>
  <property name="audio_index">1</property>
  <property name="video_index">0</property>
  <property name="mute_on_pause">0</property>
  <property name="mlt_service">avformat-novalidate</property>
  <property name="seekable">1</property>
  <property name="aspect_ratio">1</property>
  <property name="kdenlive:clipname"/>
  <property name="kdenlive:folderid">-1</property>
  <property name="kdenlive:id">6</property>
  <property name="kdenlive:file_size">27961003343</property>
  <property name="kdenlive:file_hash">653718a5ec56bf95b96ddb29369ba5f8</property>
  <property name="global_feed">1</property>
  <property name="xml">was here</property>
  <property name="meta.media.nb_streams">3</property>
  <property name="meta.media.0.stream.type">video</property>
  <property name="meta.media.0.stream.frame_rate">25</property>
  <property name="meta.media.0.stream.sample_aspect_ratio">0</property>
  <property name="meta.media.0.codec.width">3840</property>
  <property name="meta.media.0.codec.height">2160</property>
  <property name="meta.media.0.codec.rotate">0</property>
  <property name="meta.media.0.codec.frame_rate">25</property>
  <property name="meta.media.0.codec.pix_fmt">yuv420p</property>
  <property name="meta.media.0.codec.sample_aspect_ratio">1</property>
  <property name="meta.media.0.codec.colorspace">709</property>
  <property name="meta.media.0.codec.color_trc">11</property>
  <property name="meta.media.0.codec.name">h264</property>
  <property name="meta.media.0.codec.long_name">H.264 / AVC / MPEG-4 AVC / MPEG-4 part 10</property>
  <property name="meta.media.0.codec.bit_rate">55825357</property>
  <property name="meta.attr.0.stream.creation_time.markup">2021-10-08T10:01:39.000000Z</property>
  <property name="meta.attr.0.stream.handler_name.markup">Video Media Handler</property>
  <property name="meta.attr.0.stream.encoder.markup">AVC Coding</property>
  <property name="meta.media.1.stream.type">audio</property>
  <property name="meta.media.1.codec.sample_fmt">s16</property>
  <property name="meta.media.1.codec.sample_rate">48000</property>
  <property name="meta.media.1.codec.channels">2</property>
  <property name="meta.media.1.codec.name">pcm_s16be</property>
  <property name="meta.media.1.codec.long_name">PCM signed 16-bit big-endian</property>
  <property name="meta.media.1.codec.bit_rate">1536000</property>
  <property name="meta.attr.1.stream.creation_time.markup">2021-10-08T10:01:39.000000Z</property>
  <property name="meta.attr.1.stream.handler_name.markup">Sound Media Handler</property>
  <property name="meta.attr.major_brand.markup">XAVC</property>
  <property name="meta.attr.minor_version.markup">16785407</property>
  <property name="meta.attr.compatible_brands.markup">XAVCmp42iso2</property>
  <property name="meta.attr.creation_time.markup">2021-10-08T10:01:39.000000Z</property>
  <property name="meta.media.sample_aspect_num">1</property>
  <property name="meta.media.sample_aspect_den">1</property>
  <property name="meta.media.frame_rate_num">25</property>
  <property name="meta.media.frame_rate_den">1</property>
  <property name="meta.media.colorspace">709</property>
  <property name="meta.media.color_trc">11</property>
  <property name="meta.media.width">3840</property>
  <property name="meta.media.height">2160</property>
  <property name="meta.media.color_range">mpeg</property>
  <property name="meta.media.top_field_first">0</property>
  <property name="meta.media.progressive">1</property>
  <property name="set.test_audio">0</property>
  <property name="set.test_image">1</property>
 </producer>
 <playlist autoclose="1" id="playlist16">
  <property name="kdenlive:audio_track">1</property>
  <blank length="00:11:22.720"/>
  <entry producer="producer82" in="00:21:35.320" out="00:24:13.000">
   <property name="kdenlive:id">6</property>
  </entry>
  <blank length="00:00:48.920"/>
  <entry producer="producer82" in="00:29:45.080" out="00:29:57.680">
   <property name="kdenlive:id">6</property>
  </entry>
  <blank length="00:00:29.360"/>
  <entry producer="producer82" in="00:30:27.120" out="00:30:34.400">
   <property name="kdenlive:id">6</property>
  </entry>
  <blank length="00:00:06.760"/>
  <entry producer="producer82" in="00:31:25.160" out="00:31:42.960">
   <property name="kdenlive:id">6</property>
  </entry>
  <blank length="00:01:00.160"/>
  <entry producer="producer82" in="00:40:40.680" out="00:41:22.400">
   <property name="kdenlive:id">6</property>
  </entry>
  <blank length="00:01:02.880"/>
  <entry producer="producer82" in="00:42:31.640" out="00:42:53.800">
   <property name="kdenlive:id">6</property>
  </entry>
  <blank length="00:00:13.160"/>
  <entry producer="producer82" in="00:50:55.080" out="00:51:12.320">
   <property name="kdenlive:id">6</property>
  </entry>
  <blank length="00:00:51.800"/>
  <entry producer="producer82" in="00:59:46.600" out="01:00:46.920">
   <property name="kdenlive:id">6</property>
  </entry>
  <blank length="00:00:14.640"/>
  <entry producer="producer82" in="01:01:01.600" out="01:02:27.080">
   <property name="kdenlive:id">6</property>
   <filter id="filter47">
    <property name="window">75</property>
    <property name="max_gain">20dB</property>
    <property name="level">01:01:01.600|=0;01:01:40.640|=-20;01:01:44.680|=0</property>
    <property name="mlt_service">volume</property>
    <property name="kdenlive_id">volume</property>
    <property name="kdenlive:collapsed">0</property>
   </filter>
  </entry>
  <entry producer="producer82" in="01:04:07.040" out="01:04:28.280">
   <property name="kdenlive:id">6</property>
  </entry>
  <filter id="filter48" out="00:23:48.320">
   <property name="channel">-1</property>
   <property name="split">00:00:00.000=0.55</property>
   <property name="mlt_service">panner</property>
   <property name="kdenlive_id">audiobalance</property>
   <property name="start">0.5</property>
   <property name="kdenlive:collapsed">0</property>
  </filter>
  <filter id="filter49">
   <property name="window">75</property>
   <property name="max_gain">20dB</property>
   <property name="mlt_service">volume</property>
   <property name="internal_added">237</property>
   <property name="disable">1</property>
  </filter>
  <filter id="filter50">
   <property name="channel">-1</property>
   <property name="mlt_service">panner</property>
   <property name="internal_added">237</property>
   <property name="start">0.5</property>
   <property name="disable">1</property>
  </filter>
 </playlist>
 <playlist autoclose="1" id="playlist17">
  <property name="kdenlive:audio_track">1</property>
 </playlist>
 <tractor id="tractor8" in="00:00:00.000" out="00:23:34.280">
  <property name="kdenlive:audio_track">1</property>
  <property name="kdenlive:trackheight">69</property>
  <property name="kdenlive:collapsed">43</property>
  <property name="kdenlive:track_name">Luca</property>
  <property name="kdenlive:thumbs_format"/>
  <property name="kdenlive:audio_rec"/>
  <property name="kdenlive:timeline_active">1</property>
  <property name="kdenlive:locked_track">1</property>
  <track hide="video" producer="playlist16"/>
  <track hide="video" producer="playlist17"/>
  <filter id="filter51">
   <property name="iec_scale">0</property>
   <property name="mlt_service">audiolevel</property>
   <property name="disable">1</property>
  </filter>
 </tractor>
 <producer id="producer83" in="00:00:00.000" out="01:04:50.360">
  <property name="length">97260</property>
  <property name="eof">pause</property>
  <property name="resource">C-2-3.mp4</property>
  <property name="audio_index">1</property>
  <property name="video_index">0</property>
  <property name="mute_on_pause">0</property>
  <property name="mlt_service">avformat-novalidate</property>
  <property name="seekable">1</property>
  <property name="aspect_ratio">1</property>
  <property name="kdenlive:clipname"/>
  <property name="kdenlive:folderid">-1</property>
  <property name="kdenlive:id">7</property>
  <property name="kdenlive:file_size">27873885674</property>
  <property name="kdenlive:file_hash">3f4533893ea8e243c4849ae598a8d5af</property>
  <property name="global_feed">1</property>
  <property name="xml">was here</property>
  <property name="meta.media.nb_streams">3</property>
  <property name="meta.media.0.stream.type">video</property>
  <property name="meta.media.0.stream.frame_rate">25</property>
  <property name="meta.media.0.stream.sample_aspect_ratio">0</property>
  <property name="meta.media.0.codec.width">3840</property>
  <property name="meta.media.0.codec.height">2160</property>
  <property name="meta.media.0.codec.rotate">0</property>
  <property name="meta.media.0.codec.frame_rate">25</property>
  <property name="meta.media.0.codec.pix_fmt">yuv420p</property>
  <property name="meta.media.0.codec.sample_aspect_ratio">1</property>
  <property name="meta.media.0.codec.colorspace">709</property>
  <property name="meta.media.0.codec.color_trc">11</property>
  <property name="meta.media.0.codec.name">h264</property>
  <property name="meta.media.0.codec.long_name">H.264 / AVC / MPEG-4 AVC / MPEG-4 part 10</property>
  <property name="meta.media.0.codec.bit_rate">55575185</property>
  <property name="meta.attr.0.stream.creation_time.markup">2021-10-08T08:57:16.000000Z</property>
  <property name="meta.attr.0.stream.handler_name.markup">Video Media Handler</property>
  <property name="meta.attr.0.stream.encoder.markup">AVC Coding</property>
  <property name="meta.media.1.stream.type">audio</property>
  <property name="meta.media.1.codec.sample_fmt">s16</property>
  <property name="meta.media.1.codec.sample_rate">48000</property>
  <property name="meta.media.1.codec.channels">2</property>
  <property name="meta.media.1.codec.name">pcm_s16be</property>
  <property name="meta.media.1.codec.long_name">PCM signed 16-bit big-endian</property>
  <property name="meta.media.1.codec.bit_rate">1536000</property>
  <property name="meta.attr.1.stream.creation_time.markup">2021-10-08T08:57:16.000000Z</property>
  <property name="meta.attr.1.stream.handler_name.markup">Sound Media Handler</property>
  <property name="meta.attr.major_brand.markup">XAVC</property>
  <property name="meta.attr.minor_version.markup">16785407</property>
  <property name="meta.attr.compatible_brands.markup">XAVCmp42iso2</property>
  <property name="meta.attr.creation_time.markup">2021-10-08T08:57:16.000000Z</property>
  <property name="meta.media.sample_aspect_num">1</property>
  <property name="meta.media.sample_aspect_den">1</property>
  <property name="meta.media.frame_rate_num">25</property>
  <property name="meta.media.frame_rate_den">1</property>
  <property name="meta.media.colorspace">709</property>
  <property name="meta.media.color_trc">11</property>
  <property name="meta.media.width">3840</property>
  <property name="meta.media.height">2160</property>
  <property name="meta.media.color_range">mpeg</property>
  <property name="meta.media.top_field_first">0</property>
  <property name="meta.media.progressive">1</property>
  <property name="set.test_audio">1</property>
  <property name="set.test_image">0</property>
 </producer>
 <producer id="producer84" in="00:00:00.000" out="01:04:45.560">
  <property name="length">97140</property>
  <property name="eof">pause</property>
  <property name="resource">C-2-2.mp4</property>
  <property name="audio_index">1</property>
  <property name="video_index">0</property>
  <property name="mute_on_pause">0</property>
  <property name="mlt_service">avformat-novalidate</property>
  <property name="seekable">1</property>
  <property name="aspect_ratio">1</property>
  <property name="kdenlive:clipname"/>
  <property name="kdenlive:folderid">-1</property>
  <property name="kdenlive:id">6</property>
  <property name="kdenlive:file_size">27961003343</property>
  <property name="kdenlive:file_hash">653718a5ec56bf95b96ddb29369ba5f8</property>
  <property name="global_feed">1</property>
  <property name="xml">was here</property>
  <property name="meta.media.nb_streams">3</property>
  <property name="meta.media.0.stream.type">video</property>
  <property name="meta.media.0.stream.frame_rate">25</property>
  <property name="meta.media.0.stream.sample_aspect_ratio">0</property>
  <property name="meta.media.0.codec.width">3840</property>
  <property name="meta.media.0.codec.height">2160</property>
  <property name="meta.media.0.codec.rotate">0</property>
  <property name="meta.media.0.codec.frame_rate">25</property>
  <property name="meta.media.0.codec.pix_fmt">yuv420p</property>
  <property name="meta.media.0.codec.sample_aspect_ratio">1</property>
  <property name="meta.media.0.codec.colorspace">709</property>
  <property name="meta.media.0.codec.color_trc">11</property>
  <property name="meta.media.0.codec.name">h264</property>
  <property name="meta.media.0.codec.long_name">H.264 / AVC / MPEG-4 AVC / MPEG-4 part 10</property>
  <property name="meta.media.0.codec.bit_rate">55825357</property>
  <property name="meta.attr.0.stream.creation_time.markup">2021-10-08T10:01:39.000000Z</property>
  <property name="meta.attr.0.stream.handler_name.markup">Video Media Handler</property>
  <property name="meta.attr.0.stream.encoder.markup">AVC Coding</property>
  <property name="meta.media.1.stream.type">audio</property>
  <property name="meta.media.1.codec.sample_fmt">s16</property>
  <property name="meta.media.1.codec.sample_rate">48000</property>
  <property name="meta.media.1.codec.channels">2</property>
  <property name="meta.media.1.codec.name">pcm_s16be</property>
  <property name="meta.media.1.codec.long_name">PCM signed 16-bit big-endian</property>
  <property name="meta.media.1.codec.bit_rate">1536000</property>
  <property name="meta.attr.1.stream.creation_time.markup">2021-10-08T10:01:39.000000Z</property>
  <property name="meta.attr.1.stream.handler_name.markup">Sound Media Handler</property>
  <property name="meta.attr.major_brand.markup">XAVC</property>
  <property name="meta.attr.minor_version.markup">16785407</property>
  <property name="meta.attr.compatible_brands.markup">XAVCmp42iso2</property>
  <property name="meta.attr.creation_time.markup">2021-10-08T10:01:39.000000Z</property>
  <property name="meta.media.sample_aspect_num">1</property>
  <property name="meta.media.sample_aspect_den">1</property>
  <property name="meta.media.frame_rate_num">25</property>
  <property name="meta.media.frame_rate_den">1</property>
  <property name="meta.media.colorspace">709</property>
  <property name="meta.media.color_trc">11</property>
  <property name="meta.media.width">3840</property>
  <property name="meta.media.height">2160</property>
  <property name="meta.media.color_range">mpeg</property>
  <property name="meta.media.top_field_first">0</property>
  <property name="meta.media.progressive">1</property>
  <property name="set.test_audio">1</property>
  <property name="set.test_image">0</property>
 </producer>
 <playlist autoclose="1" id="playlist18">
  <entry producer="producer27" in="00:00:00.000" out="00:03:06.320">
   <property name="kdenlive:id">32</property>
   <filter id="filter52">
    <property name="rotate_center">1</property>
    <property name="mlt_service">qtblend</property>
    <property name="kdenlive_id">qtblend</property>
    <property name="rect">00:00:00.000=-768 -432 3456 1944 1;00:00:14.360=-768 -432 3456 1944 1;00:00:19.400=-2496 -1933 6912 3888 1</property>
    <property name="rotation">00:00:00.000=0;00:00:14.360=0;00:00:19.400=0</property>
    <property name="compositing">0</property>
    <property name="distort">0</property>
    <property name="kdenlive:collapsed">1</property>
   </filter>
   <filter id="filter53">
    <property name="start">1</property>
    <property name="level">00:00:00.000=0.71;00:00:11.200=0.71;00:00:14.360=1</property>
    <property name="mlt_service">brightness</property>
    <property name="kdenlive_id">brightness</property>
    <property name="kdenlive:collapsed">0</property>
   </filter>
  </entry>
  <entry producer="producer12" in="00:00:00.000" out="00:08:16.320">
   <property name="kdenlive:id">13</property>
  </entry>
  <entry producer="producer83" in="00:21:31.320" out="00:24:09.000">
   <property name="kdenlive:id">7</property>
  </entry>
  <entry producer="producer84" in="00:28:54.560" out="00:29:43.440">
   <property name="kdenlive:id">6</property>
   <property name="kdenlive:activeeffect">-1</property>
  </entry>
  <entry producer="producer83" in="00:29:41.080" out="00:29:53.680">
   <property name="kdenlive:id">7</property>
   <property name="kdenlive:activeeffect">-1</property>
  </entry>
  <entry producer="producer84" in="00:29:57.760" out="00:30:41.160">
   <property name="kdenlive:id">6</property>
   <property name="kdenlive:activeeffect">-1</property>
  </entry>
  <entry producer="producer83" in="00:31:21.160" out="00:31:38.960">
   <property name="kdenlive:id">7</property>
  </entry>
  <entry producer="producer84" in="00:33:21.800" out="00:34:21.920">
   <property name="kdenlive:id">6</property>
  </entry>
  <entry producer="producer83" in="00:40:36.680" out="00:41:18.400">
   <property name="kdenlive:id">7</property>
   <property name="kdenlive:activeeffect">-1</property>
  </entry>
  <blank length="00:01:55.520"/>
  <entry producer="producer84" in="00:58:54.800" out="00:59:46.560">
   <property name="kdenlive:id">6</property>
  </entry>
  <entry producer="producer83" in="00:59:42.600" out="01:00:42.920">
   <property name="kdenlive:id">7</property>
  </entry>
  <entry producer="producer84" in="01:00:46.960" out="01:01:01.560">
   <property name="kdenlive:id">6</property>
  </entry>
  <entry producer="producer83" in="01:00:57.600" out="01:02:11.840">
   <property name="kdenlive:id">7</property>
  </entry>
  <entry producer="producer84" in="01:02:15.880" out="01:02:27.080">
   <property name="kdenlive:id">6</property>
  </entry>
 </playlist>
 <playlist autoclose="1" id="playlist19"/>
 <tractor id="tractor9" in="00:00:00.000" out="00:23:13.000">
  <property name="kdenlive:trackheight">69</property>
  <property name="kdenlive:collapsed">43</property>
  <property name="kdenlive:track_name">Bground1</property>
  <property name="kdenlive:thumbs_format"/>
  <property name="kdenlive:audio_rec"/>
  <property name="kdenlive:timeline_active">1</property>
  <property name="kdenlive:locked_track">1</property>
  <track hide="audio" producer="playlist18"/>
  <track hide="audio" producer="playlist19"/>
 </tractor>
 <producer id="producer85" in="00:00:00.000" out="00:01:00.960">
  <property name="length">1525</property>
  <property name="eof">pause</property>
  <property name="resource">media/videos/ibe/1080p60/IBE.mp4</property>
  <property name="audio_index">-1</property>
  <property name="video_index">0</property>
  <property name="mute_on_pause">0</property>
  <property name="mlt_service">avformat-novalidate</property>
  <property name="seekable">1</property>
  <property name="aspect_ratio">1</property>
  <property name="kdenlive:clipname"/>
  <property name="kdenlive:folderid">-1</property>
  <property name="kdenlive:id">39</property>
  <property name="kdenlive:file_size">2191213</property>
  <property name="kdenlive:file_hash">8eef2053b18b0729af535a974469a92e</property>
  <property name="global_feed">1</property>
  <property name="xml">was here</property>
  <property name="meta.media.nb_streams">1</property>
  <property name="meta.media.0.stream.type">video</property>
  <property name="meta.media.0.stream.frame_rate">60</property>
  <property name="meta.media.0.stream.sample_aspect_ratio">0</property>
  <property name="meta.media.0.codec.width">1920</property>
  <property name="meta.media.0.codec.height">1080</property>
  <property name="meta.media.0.codec.rotate">0</property>
  <property name="meta.media.0.codec.frame_rate">60</property>
  <property name="meta.media.0.codec.pix_fmt">yuv420p</property>
  <property name="meta.media.0.codec.sample_aspect_ratio">0</property>
  <property name="meta.media.0.codec.colorspace">709</property>
  <property name="meta.media.0.codec.name">h264</property>
  <property name="meta.media.0.codec.long_name">H.264 / AVC / MPEG-4 AVC / MPEG-4 part 10</property>
  <property name="meta.media.0.codec.bit_rate">281697</property>
  <property name="meta.attr.0.stream.handler_name.markup">VideoHandler</property>
  <property name="meta.attr.major_brand.markup">isom</property>
  <property name="meta.attr.minor_version.markup">512</property>
  <property name="meta.attr.compatible_brands.markup">isomiso2avc1mp41</property>
  <property name="meta.attr.encoder.markup">Lavf58.76.100</property>
  <property name="meta.attr.comment.markup">Rendered with Manim Community v0.11.0</property>
  <property name="meta.media.sample_aspect_num">1</property>
  <property name="meta.media.sample_aspect_den">1</property>
  <property name="meta.media.frame_rate_num">60</property>
  <property name="meta.media.frame_rate_den">1</property>
  <property name="meta.media.colorspace">709</property>
  <property name="meta.media.color_trc">2</property>
  <property name="meta.media.width">1920</property>
  <property name="meta.media.height">1080</property>
  <property name="meta.media.color_range">mpeg</property>
  <property name="meta.media.top_field_first">0</property>
  <property name="meta.media.progressive">1</property>
  <property name="set.test_audio">1</property>
  <property name="set.test_image">0</property>
 </producer>
 <playlist autoclose="1" id="playlist20">
  <blank length="00:04:39.920"/>
  <entry producer="producer20" in="00:00:00.000" out="00:00:45.200">
   <property name="kdenlive:id">21</property>
   <filter id="filter55">
    <property name="rotate_center">1</property>
    <property name="mlt_service">qtblend</property>
    <property name="kdenlive_id">qtblend</property>
    <property name="rect">00:00:00.000=385 719 316 243 1;00:00:41.200~=385 719 316 243 1;00:00:42.600=780 625 19 10 1</property>
    <property name="rotation">00:00:00.000=0;00:00:41.200~=0;00:00:42.600=0</property>
    <property name="compositing">0</property>
    <property name="distort">0</property>
    <property name="kdenlive:collapsed">0</property>
   </filter>
  </entry>
  <blank length="00:01:08.160"/>
  <entry producer="producer85" in="00:00:00.000" out="00:00:02.960">
   <property name="kdenlive:id">39</property>
  </entry>
  <blank length="00:00:03.320"/>
  <entry producer="producer85" in="00:00:03.040" out="00:00:03.920">
   <property name="kdenlive:id">39</property>
  </entry>
  <blank length="00:00:07.600"/>
  <entry producer="producer85" in="00:00:04.000" out="00:00:08.760">
   <property name="kdenlive:id">39</property>
  </entry>
  <blank length="00:00:02.400"/>
  <entry producer="producer85" in="00:00:08.920" out="00:00:12.960">
   <property name="kdenlive:id">39</property>
  </entry>
  <blank length="00:00:09.440"/>
  <entry producer="producer85" in="00:00:13.040" out="00:00:16.920">
   <property name="kdenlive:id">39</property>
  </entry>
  <blank length="00:00:06.160"/>
  <entry producer="producer85" in="00:00:17.000" out="00:00:18.880">
   <property name="kdenlive:id">39</property>
  </entry>
  <blank length="00:00:34.200"/>
  <entry producer="producer85" in="00:00:18.960" out="00:00:22.800">
   <property name="kdenlive:id">39</property>
  </entry>
  <blank length="00:00:08.320"/>
  <entry producer="producer85" in="00:00:22.960" out="00:00:24.600">
   <property name="kdenlive:id">39</property>
  </entry>
  <blank length="00:00:04.320"/>
  <entry producer="producer85" in="00:00:24.920" out="00:00:26.560">
   <property name="kdenlive:id">39</property>
  </entry>
  <blank length="00:00:09.720"/>
  <entry producer="producer85" in="00:00:26.840" out="00:00:28.880">
   <property name="kdenlive:id">39</property>
  </entry>
  <blank length="00:00:06.040"/>
  <entry producer="producer85" in="00:00:28.960" out="00:00:30.000">
   <property name="kdenlive:id">39</property>
  </entry>
  <blank length="00:00:05.160"/>
  <entry producer="producer85" in="00:00:30.000" out="00:00:31.960">
   <property name="kdenlive:id">39</property>
  </entry>
  <blank length="00:00:08.440"/>
  <entry producer="producer85" in="00:00:32.040" out="00:00:33.520">
   <property name="kdenlive:id">39</property>
  </entry>
  <blank length="00:00:06.480"/>
  <entry producer="producer85" in="00:00:33.960" out="00:00:37.440">
   <property name="kdenlive:id">39</property>
  </entry>
  <blank length="00:00:06.280"/>
  <entry producer="producer85" in="00:00:37.920" out="00:00:41.880">
   <property name="kdenlive:id">39</property>
  </entry>
  <blank length="00:00:08.960"/>
  <entry producer="producer85" in="00:00:41.960" out="00:00:48.680">
   <property name="kdenlive:id">39</property>
  </entry>
  <blank length="00:01:05.000"/>
  <entry producer="producer85" in="00:00:48.880" out="00:00:51.000">
   <property name="kdenlive:id">39</property>
  </entry>
  <blank length="00:00:01.600"/>
  <entry producer="producer85" in="00:00:50.640" out="00:00:52.800">
   <property name="kdenlive:id">39</property>
  </entry>
  <blank length="00:00:05.360"/>
  <entry producer="producer85" in="00:00:52.840" out="00:00:54.920">
   <property name="kdenlive:id">39</property>
  </entry>
  <blank length="00:00:03.400"/>
  <entry producer="producer85" in="00:00:54.920" out="00:00:58.920">
   <property name="kdenlive:id">39</property>
  </entry>
  <blank length="00:00:15.880"/>
  <entry producer="producer85" in="00:00:58.800" out="00:01:00.960">
   <property name="kdenlive:id">39</property>
  </entry>
 </playlist>
 <playlist autoclose="1" id="playlist21"/>
 <tractor id="tractor10" in="00:00:00.000" out="00:11:10.920">
  <property name="kdenlive:trackheight">69</property>
  <property name="kdenlive:collapsed">43</property>
  <property name="kdenlive:track_name">anim7</property>
  <property name="kdenlive:thumbs_format"/>
  <property name="kdenlive:audio_rec"/>
  <property name="kdenlive:timeline_active">1</property>
  <property name="kdenlive:locked_track">1</property>
  <track hide="audio" producer="playlist20"/>
  <track hide="audio" producer="playlist21"/>
 </tractor>
 <playlist autoclose="1" id="playlist22">
  <blank length="00:04:39.640"/>
  <entry producer="producer20" in="00:00:00.000" out="00:00:45.480">
   <property name="kdenlive:id">21</property>
   <filter id="filter80">
    <property name="rotate_center">1</property>
    <property name="mlt_service">qtblend</property>
    <property name="kdenlive_id">qtblend</property>
    <property name="rect">00:00:00.000=1200 726 316 243 1;00:00:41.480~=1200 726 316 243 1;00:00:42.880=1107 611 19 10 1</property>
    <property name="rotation">00:00:00.000=0;00:00:41.480~=0;00:00:42.880=0</property>
    <property name="compositing">0</property>
    <property name="distort">0</property>
    <property name="kdenlive:collapsed">0</property>
   </filter>
  </entry>
  <blank length="00:01:11.160"/>
  <entry producer="producer41" in="00:00:00.000" out="00:00:03.280">
   <property name="kdenlive:id">43</property>
  </entry>
  <blank length="00:00:00.920"/>
  <entry producer="producer42" in="00:00:00.000" out="00:00:07.560">
   <property name="kdenlive:id">44</property>
  </entry>
  <blank length="00:00:04.800"/>
  <entry producer="producer43" in="00:00:00.000" out="00:00:02.360">
   <property name="kdenlive:id">45</property>
  </entry>
  <blank length="00:00:04.080"/>
  <entry producer="producer44" in="00:00:00.000" out="00:00:09.400">
   <property name="kdenlive:id">46</property>
  </entry>
  <blank length="00:00:03.920"/>
  <entry producer="producer45" in="00:00:00.000" out="00:00:06.120">
   <property name="kdenlive:id">47</property>
  </entry>
  <blank length="00:00:01.920"/>
  <entry producer="producer46" in="00:00:00.000" out="00:00:34.160">
   <property name="kdenlive:id">48</property>
  </entry>
  <blank length="00:00:03.880"/>
  <entry producer="producer47" in="00:00:00.000" out="00:00:08.280">
   <property name="kdenlive:id">49</property>
  </entry>
  <blank length="00:00:01.680"/>
  <entry producer="producer48" in="00:00:00.000" out="00:00:04.280">
   <property name="kdenlive:id">50</property>
  </entry>
  <blank length="00:00:01.680"/>
  <entry producer="producer49" in="00:00:00.000" out="00:00:09.680">
   <property name="kdenlive:id">51</property>
  </entry>
  <blank length="00:00:02.080"/>
  <entry producer="producer50" in="00:00:00.000" out="00:00:06.000">
   <property name="kdenlive:id">52</property>
  </entry>
  <blank length="00:00:01.080"/>
  <entry producer="producer51" in="00:00:00.000" out="00:00:05.120">
   <property name="kdenlive:id">53</property>
  </entry>
  <blank length="00:00:02.000"/>
  <entry producer="producer52" in="00:00:00.000" out="00:00:08.400">
   <property name="kdenlive:id">54</property>
  </entry>
  <blank length="00:00:01.520"/>
  <entry producer="producer53" in="00:00:00.000" out="00:00:06.440">
   <property name="kdenlive:id">55</property>
  </entry>
  <blank length="00:00:03.520"/>
  <entry producer="producer54" in="00:00:00.000" out="00:00:06.240">
   <property name="kdenlive:id">56</property>
  </entry>
  <blank length="00:00:04.000"/>
  <entry producer="producer55" in="00:00:00.000" out="00:00:08.920">
   <property name="kdenlive:id">57</property>
  </entry>
  <blank length="00:00:06.760"/>
  <entry producer="producer56" in="00:00:00.000" out="00:01:04.960">
   <property name="kdenlive:id">58</property>
  </entry>
  <blank length="00:00:02.160"/>
  <entry producer="producer57" in="00:00:00.000" out="00:00:01.560">
   <property name="kdenlive:id">59</property>
  </entry>
  <blank length="00:00:02.200"/>
  <entry producer="producer58" in="00:00:00.000" out="00:00:05.320">
   <property name="kdenlive:id">60</property>
  </entry>
  <blank length="00:00:02.120"/>
  <entry producer="producer59" in="00:00:00.000" out="00:00:03.360">
   <property name="kdenlive:id">61</property>
  </entry>
  <blank length="00:00:04.040"/>
  <entry producer="producer60" in="00:00:00.000" out="00:00:15.840">
   <property name="kdenlive:id">62</property>
  </entry>
  <blank length="00:00:02.200"/>
  <entry producer="producer61" in="00:00:00.000" out="00:00:11.720">
   <property name="kdenlive:id">63</property>
  </entry>
 </playlist>
 <playlist autoclose="1" id="playlist23"/>
 <tractor id="tractor11" in="00:00:00.000" out="00:11:22.680">
  <property name="kdenlive:trackheight">69</property>
  <property name="kdenlive:collapsed">43</property>
  <property name="kdenlive:track_name">anim5</property>
  <property name="kdenlive:thumbs_format"/>
  <property name="kdenlive:audio_rec"/>
  <property name="kdenlive:timeline_active">1</property>
  <property name="kdenlive:locked_track">1</property>
  <track hide="audio" producer="playlist22"/>
  <track hide="audio" producer="playlist23"/>
 </tractor>
 <playlist autoclose="1" id="playlist24">
  <blank length="00:04:39.400"/>
  <entry producer="producer20" in="00:00:00.000" out="00:00:45.720">
   <property name="kdenlive:id">21</property>
   <filter id="filter81">
    <property name="rotate_center">1</property>
    <property name="mlt_service">qtblend</property>
    <property name="kdenlive_id">qtblend</property>
    <property name="rect">00:00:00.000=1177 189 316 243 1;00:00:41.720~=1177 189 316 243 1;00:00:43.120=1140 469 19 10 1</property>
    <property name="rotation">00:00:00.000=0;00:00:41.720~=0;00:00:43.120=0</property>
    <property name="compositing">0</property>
    <property name="distort">0</property>
    <property name="kdenlive:collapsed">0</property>
   </filter>
  </entry>
 </playlist>
 <playlist autoclose="1" id="playlist25"/>
 <tractor id="tractor12" in="00:00:00.000" out="00:05:25.120">
  <property name="kdenlive:trackheight">69</property>
  <property name="kdenlive:collapsed">43</property>
  <property name="kdenlive:track_name">anim6</property>
  <property name="kdenlive:thumbs_format"/>
  <property name="kdenlive:audio_rec"/>
  <property name="kdenlive:timeline_active">1</property>
  <property name="kdenlive:locked_track">1</property>
  <track hide="audio" producer="playlist24"/>
  <track hide="audio" producer="playlist25"/>
 </tractor>
 <playlist autoclose="1" id="playlist26">
  <blank length="00:04:39.160"/>
  <entry producer="producer20" in="00:00:00.000" out="00:00:45.960">
   <property name="kdenlive:id">21</property>
   <filter id="filter82">
    <property name="rotate_center">1</property>
    <property name="mlt_service">qtblend</property>
    <property name="kdenlive_id">qtblend</property>
    <property name="rect">00:00:00.000=371 170 316 243 1;00:00:41.960~=371 170 316 243 1;00:00:43.360=794 464 19 10 1</property>
    <property name="rotation">00:00:00.000=0;00:00:41.960~=0;00:00:43.360=0</property>
    <property name="compositing">0</property>
    <property name="distort">0</property>
    <property name="kdenlive:collapsed">0</property>
   </filter>
  </entry>
  <entry producer="producer20" in="00:00:00.000" out="00:00:05.040">
   <property name="kdenlive:id">21</property>
   <filter id="filter83">
    <property name="rotate_center">1</property>
    <property name="mlt_service">qtblend</property>
    <property name="kdenlive_id">qtblend</property>
    <property name="rect">00:00:00.000=950 544 19 10 1;00:00:01.360=801 625 318 242 1</property>
    <property name="rotation">00:00:00.000=0;00:00:01.360=0</property>
    <property name="compositing">0</property>
    <property name="distort">0</property>
    <property name="kdenlive:collapsed">0</property>
   </filter>
  </entry>
  <entry producer="producer26" in="00:00:00.000" out="00:00:04.760">
   <property name="kdenlive:id">27</property>
   <filter id="filter84">
    <property name="background">colour:0</property>
    <property name="mlt_service">affine</property>
    <property name="kdenlive_id">affinerotate</property>
    <property name="transition.rotate_x">0=-36.4</property>
    <property name="transition.rotate_y">0=0</property>
    <property name="transition.rotate_z">0=0</property>
    <property name="transition.ox">0=0</property>
    <property name="transition.oy">0=0</property>
    <property name="producer.resource">0x00000000</property>
    <property name="transition.keyed">1</property>
    <property name="kdenlive:collapsed">0</property>
   </filter>
   <filter id="filter85">
    <property name="rotate_center">1</property>
    <property name="mlt_service">qtblend</property>
    <property name="kdenlive_id">qtblend</property>
    <property name="rect">00:00:00.000=737 606 503 289 1</property>
    <property name="rotation">00:00:00.000=0</property>
    <property name="compositing">0</property>
    <property name="distort">0</property>
    <property name="kdenlive:collapsed">1</property>
   </filter>
  </entry>
 </playlist>
 <playlist autoclose="1" id="playlist27"/>
 <tractor id="tractor13" in="00:00:00.000" out="00:05:35.000">
  <property name="kdenlive:trackheight">69</property>
  <property name="kdenlive:collapsed">43</property>
  <property name="kdenlive:track_name">anim4</property>
  <property name="kdenlive:thumbs_format"/>
  <property name="kdenlive:audio_rec"/>
  <property name="kdenlive:timeline_active">1</property>
  <property name="kdenlive:locked_track">1</property>
  <track hide="audio" producer="playlist26"/>
  <track hide="audio" producer="playlist27"/>
 </tractor>
 <producer id="producer86" in="00:00:00.000" out="00:53:52.720">
  <property name="length">80820</property>
  <property name="eof">pause</property>
  <property name="resource">-0.600000:C-2-1.mp4</property>
  <property name="aspect_ratio">1</property>
  <property name="meta.media.nb_streams">3</property>
  <property name="meta.media.0.stream.type">video</property>
  <property name="meta.media.0.stream.frame_rate">25</property>
  <property name="meta.media.0.stream.sample_aspect_ratio">0</property>
  <property name="meta.media.0.codec.width">3840</property>
  <property name="meta.media.0.codec.height">2160</property>
  <property name="meta.media.0.codec.rotate">0</property>
  <property name="meta.media.0.codec.frame_rate">25</property>
  <property name="meta.media.0.codec.pix_fmt">yuv420p</property>
  <property name="meta.media.0.codec.sample_aspect_ratio">1</property>
  <property name="meta.media.0.codec.colorspace">709</property>
  <property name="meta.media.0.codec.color_trc">11</property>
  <property name="meta.media.0.codec.name">h264</property>
  <property name="meta.media.0.codec.long_name">H.264 / AVC / MPEG-4 AVC / MPEG-4 part 10</property>
  <property name="meta.media.0.codec.bit_rate">53929733</property>
  <property name="meta.attr.0.stream.creation_time.markup">2021-10-08T09:00:57.000000Z</property>
  <property name="meta.attr.0.stream.handler_name.markup">Video Media Handler</property>
  <property name="meta.attr.0.stream.encoder.markup">AVC Coding</property>
  <property name="meta.media.1.stream.type">audio</property>
  <property name="meta.media.1.codec.sample_fmt">s16</property>
  <property name="meta.media.1.codec.sample_rate">48000</property>
  <property name="meta.media.1.codec.channels">2</property>
  <property name="meta.media.1.codec.name">pcm_s16be</property>
  <property name="meta.media.1.codec.long_name">PCM signed 16-bit big-endian</property>
  <property name="meta.media.1.codec.bit_rate">1536000</property>
  <property name="meta.attr.1.stream.creation_time.markup">2021-10-08T09:00:57.000000Z</property>
  <property name="meta.attr.1.stream.handler_name.markup">Sound Media Handler</property>
  <property name="meta.attr.major_brand.markup">XAVC</property>
  <property name="meta.attr.minor_version.markup">16785407</property>
  <property name="meta.attr.compatible_brands.markup">XAVCmp42iso2</property>
  <property name="meta.attr.creation_time.markup">2021-10-08T09:00:57.000000Z</property>
  <property name="seekable">1</property>
  <property name="meta.media.sample_aspect_num">1</property>
  <property name="meta.media.sample_aspect_den">1</property>
  <property name="audio_index">1</property>
  <property name="video_index">0</property>
  <property name="mute_on_pause">1</property>
  <property name="warp_speed">-0.6</property>
  <property name="warp_resource">C-2-1.mp4</property>
  <property name="mlt_service">timewarp</property>
  <property name="set.test_audio">1</property>
  <property name="set.test_image">0</property>
  <property name="warp_pitch">0</property>
  <property name="meta.media.frame_rate_num">25</property>
  <property name="meta.media.frame_rate_den">1</property>
  <property name="meta.media.colorspace">709</property>
  <property name="meta.media.color_trc">11</property>
  <property name="meta.media.width">3840</property>
  <property name="meta.media.height">2160</property>
  <property name="meta.media.color_range">mpeg</property>
  <property name="meta.media.top_field_first">0</property>
  <property name="meta.media.progressive">1</property>
  <property name="kdenlive:id">5</property>
 </producer>
 <producer id="producer87" in="00:00:00.000" out="00:32:19.640">
  <property name="length">48492</property>
  <property name="eof">pause</property>
  <property name="resource">C-2-1.mp4</property>
  <property name="audio_index">1</property>
  <property name="video_index">0</property>
  <property name="mute_on_pause">0</property>
  <property name="mlt_service">avformat-novalidate</property>
  <property name="seekable">1</property>
  <property name="aspect_ratio">1</property>
  <property name="kdenlive:clipname"/>
  <property name="kdenlive:folderid">-1</property>
  <property name="kdenlive:id">5</property>
  <property name="kdenlive:file_size">13498438565</property>
  <property name="kdenlive:file_hash">8cda79d4c47072d0071e105c7ec2fad9</property>
  <property name="global_feed">1</property>
  <property name="xml">was here</property>
  <property name="meta.media.nb_streams">3</property>
  <property name="meta.media.0.stream.type">video</property>
  <property name="meta.media.0.stream.frame_rate">25</property>
  <property name="meta.media.0.stream.sample_aspect_ratio">0</property>
  <property name="meta.media.0.codec.width">3840</property>
  <property name="meta.media.0.codec.height">2160</property>
  <property name="meta.media.0.codec.rotate">0</property>
  <property name="meta.media.0.codec.frame_rate">25</property>
  <property name="meta.media.0.codec.pix_fmt">yuv420p</property>
  <property name="meta.media.0.codec.sample_aspect_ratio">1</property>
  <property name="meta.media.0.codec.colorspace">709</property>
  <property name="meta.media.0.codec.color_trc">11</property>
  <property name="meta.media.0.codec.name">h264</property>
  <property name="meta.media.0.codec.long_name">H.264 / AVC / MPEG-4 AVC / MPEG-4 part 10</property>
  <property name="meta.media.0.codec.bit_rate">53929733</property>
  <property name="meta.attr.0.stream.creation_time.markup">2021-10-08T09:00:57.000000Z</property>
  <property name="meta.attr.0.stream.handler_name.markup">Video Media Handler</property>
  <property name="meta.attr.0.stream.encoder.markup">AVC Coding</property>
  <property name="meta.media.1.stream.type">audio</property>
  <property name="meta.media.1.codec.sample_fmt">s16</property>
  <property name="meta.media.1.codec.sample_rate">48000</property>
  <property name="meta.media.1.codec.channels">2</property>
  <property name="meta.media.1.codec.name">pcm_s16be</property>
  <property name="meta.media.1.codec.long_name">PCM signed 16-bit big-endian</property>
  <property name="meta.media.1.codec.bit_rate">1536000</property>
  <property name="meta.attr.1.stream.creation_time.markup">2021-10-08T09:00:57.000000Z</property>
  <property name="meta.attr.1.stream.handler_name.markup">Sound Media Handler</property>
  <property name="meta.attr.major_brand.markup">XAVC</property>
  <property name="meta.attr.minor_version.markup">16785407</property>
  <property name="meta.attr.compatible_brands.markup">XAVCmp42iso2</property>
  <property name="meta.attr.creation_time.markup">2021-10-08T09:00:57.000000Z</property>
  <property name="meta.media.sample_aspect_num">1</property>
  <property name="meta.media.sample_aspect_den">1</property>
  <property name="meta.media.frame_rate_num">25</property>
  <property name="meta.media.frame_rate_den">1</property>
  <property name="meta.media.colorspace">709</property>
  <property name="meta.media.color_trc">11</property>
  <property name="meta.media.width">3840</property>
  <property name="meta.media.height">2160</property>
  <property name="meta.media.color_range">mpeg</property>
  <property name="meta.media.top_field_first">0</property>
  <property name="meta.media.progressive">1</property>
  <property name="set.test_audio">1</property>
  <property name="set.test_image">0</property>
 </producer>
 <producer id="producer88" in="00:00:00.000" out="01:18:22.520">
  <property name="length">117564</property>
  <property name="eof">pause</property>
  <property name="resource">C0002.MP4</property>
  <property name="audio_index">1</property>
  <property name="video_index">0</property>
  <property name="mute_on_pause">0</property>
  <property name="mlt_service">avformat-novalidate</property>
  <property name="seekable">1</property>
  <property name="aspect_ratio">1</property>
  <property name="kdenlive:clipname"/>
  <property name="kdenlive:folderid">-1</property>
  <property name="kdenlive:id">3</property>
  <property name="kdenlive:file_size">33349940699</property>
  <property name="kdenlive:file_hash">ba0937037b10f657b22f23a49c7604ce</property>
  <property name="global_feed">1</property>
  <property name="xml">was here</property>
  <property name="meta.media.nb_streams">3</property>
  <property name="meta.media.0.stream.type">video</property>
  <property name="meta.media.0.stream.frame_rate">25</property>
  <property name="meta.media.0.stream.sample_aspect_ratio">0</property>
  <property name="meta.media.0.codec.width">3840</property>
  <property name="meta.media.0.codec.height">2160</property>
  <property name="meta.media.0.codec.rotate">0</property>
  <property name="meta.media.0.codec.frame_rate">25</property>
  <property name="meta.media.0.codec.pix_fmt">yuv420p</property>
  <property name="meta.media.0.codec.sample_aspect_ratio">1</property>
  <property name="meta.media.0.codec.colorspace">709</property>
  <property name="meta.media.0.codec.color_trc">11</property>
  <property name="meta.media.0.codec.name">h264</property>
  <property name="meta.media.0.codec.long_name">H.264 / AVC / MPEG-4 AVC / MPEG-4 part 10</property>
  <property name="meta.media.0.codec.bit_rate">54991848</property>
  <property name="meta.attr.0.stream.creation_time.markup">2021-10-07T14:55:19.000000Z</property>
  <property name="meta.attr.0.stream.handler_name.markup">Video Media Handler</property>
  <property name="meta.attr.0.stream.encoder.markup">AVC Coding</property>
  <property name="meta.media.1.stream.type">audio</property>
  <property name="meta.media.1.codec.sample_fmt">s16</property>
  <property name="meta.media.1.codec.sample_rate">48000</property>
  <property name="meta.media.1.codec.channels">2</property>
  <property name="meta.media.1.codec.name">pcm_s16be</property>
  <property name="meta.media.1.codec.long_name">PCM signed 16-bit big-endian</property>
  <property name="meta.media.1.codec.bit_rate">1536000</property>
  <property name="meta.attr.1.stream.creation_time.markup">2021-10-07T14:55:19.000000Z</property>
  <property name="meta.attr.1.stream.handler_name.markup">Sound Media Handler</property>
  <property name="meta.attr.major_brand.markup">XAVC</property>
  <property name="meta.attr.minor_version.markup">16785407</property>
  <property name="meta.attr.compatible_brands.markup">XAVCmp42iso2</property>
  <property name="meta.attr.creation_time.markup">2021-10-07T14:55:19.000000Z</property>
  <property name="meta.media.sample_aspect_num">1</property>
  <property name="meta.media.sample_aspect_den">1</property>
  <property name="meta.media.frame_rate_num">25</property>
  <property name="meta.media.frame_rate_den">1</property>
  <property name="meta.media.colorspace">709</property>
  <property name="meta.media.color_trc">11</property>
  <property name="meta.media.width">3840</property>
  <property name="meta.media.height">2160</property>
  <property name="meta.media.color_range">mpeg</property>
  <property name="set.test_audio">1</property>
  <property name="set.test_image">0</property>
 </producer>
 <playlist autoclose="1" id="playlist28">
  <blank length="00:00:11.200"/>
  <entry producer="producer86" in="00:40:14.280" out="00:40:17.400">
   <property name="kdenlive:id">5</property>
   <filter id="filter86">
    <property name="version">0.6</property>
    <property name="mlt_service">frei0r.select0r</property>
    <property name="kdenlive_id">frei0r.select0r</property>
    <property name="Color to select">0x39639bff</property>
    <property name="Invert selection">1</property>
    <property name="Selection subspace">0.5</property>
    <property name="Subspace shape">0.5</property>
    <property name="Edge mode">0.9</property>
    <property name="Delta R / A / Hue">00:40:14.280=0.2;00:40:17.400=0.2</property>
    <property name="Delta G / B / Chroma">00:40:14.280=0.2;00:40:17.400=0.2</property>
    <property name="Delta B / I / I">00:40:14.280=0.2;00:40:17.400=0.2</property>
    <property name="Slope">00:40:14.280=0.19;00:40:17.400=0.19</property>
    <property name="Operation">0.5</property>
    <property name="kdenlive:collapsed">1</property>
   </filter>
   <filter id="filter87">
    <property name="rotate_center">1</property>
    <property name="mlt_service">qtblend</property>
    <property name="kdenlive_id">qtblend</property>
    <property name="rect">00:40:14.280=480 540 960 540 1;00:40:17.400=480 540 960 540 1</property>
    <property name="rotation">00:40:14.280=0;00:40:17.400=0</property>
    <property name="compositing">0</property>
    <property name="distort">0</property>
    <property name="kdenlive:collapsed">1</property>
   </filter>
   <filter id="filter88">
    <property name="start">1</property>
    <property name="level">00:40:14.280=0.08;00:40:16.400=0.35;00:40:17.400=1</property>
    <property name="mlt_service">brightness</property>
    <property name="kdenlive_id">brightness</property>
    <property name="kdenlive:collapsed">0</property>
    <property name="disable">0</property>
   </filter>
  </entry>
  <blank length="00:02:41.440"/>
  <entry producer="producer87" in="00:31:33.320" out="00:31:38.640">
   <property name="kdenlive:id">5</property>
   <filter id="filter89">
    <property name="version">0.6</property>
    <property name="mlt_service">frei0r.select0r</property>
    <property name="kdenlive_id">frei0r.select0r</property>
    <property name="Color to select">0x39639bff</property>
    <property name="Invert selection">1</property>
    <property name="Selection subspace">0.5</property>
    <property name="Subspace shape">0.5</property>
    <property name="Edge mode">0.9</property>
    <property name="Delta R / A / Hue">00:31:33.320=0.2;00:31:36.440=0.2</property>
    <property name="Delta G / B / Chroma">00:31:33.320=0.2;00:31:36.440=0.2</property>
    <property name="Delta B / I / I">00:31:33.320=0.2;00:31:36.440=0.2</property>
    <property name="Slope">00:31:33.320=0.19;00:31:36.440=0.19</property>
    <property name="Operation">0.5</property>
    <property name="kdenlive:collapsed">1</property>
   </filter>
   <filter id="filter90">
    <property name="rotate_center">1</property>
    <property name="mlt_service">qtblend</property>
    <property name="kdenlive_id">qtblend</property>
    <property name="rect">00:31:33.320=480 540 960 540 1;00:31:36.440=480 540 960 540 1</property>
    <property name="rotation">00:31:33.320=0;00:31:36.440=0</property>
    <property name="compositing">0</property>
    <property name="distort">0</property>
    <property name="kdenlive:collapsed">1</property>
    <property name="disable">1</property>
   </filter>
   <filter id="filter91">
    <property name="start">1</property>
    <property name="level">00:31:33.320=1;00:31:35.440=0.35</property>
    <property name="mlt_service">brightness</property>
    <property name="kdenlive_id">brightness</property>
    <property name="kdenlive:collapsed">0</property>
    <property name="disable">0</property>
   </filter>
  </entry>
  <blank length="00:00:05.200"/>
  <entry producer="producer88" in="00:11:22.040" out="00:11:24.200">
   <property name="kdenlive:id">3</property>
   <filter id="filter92">
    <property name="version">0.2</property>
    <property name="mlt_service">frei0r.alphagrad</property>
    <property name="kdenlive_id">frei0r.alphagrad</property>
    <property name="Position">00:11:22.040=0.516</property>
    <property name="Transition width">00:11:22.040=0</property>
    <property name="Tilt">00:11:22.040=1</property>
    <property name="Min">00:11:22.040=0</property>
    <property name="Max">00:11:22.040=1</property>
    <property name="Operation">0</property>
    <property name="kdenlive:collapsed">0</property>
   </filter>
   <filter id="filter93">
    <property name="version">0.6</property>
    <property name="mlt_service">frei0r.select0r</property>
    <property name="kdenlive_id">frei0r.select0r</property>
    <property name="Color to select">0x2e7dc5ff</property>
    <property name="Invert selection">1</property>
    <property name="Selection subspace">0.5</property>
    <property name="Subspace shape">0.5</property>
    <property name="Edge mode">0.9</property>
    <property name="Delta R / A / Hue">00:11:22.040=0.2</property>
    <property name="Delta G / B / Chroma">00:11:22.040=0.2</property>
    <property name="Delta B / I / I">00:11:22.040=0.2</property>
    <property name="Slope">00:11:22.040=0</property>
    <property name="Operation">0.5</property>
    <property name="kdenlive:collapsed">1</property>
   </filter>
  </entry>
  <blank length="00:01:13.200"/>
  <entry producer="producer21" in="00:00:00.000" out="00:01:14.280">
   <property name="kdenlive:id">23</property>
   <filter id="filter94">
    <property name="rotate_center">1</property>
    <property name="mlt_service">qtblend</property>
    <property name="kdenlive_id">qtblend</property>
    <property name="rect">00:00:00.000=3 112 378 350 1</property>
    <property name="rotation">00:00:00.000=0</property>
    <property name="compositing">0</property>
    <property name="distort">0</property>
    <property name="kdenlive:collapsed">1</property>
   </filter>
   <filter id="filter95" out="00:00:01.240">
    <property name="start">0</property>
    <property name="mlt_service">brightness</property>
    <property name="kdenlive_id">fade_from_black</property>
    <property name="end">1</property>
    <property name="alpha">-1</property>
    <property name="kdenlive:collapsed">0</property>
   </filter>
   <filter id="filter96" in="00:01:13.520" out="00:01:14.280">
    <property name="start">1</property>
    <property name="mlt_service">brightness</property>
    <property name="kdenlive_id">fade_to_black</property>
    <property name="end">0</property>
    <property name="alpha">-1</property>
   </filter>
  </entry>
 </playlist>
 <playlist autoclose="1" id="playlist29"/>
 <tractor id="tractor14" in="00:00:00.000" out="00:05:36.040">
  <property name="kdenlive:trackheight">69</property>
  <property name="kdenlive:collapsed">43</property>
  <property name="kdenlive:track_name">Anim3</property>
  <property name="kdenlive:thumbs_format"/>
  <property name="kdenlive:audio_rec"/>
  <property name="kdenlive:timeline_active">1</property>
  <property name="kdenlive:locked_track">1</property>
  <track hide="audio" producer="playlist28"/>
  <track hide="audio" producer="playlist29"/>
 </tractor>
 <playlist autoclose="1" id="playlist30">
  <blank length="00:00:01.680"/>
  <entry producer="producer30" in="00:00:00.000" out="00:00:15.320">
   <property name="kdenlive:id">30</property>
   <filter id="filter97">
    <property name="rotate_center">1</property>
    <property name="mlt_service">qtblend</property>
    <property name="kdenlive_id">qtblend</property>
    <property name="rect">00:00:00.000=0 0 1920 1080 1;00:00:09.480=0 0 1920 1080 1;00:00:12.880=990 0 1920 1080 1</property>
    <property name="rotation">00:00:00.000=0;00:00:09.480=0;00:00:12.880=0</property>
    <property name="compositing">0</property>
    <property name="distort">0</property>
    <property name="kdenlive:collapsed">0</property>
   </filter>
  </entry>
  <blank length="00:02:38.760"/>
  <entry producer="producer30" in="00:00:00.000" out="00:00:13.120">
   <property name="kdenlive:id">30</property>
   <filter id="filter98">
    <property name="rotate_center">1</property>
    <property name="mlt_service">qtblend</property>
    <property name="kdenlive_id">qtblend</property>
    <property name="rect">00:00:00.000=100 -540 3840 2160 1;00:00:04.520=-960 -540 3840 2160 1;00:00:10.560=-960 -540 3840 2160 1;00:00:13.120=1658 72 19 10 1</property>
    <property name="rotation">00:00:00.000=0;00:00:04.520=0;00:00:10.560=0;00:00:13.120=0</property>
    <property name="compositing">0</property>
    <property name="distort">0</property>
    <property name="kdenlive:collapsed">0</property>
   </filter>
  </entry>
  <blank length="00:00:22.920"/>
  <entry producer="producer14" in="00:00:00.000" out="00:00:27.880">
   <property name="kdenlive:id">15</property>
   <filter id="filter99">
    <property name="rotate_center">1</property>
    <property name="mlt_service">qtblend</property>
    <property name="kdenlive_id">qtblend</property>
    <property name="rect">00:00:00.000=0 1000 1920 1080 1;00:00:02.760=0 0 1920 1080 1;00:00:25.480=0 0 1920 1080 1;00:00:27.800=0 0 1920 1080 0</property>
    <property name="rotation">00:00:00.000=0;00:00:02.760=0;00:00:25.480=0;00:00:27.800=0</property>
    <property name="compositing">0</property>
    <property name="distort">0</property>
    <property name="kdenlive:collapsed">0</property>
   </filter>
  </entry>
  <blank length="00:00:04.520"/>
  <entry producer="producer15" in="00:00:00.000" out="00:00:03.400">
   <property name="kdenlive:id">16</property>
   <filter id="filter100">
    <property name="rotate_center">1</property>
    <property name="mlt_service">qtblend</property>
    <property name="kdenlive_id">qtblend</property>
    <property name="rect">00:00:00.000=656 39 608 485 1</property>
    <property name="rotation">00:00:00.000=0</property>
    <property name="compositing">0</property>
    <property name="distort">0</property>
    <property name="kdenlive:collapsed">0</property>
   </filter>
  </entry>
  <blank length="00:00:00.960"/>
  <entry producer="producer17" in="00:00:00.000" out="00:00:03.520">
   <property name="kdenlive:id">18</property>
   <filter id="filter101">
    <property name="rotate_center">1</property>
    <property name="mlt_service">qtblend</property>
    <property name="kdenlive_id">qtblend</property>
    <property name="rect">00:00:00.000=656 39 608 485 1</property>
    <property name="rotation">00:00:00.000=0</property>
    <property name="compositing">0</property>
    <property name="distort">0</property>
    <property name="kdenlive:collapsed">0</property>
   </filter>
  </entry>
  <blank length="00:00:04.200"/>
  <entry producer="producer22" in="00:00:00.000" out="00:01:19.560">
   <property name="kdenlive:id">22</property>
   <filter id="filter102">
    <property name="rotate_center">1</property>
    <property name="mlt_service">qtblend</property>
    <property name="kdenlive_id">qtblend</property>
    <property name="rect">00:00:00.000=1388 75 629 378 1</property>
    <property name="rotation">00:00:00.000=0</property>
    <property name="compositing">0</property>
    <property name="distort">0</property>
    <property name="kdenlive:collapsed">1</property>
   </filter>
   <filter id="filter103" out="00:00:01.240">
    <property name="start">0</property>
    <property name="mlt_service">brightness</property>
    <property name="kdenlive_id">fade_from_black</property>
    <property name="end">1</property>
    <property name="alpha">-1</property>
    <property name="kdenlive:collapsed">1</property>
   </filter>
   <filter id="filter104" in="00:01:18.800" out="00:01:19.560">
    <property name="start">1</property>
    <property name="mlt_service">brightness</property>
    <property name="kdenlive_id">fade_to_black</property>
    <property name="end">0</property>
    <property name="alpha">-1</property>
    <property name="kdenlive:collapsed">0</property>
   </filter>
  </entry>
 </playlist>
 <playlist autoclose="1" id="playlist31"/>
 <tractor id="tractor15" in="00:00:00.000" out="00:05:36.040">
  <property name="kdenlive:trackheight">69</property>
  <property name="kdenlive:collapsed">43</property>
  <property name="kdenlive:track_name">Anim2</property>
  <property name="kdenlive:thumbs_format"/>
  <property name="kdenlive:audio_rec"/>
  <property name="kdenlive:timeline_active">1</property>
  <property name="kdenlive:locked_track">1</property>
  <track hide="audio" producer="playlist30"/>
  <track hide="audio" producer="playlist31"/>
 </tractor>
 <playlist autoclose="1" id="playlist32">
  <blank length="00:00:01.680"/>
  <entry producer="producer29" in="00:00:00.000" out="00:00:15.320">
   <property name="kdenlive:id">29</property>
   <filter id="filter105">
    <property name="rotate_center">1</property>
    <property name="mlt_service">qtblend</property>
    <property name="kdenlive_id">qtblend</property>
    <property name="rect">00:00:00.000=0 0 1920 1080 1;00:00:09.480=0 0 1920 1080 1;00:00:12.880=-990 0 1920 1080 1</property>
    <property name="rotation">00:00:00.000=0;00:00:09.480=0;00:00:12.880=0</property>
    <property name="compositing">0</property>
    <property name="distort">0</property>
    <property name="kdenlive:collapsed">0</property>
   </filter>
  </entry>
  <blank length="00:02:38.760"/>
  <entry producer="producer29" in="00:00:00.000" out="00:00:13.120">
   <property name="kdenlive:id">29</property>
   <filter id="filter106">
    <property name="rotate_center">1</property>
    <property name="mlt_service">qtblend</property>
    <property name="kdenlive_id">qtblend</property>
    <property name="rect">00:00:00.000=-2000 -531 3840 2160 1;00:00:04.520=-960 -531 3840 2160 1;00:00:10.560=-960 -531 3840 2160 1;00:00:13.120=1658 72 19 10 1</property>
    <property name="rotation">00:00:00.000=0;00:00:04.520=0;00:00:10.560=0;00:00:13.120=0</property>
    <property name="compositing">0</property>
    <property name="distort">0</property>
    <property name="kdenlive:collapsed">1</property>
   </filter>
  </entry>
  <blank length="00:00:20.640"/>
  <entry producer="producer13" in="00:00:00.000" out="00:00:30.160">
   <property name="kdenlive:id">14</property>
   <filter id="filter107">
    <property name="rotate_center">1</property>
    <property name="mlt_service">qtblend</property>
    <property name="kdenlive_id">qtblend</property>
    <property name="rect">00:00:00.000=0 1000 1920 1080 1;00:00:02.760=0 0 1920 1080 1;00:00:27.760=0 0 1920 1080 1;00:00:30.080=0 0 1920 1080 0</property>
    <property name="rotation">00:00:00.000=0;00:00:02.760=0;00:00:27.760=0;00:00:30.080=0</property>
    <property name="compositing">0</property>
    <property name="distort">0</property>
    <property name="kdenlive:collapsed">0</property>
   </filter>
  </entry>
  <entry producer="producer11" in="00:00:00.000" out="00:00:05.880">
   <property name="kdenlive:id">12</property>
   <filter id="filter108">
    <property name="rotate_center">1</property>
    <property name="mlt_service">qtblend</property>
    <property name="kdenlive_id">qtblend</property>
    <property name="rect">00:00:00.000=656 600 608 485 1;00:00:02.280=656 39 608 485 1</property>
    <property name="rotation">00:00:00.000=0;00:00:02.280=0</property>
    <property name="compositing">0</property>
    <property name="distort">0</property>
    <property name="kdenlive:collapsed">1</property>
   </filter>
  </entry>
  <blank length="00:00:00.640"/>
  <entry producer="producer16" in="00:00:00.000" out="00:00:03.800">
   <property name="kdenlive:id">17</property>
   <filter id="filter109">
    <property name="rotate_center">1</property>
    <property name="mlt_service">qtblend</property>
    <property name="kdenlive_id">qtblend</property>
    <property name="rect">00:00:00.000=656 39 608 485 1</property>
    <property name="rotation">00:00:00.000=0</property>
    <property name="compositing">0</property>
    <property name="distort">0</property>
    <property name="kdenlive:collapsed">0</property>
   </filter>
  </entry>
  <blank length="00:00:00.800"/>
  <entry producer="producer19" in="00:00:00.000" out="00:00:10.400">
   <property name="kdenlive:id">20</property>
   <filter id="filter110">
    <property name="rotate_center">1</property>
    <property name="mlt_service">qtblend</property>
    <property name="kdenlive_id">qtblend</property>
    <property name="rect">00:00:00.000=656 39 608 485 1;00:00:03.520=656 39 608 485 1;00:00:05.440=1243 292 219 177 1</property>
    <property name="rotation">00:00:00.000=0;00:00:03.520=0;00:00:05.440=0</property>
    <property name="compositing">0</property>
    <property name="distort">0</property>
    <property name="kdenlive:collapsed">0</property>
   </filter>
  </entry>
  <entry producer="producer20" in="00:00:00.000" out="00:00:05.120">
   <property name="kdenlive:id">21</property>
   <filter id="filter111">
    <property name="rotate_center">1</property>
    <property name="mlt_service">qtblend</property>
    <property name="kdenlive_id">qtblend</property>
    <property name="rect">00:00:00.000=1269 281 166 202 1;00:00:01.560=1269 281 166 202 1;00:00:02.480=400 281 166 202 1</property>
    <property name="rotation">00:00:00.000=0;00:00:01.560=0;00:00:02.480=0</property>
    <property name="compositing">0</property>
    <property name="distort">0</property>
    <property name="kdenlive:collapsed">0</property>
   </filter>
  </entry>
  <entry producer="producer19" in="00:00:00.000" out="00:00:10.440">
   <property name="kdenlive:id">20</property>
   <filter id="filter112">
    <property name="rotate_center">1</property>
    <property name="mlt_service">qtblend</property>
    <property name="kdenlive_id">qtblend</property>
    <property name="rect">00:00:00.000=374 289 219 177 1</property>
    <property name="rotation">00:00:00.000=0</property>
    <property name="compositing">0</property>
    <property name="distort">0</property>
    <property name="kdenlive:collapsed">1</property>
   </filter>
  </entry>
  <blank length="00:00:01.800"/>
  <entry producer="producer22" in="00:00:00.000" out="00:00:56.120">
   <property name="kdenlive:id">22</property>
   <filter id="filter113">
    <property name="version">0.1</property>
    <property name="mlt_service">frei0r.flippo</property>
    <property name="kdenlive_id">frei0r.flippo</property>
    <property name="X axis">1</property>
    <property name="Y axis">0</property>
    <property name="kdenlive:collapsed">1</property>
   </filter>
   <filter id="filter114">
    <property name="rotate_center">1</property>
    <property name="mlt_service">qtblend</property>
    <property name="kdenlive_id">qtblend</property>
    <property name="rect">00:00:00.000=33 673 378 350 1</property>
    <property name="rotation">00:00:00.000=0</property>
    <property name="compositing">0</property>
    <property name="distort">0</property>
    <property name="kdenlive:collapsed">0</property>
   </filter>
  </entry>
 </playlist>
 <playlist autoclose="1" id="playlist33"/>
 <tractor id="tractor16" in="00:00:00.000" out="00:05:35.000">
  <property name="kdenlive:trackheight">69</property>
  <property name="kdenlive:collapsed">43</property>
  <property name="kdenlive:track_name">Anim1</property>
  <property name="kdenlive:thumbs_format"/>
  <property name="kdenlive:audio_rec"/>
  <property name="kdenlive:timeline_active">1</property>
  <property name="kdenlive:locked_track">1</property>
  <track hide="audio" producer="playlist32"/>
  <track hide="audio" producer="playlist33"/>
 </tractor>
 <playlist autoclose="1" id="playlist34">
  <blank length="00:00:01.680"/>
  <entry producer="producer32" in="00:00:00.000" out="00:00:09.880">
   <property name="kdenlive:id">28</property>
   <filter id="filter115">
    <property name="background">colour:0</property>
    <property name="mlt_service">affine</property>
    <property name="kdenlive_id">affinerotate</property>
    <property name="transition.rotate_x">0=0;54=0;101=180;247=180</property>
    <property name="transition.rotate_y">0=0;54=0;101=180;247=180</property>
    <property name="transition.rotate_z">0=0;54=0;101=180;247=180</property>
    <property name="transition.ox">0=0;54=0;101=0;247=0</property>
    <property name="transition.oy">0=0;54=0;101=0;247=0</property>
    <property name="producer.resource">0x00000000</property>
    <property name="transition.keyed">1</property>
    <property name="kdenlive:collapsed">1</property>
   </filter>
   <filter id="filter116">
    <property name="rotate_center">1</property>
    <property name="mlt_service">qtblend</property>
    <property name="kdenlive_id">qtblend</property>
    <property name="rect">00:00:00.000=950 535 19 10 1;00:00:02.160=950 535 19 10 1;00:00:04.040=-192 91 2304 1297 1;00:00:07.280=-192 91 2304 1297 1;00:00:09.880=-192 91 2304 1297 0</property>
    <property name="rotation">00:00:00.000=0;00:00:02.160=0;00:00:04.040=0;00:00:07.280=0;00:00:09.880=0</property>
    <property name="compositing">0</property>
    <property name="distort">0</property>
    <property name="kdenlive:collapsed">0</property>
   </filter>
  </entry>
  <blank length="00:04:15.000"/>
  <entry producer="producer23" in="00:00:00.000" out="00:00:10.440">
   <property name="kdenlive:id">24</property>
   <filter id="filter117">
    <property name="rotate_center">1</property>
    <property name="mlt_service">qtblend</property>
    <property name="kdenlive_id">qtblend</property>
    <property name="rect">00:00:00.000=-148 355 906 509 1;00:00:00.480=-148 355 906 509 1;00:00:01.520=-794 21 1920 1080 1</property>
    <property name="rotation">00:00:00.000=0;00:00:00.480=0;00:00:01.520=0</property>
    <property name="compositing">0</property>
    <property name="distort">0</property>
    <property name="kdenlive:collapsed">1</property>
   </filter>
  </entry>
  <blank length="00:00:01.280"/>
  <entry producer="producer21" in="00:00:00.000" out="00:00:56.640">
   <property name="kdenlive:id">23</property>
   <filter id="filter118">
    <property name="mirror">flip</property>
    <property name="mlt_service">mirror</property>
    <property name="kdenlive_id">mirror</property>
    <property name="reverse">0</property>
    <property name="kdenlive:collapsed">1</property>
   </filter>
   <filter id="filter119">
    <property name="rotate_center">1</property>
    <property name="mlt_service">qtblend</property>
    <property name="kdenlive_id">qtblend</property>
    <property name="rect">00:00:00.000=1503 674 378 350 1</property>
    <property name="rotation">00:00:00.000=0</property>
    <property name="compositing">0</property>
    <property name="distort">0</property>
    <property name="kdenlive:collapsed">0</property>
   </filter>
  </entry>
 </playlist>
 <playlist autoclose="1" id="playlist35"/>
 <tractor id="tractor17" in="00:00:00.000" out="00:05:35.000">
  <property name="kdenlive:trackheight">69</property>
  <property name="kdenlive:collapsed">43</property>
  <property name="kdenlive:track_name">Anim.5</property>
  <property name="kdenlive:thumbs_format"/>
  <property name="kdenlive:audio_rec"/>
  <property name="kdenlive:timeline_active">1</property>
  <property name="kdenlive:locked_track">1</property>
  <track hide="audio" producer="playlist34"/>
  <track hide="audio" producer="playlist35"/>
 </tractor>
 <producer id="producer89" in="00:00:00.000" out="00:00:12.880">
  <property name="length">324</property>
  <property name="eof">pause</property>
  <property name="resource">12.955200:pexels-jack-nicole-6339299.mp4</property>
  <property name="aspect_ratio">1</property>
  <property name="meta.media.nb_streams">2</property>
  <property name="meta.media.0.stream.type">video</property>
  <property name="meta.media.0.stream.frame_rate">30</property>
  <property name="meta.media.0.stream.sample_aspect_ratio">0</property>
  <property name="meta.media.0.codec.width">1920</property>
  <property name="meta.media.0.codec.height">1080</property>
  <property name="meta.media.0.codec.rotate">0</property>
  <property name="meta.media.0.codec.frame_rate">30</property>
  <property name="meta.media.0.codec.pix_fmt">yuv420p</property>
  <property name="meta.media.0.codec.sample_aspect_ratio">0</property>
  <property name="meta.media.0.codec.colorspace">709</property>
  <property name="meta.media.0.codec.color_trc">1</property>
  <property name="meta.media.0.codec.name">h264</property>
  <property name="meta.media.0.codec.long_name">H.264 / AVC / MPEG-4 AVC / MPEG-4 part 10</property>
  <property name="meta.media.0.codec.bit_rate">4993051</property>
  <property name="meta.attr.0.stream.creation_time.markup">2020-12-30T10:58:50.000000Z</property>
  <property name="meta.attr.0.stream.handler_name.markup">L-SMASH Video Handler</property>
  <property name="meta.attr.0.stream.encoder.markup">AVC Coding</property>
  <property name="meta.media.1.stream.type">audio</property>
  <property name="meta.media.1.codec.sample_fmt">fltp</property>
  <property name="meta.media.1.codec.sample_rate">48000</property>
  <property name="meta.media.1.codec.channels">2</property>
  <property name="meta.media.1.codec.name">aac</property>
  <property name="meta.media.1.codec.long_name">AAC (Advanced Audio Coding)</property>
  <property name="meta.media.1.codec.bit_rate">253375</property>
  <property name="meta.attr.1.stream.creation_time.markup">2020-12-30T10:58:50.000000Z</property>
  <property name="meta.attr.1.stream.handler_name.markup">L-SMASH Audio Handler</property>
  <property name="meta.attr.major_brand.markup">mp42</property>
  <property name="meta.attr.minor_version.markup">0</property>
  <property name="meta.attr.compatible_brands.markup">mp42mp41isomavc1</property>
  <property name="meta.attr.creation_time.markup">2020-12-30T10:58:50.000000Z</property>
  <property name="seekable">1</property>
  <property name="meta.media.sample_aspect_num">1</property>
  <property name="meta.media.sample_aspect_den">1</property>
  <property name="audio_index">1</property>
  <property name="video_index">0</property>
  <property name="mute_on_pause">1</property>
  <property name="warp_speed">12.9552</property>
  <property name="warp_resource">pexels-jack-nicole-6339299.mp4</property>
  <property name="mlt_service">timewarp</property>
  <property name="set.test_audio">1</property>
  <property name="set.test_image">0</property>
  <property name="warp_pitch">0</property>
  <property name="meta.media.frame_rate_num">30</property>
  <property name="meta.media.frame_rate_den">1</property>
  <property name="meta.media.colorspace">709</property>
  <property name="meta.media.color_trc">1</property>
  <property name="meta.media.width">1920</property>
  <property name="meta.media.height">1080</property>
  <property name="meta.media.color_range">mpeg</property>
  <property name="meta.media.top_field_first">0</property>
  <property name="meta.media.progressive">1</property>
  <property name="kdenlive:id">25</property>
 </producer>
 <producer id="producer90" in="00:00:00.000" out="00:00:12.880">
  <property name="length">324</property>
  <property name="eof">pause</property>
  <property name="resource">12.955200:pexels-jack-nicole-6339299.mp4</property>
  <property name="aspect_ratio">1</property>
  <property name="meta.media.nb_streams">2</property>
  <property name="meta.media.0.stream.type">video</property>
  <property name="meta.media.0.stream.frame_rate">30</property>
  <property name="meta.media.0.stream.sample_aspect_ratio">0</property>
  <property name="meta.media.0.codec.width">1920</property>
  <property name="meta.media.0.codec.height">1080</property>
  <property name="meta.media.0.codec.rotate">0</property>
  <property name="meta.media.0.codec.frame_rate">30</property>
  <property name="meta.media.0.codec.pix_fmt">yuv420p</property>
  <property name="meta.media.0.codec.sample_aspect_ratio">0</property>
  <property name="meta.media.0.codec.colorspace">709</property>
  <property name="meta.media.0.codec.color_trc">1</property>
  <property name="meta.media.0.codec.name">h264</property>
  <property name="meta.media.0.codec.long_name">H.264 / AVC / MPEG-4 AVC / MPEG-4 part 10</property>
  <property name="meta.media.0.codec.bit_rate">4993051</property>
  <property name="meta.attr.0.stream.creation_time.markup">2020-12-30T10:58:50.000000Z</property>
  <property name="meta.attr.0.stream.handler_name.markup">L-SMASH Video Handler</property>
  <property name="meta.attr.0.stream.encoder.markup">AVC Coding</property>
  <property name="meta.media.1.stream.type">audio</property>
  <property name="meta.media.1.codec.sample_fmt">fltp</property>
  <property name="meta.media.1.codec.sample_rate">48000</property>
  <property name="meta.media.1.codec.channels">2</property>
  <property name="meta.media.1.codec.name">aac</property>
  <property name="meta.media.1.codec.long_name">AAC (Advanced Audio Coding)</property>
  <property name="meta.media.1.codec.bit_rate">253375</property>
  <property name="meta.attr.1.stream.creation_time.markup">2020-12-30T10:58:50.000000Z</property>
  <property name="meta.attr.1.stream.handler_name.markup">L-SMASH Audio Handler</property>
  <property name="meta.attr.major_brand.markup">mp42</property>
  <property name="meta.attr.minor_version.markup">0</property>
  <property name="meta.attr.compatible_brands.markup">mp42mp41isomavc1</property>
  <property name="meta.attr.creation_time.markup">2020-12-30T10:58:50.000000Z</property>
  <property name="seekable">1</property>
  <property name="meta.media.sample_aspect_num">1</property>
  <property name="meta.media.sample_aspect_den">1</property>
  <property name="audio_index">1</property>
  <property name="video_index">0</property>
  <property name="mute_on_pause">1</property>
  <property name="warp_speed">12.9552</property>
  <property name="warp_resource">pexels-jack-nicole-6339299.mp4</property>
  <property name="mlt_service">timewarp</property>
  <property name="set.test_audio">1</property>
  <property name="set.test_image">0</property>
  <property name="warp_pitch">0</property>
  <property name="meta.media.frame_rate_num">30</property>
  <property name="meta.media.frame_rate_den">1</property>
  <property name="meta.media.colorspace">709</property>
  <property name="meta.media.color_trc">1</property>
  <property name="meta.media.width">1920</property>
  <property name="meta.media.height">1080</property>
  <property name="meta.media.color_range">mpeg</property>
  <property name="meta.media.top_field_first">0</property>
  <property name="meta.media.progressive">1</property>
  <property name="kdenlive:id">25</property>
 </producer>
 <playlist autoclose="1" id="playlist36">
  <entry producer="producer31" in="00:00:00.000" out="00:00:03.840">
   <property name="kdenlive:id">31</property>
  </entry>
  <blank length="00:00:32.840"/>
  <entry producer="producer11" in="00:00:00.000" out="00:00:25.600">
   <property name="kdenlive:id">12</property>
   <filter id="filter120">
    <property name="background">colour:0</property>
    <property name="mlt_service">affine</property>
    <property name="kdenlive_id">affinerotate</property>
    <property name="transition.rotate_x">0=-180;49=180;209=180;413=180</property>
    <property name="transition.rotate_y">0=-180;49=180;209=180;413=180</property>
    <property name="transition.rotate_z">0=-180;49=180;209=-180;413=180</property>
    <property name="transition.ox">0=0;49=0;209=0;413=0</property>
    <property name="transition.oy">0=0;49=0;209=0;413=0</property>
    <property name="producer.resource">0x00000000</property>
    <property name="transition.keyed">1</property>
    <property name="kdenlive:collapsed">0</property>
   </filter>
   <filter id="filter121">
    <property name="rotate_center">1</property>
    <property name="mlt_service">qtblend</property>
    <property name="kdenlive_id">qtblend</property>
    <property name="rect">00:00:00.000=1020 31 19 10 1;00:00:01.960=1020 31 1109 584 1</property>
    <property name="rotation">00:00:00.000=0;00:00:01.960=0</property>
    <property name="compositing">0</property>
    <property name="distort">0</property>
    <property name="kdenlive:collapsed">1</property>
   </filter>
  </entry>
  <blank length="00:01:17.360"/>
  <entry producer="producer11" in="00:00:00.000" out="00:00:05.480">
   <property name="kdenlive:id">12</property>
   <filter id="filter122">
    <property name="rotate_center">1</property>
    <property name="mlt_service">qtblend</property>
    <property name="kdenlive_id">qtblend</property>
    <property name="rect">00:00:00.000=1863 48 19 10 1;00:00:01.520=1029 55 956 628 1</property>
    <property name="rotation">00:00:00.000=0;00:00:01.520=0</property>
    <property name="compositing">0</property>
    <property name="distort">0</property>
    <property name="kdenlive:collapsed">0</property>
   </filter>
  </entry>
  <blank length="00:01:51.240"/>
  <entry producer="producer23" in="00:00:00.000" out="00:00:04.920">
   <property name="kdenlive:id">24</property>
   <filter id="filter123" out="00:00:01.240">
    <property name="start">0</property>
    <property name="mlt_service">brightness</property>
    <property name="kdenlive_id">fade_from_black</property>
    <property name="end">1</property>
    <property name="alpha">-1</property>
    <property name="kdenlive:collapsed">1</property>
   </filter>
   <filter id="filter124">
    <property name="rotate_center">1</property>
    <property name="mlt_service">qtblend</property>
    <property name="kdenlive_id">qtblend</property>
    <property name="rect">00:00:00.000=0 0 1920 1080 1;00:00:01.880=0 0 1920 1080 1;00:00:04.400=715 237 906 762 1</property>
    <property name="rotation">00:00:00.000=0;00:00:01.880=0;00:00:04.400=0</property>
    <property name="compositing">0</property>
    <property name="distort">0</property>
    <property name="kdenlive:collapsed">0</property>
   </filter>
  </entry>
  <blank length="00:00:02.480"/>
  <entry producer="producer89" in="00:00:00.000" out="00:00:03.120">
   <property name="kdenlive:id">25</property>
   <filter id="filter125">
    <property name="mode">alpha</property>
    <property name="alpha_operation">clear</property>
    <property name="invert">0</property>
    <property name="feather">0</property>
    <property name="feather_passes">1</property>
    <property name="mlt_service">rotoscoping</property>
    <property name="kdenlive_id">rotoscoping</property>
    <property name="spline">{
    "000": [
        [
            [
                0.25,
                0.7122905027932961
            ],
            [
                0.24056603773584906,
                0.4972067039106145
            ],
            [
                0.24213836477987422,
                0.2569832402234637
            ]
        ],
        [
            [
                0.35691823899371067,
                0.03072625698324022
            ],
            [
                0.5078616352201258,
                0.027932960893854747
            ],
            [
                0.6588050314465409,
                0.036312849162011177
            ]
        ],
        [
            [
                0.7594339622641509,
                0.2765363128491619
            ],
            [
                0.7578616352201258,
                0.4916201117318435
            ],
            [
                0.7547169811320755,
                0.6983240223463686
            ]
        ],
        [
            [
                0.6729559748427673,
                0.9301675977653631
            ],
            [
                0.5047169811320755,
                0.9441340782122905
            ],
            [
                0.32547169811320703,
                0.935754189944134
            ]
        ]
    ]
}
</property>
    <property name="kdenlive:collapsed">1</property>
   </filter>
   <filter id="filter126">
    <property name="rotate_center">1</property>
    <property name="mlt_service">qtblend</property>
    <property name="kdenlive_id">qtblend</property>
    <property name="rect">00:00:00.000=341 24 294 344 1</property>
    <property name="rotation">00:00:00.000=0</property>
    <property name="compositing">0</property>
    <property name="distort">0</property>
    <property name="kdenlive:collapsed">1</property>
    <property name="disable">0</property>
   </filter>
   <filter id="filter127" out="00:00:00.760">
    <property name="start">0</property>
    <property name="mlt_service">brightness</property>
    <property name="kdenlive_id">fade_from_black</property>
    <property name="end">1</property>
    <property name="alpha">-1</property>
    <property name="kdenlive:collapsed">0</property>
    <property name="disable">0</property>
   </filter>
   <filter id="filter128" in="00:00:02.600" out="00:00:03.120">
    <property name="start">1</property>
    <property name="mlt_service">brightness</property>
    <property name="kdenlive_id">fade_to_black</property>
    <property name="end">0</property>
    <property name="alpha">-1</property>
    <property name="kdenlive:collapsed">0</property>
   </filter>
  </entry>
  <blank length="00:00:53.320"/>
  <entry producer="producer25" in="00:00:00.000" out="00:00:06.760">
   <property name="kdenlive:id">26</property>
   <filter id="filter129" out="00:00:00.640">
    <property name="start">0</property>
    <property name="mlt_service">brightness</property>
    <property name="kdenlive_id">fade_from_black</property>
    <property name="end">1</property>
    <property name="alpha">-1</property>
    <property name="kdenlive:collapsed">0</property>
   </filter>
   <filter id="filter130" in="00:00:05.920" out="00:00:06.760">
    <property name="start">1</property>
    <property name="mlt_service">brightness</property>
    <property name="kdenlive_id">fade_to_black</property>
    <property name="end">0</property>
    <property name="alpha">-1</property>
    <property name="kdenlive:collapsed">0</property>
   </filter>
  </entry>
  <entry producer="producer90" in="00:00:00.000" out="00:00:03.560">
   <property name="kdenlive:id">25</property>
   <filter id="filter131">
    <property name="mode">alpha</property>
    <property name="alpha_operation">clear</property>
    <property name="invert">0</property>
    <property name="feather">0</property>
    <property name="feather_passes">1</property>
    <property name="mlt_service">rotoscoping</property>
    <property name="kdenlive_id">rotoscoping</property>
    <property name="spline">{
    "000": [
        [
            [
                0.25,
                0.7122905027932961
            ],
            [
                0.24056603773584906,
                0.4972067039106145
            ],
            [
                0.24213836477987422,
                0.2569832402234637
            ]
        ],
        [
            [
                0.35691823899371067,
                0.03072625698324022
            ],
            [
                0.5078616352201258,
                0.027932960893854747
            ],
            [
                0.6588050314465409,
                0.036312849162011177
            ]
        ],
        [
            [
                0.7594339622641509,
                0.2765363128491619
            ],
            [
                0.7578616352201258,
                0.4916201117318435
            ],
            [
                0.7547169811320755,
                0.6983240223463686
            ]
        ],
        [
            [
                0.6729559748427673,
                0.9301675977653631
            ],
            [
                0.5047169811320755,
                0.9441340782122905
            ],
            [
                0.32547169811320703,
                0.935754189944134
            ]
        ]
    ]
}
</property>
    <property name="kdenlive:collapsed">1</property>
   </filter>
   <filter id="filter132">
    <property name="rotate_center">1</property>
    <property name="mlt_service">qtblend</property>
    <property name="kdenlive_id">qtblend</property>
    <property name="rect">00:00:00.000=813 306 294 344 1</property>
    <property name="rotation">00:00:00.000=0</property>
    <property name="compositing">0</property>
    <property name="distort">0</property>
    <property name="kdenlive:collapsed">0</property>
   </filter>
   <filter id="filter133" out="00:00:00.760">
    <property name="start">0</property>
    <property name="mlt_service">brightness</property>
    <property name="kdenlive_id">fade_from_black</property>
    <property name="end">1</property>
    <property name="alpha">-1</property>
    <property name="kdenlive:collapsed">0</property>
   </filter>
   <filter id="filter134" in="00:00:03.040" out="00:00:03.560">
    <property name="start">1</property>
    <property name="mlt_service">brightness</property>
    <property name="kdenlive_id">fade_to_black</property>
    <property name="end">0</property>
    <property name="alpha">-1</property>
    <property name="kdenlive:collapsed">0</property>
   </filter>
  </entry>
 </playlist>
 <playlist autoclose="1" id="playlist37"/>
 <tractor id="tractor18" in="00:00:00.000" out="00:05:30.760">
  <property name="kdenlive:trackheight">69</property>
  <property name="kdenlive:collapsed">43</property>
  <property name="kdenlive:track_name">Anim0</property>
  <property name="kdenlive:thumbs_format"/>
  <property name="kdenlive:audio_rec"/>
  <property name="kdenlive:timeline_active">1</property>
  <property name="kdenlive:locked_track">1</property>
  <track hide="audio" producer="playlist36"/>
  <track hide="audio" producer="playlist37"/>
 </tractor>
 <producer id="producer91" in="00:00:00.000" out="00:00:41.960">
  <property name="length">1050</property>
  <property name="eof">pause</property>
  <property name="resource">media/videos/walk/1080p60/Walk.mov</property>
  <property name="audio_index">-1</property>
  <property name="video_index">0</property>
  <property name="mute_on_pause">0</property>
  <property name="mlt_service">avformat-novalidate</property>
  <property name="seekable">1</property>
  <property name="aspect_ratio">1</property>
  <property name="kdenlive:clipname"/>
  <property name="kdenlive:folderid">-1</property>
  <property name="kdenlive:id">40</property>
  <property name="kdenlive:file_size">53975276</property>
  <property name="kdenlive:file_hash">ec25c6dc475b81bfec7ad9838386b2f1</property>
  <property name="global_feed">1</property>
  <property name="xml">was here</property>
  <property name="meta.media.nb_streams">1</property>
  <property name="meta.media.0.stream.type">video</property>
  <property name="meta.media.0.stream.frame_rate">60</property>
  <property name="meta.media.0.stream.sample_aspect_ratio">0</property>
  <property name="meta.media.0.codec.width">1920</property>
  <property name="meta.media.0.codec.height">1080</property>
  <property name="meta.media.0.codec.rotate">0</property>
  <property name="meta.media.0.codec.frame_rate">15360</property>
  <property name="meta.media.0.codec.pix_fmt">argb</property>
  <property name="meta.media.0.codec.sample_aspect_ratio">0</property>
  <property name="meta.media.0.codec.colorspace">709</property>
  <property name="meta.media.0.codec.name">qtrle</property>
  <property name="meta.media.0.codec.long_name">QuickTime Animation (RLE) video</property>
  <property name="meta.media.0.codec.bit_rate">10278647</property>
  <property name="meta.attr.0.stream.handler_name.markup">VideoHandler</property>
  <property name="meta.attr.0.stream.encoder.markup">Lavc58.134.100 qtrle</property>
  <property name="meta.attr.major_brand.markup">qt  </property>
  <property name="meta.attr.minor_version.markup">512</property>
  <property name="meta.attr.compatible_brands.markup">qt  </property>
  <property name="meta.attr.encoder.markup">Lavf58.76.100</property>
  <property name="meta.attr.comment.markup">Rendered with Manim Community v0.11.0</property>
  <property name="meta.media.sample_aspect_num">1</property>
  <property name="meta.media.sample_aspect_den">1</property>
  <property name="meta.media.frame_rate_num">60</property>
  <property name="meta.media.frame_rate_den">1</property>
  <property name="meta.media.colorspace">709</property>
  <property name="meta.media.color_trc">2</property>
  <property name="meta.media.width">1920</property>
  <property name="meta.media.height">1080</property>
  <property name="meta.media.color_range">mpeg</property>
  <property name="meta.media.top_field_first">0</property>
  <property name="meta.media.progressive">1</property>
  <property name="set.test_audio">1</property>
  <property name="set.test_image">0</property>
 </producer>
 <playlist autoclose="1" id="playlist38">
  <blank length="00:14:14.720"/>
  <entry producer="producer40" in="00:00:00.000" out="00:00:34.600">
   <property name="kdenlive:id">37</property>
   <property name="kdenlive:activeeffect">0</property>
   <filter id="filter54">
    <property name="rotate_center">1</property>
    <property name="mlt_service">qtblend</property>
    <property name="kdenlive_id">qtblend</property>
    <property name="rect">00:00:00.000=616 284 691 388 1</property>
    <property name="rotation">00:00:00.000=0</property>
    <property name="compositing">0</property>
    <property name="distort">0</property>
    <property name="kdenlive:collapsed">0</property>
   </filter>
   <filter id="filter163" out="00:00:02.520">
    <property name="start">0</property>
    <property name="mlt_service">brightness</property>
    <property name="kdenlive_id">fade_from_black</property>
    <property name="end">1</property>
    <property name="alpha">-1</property>
    <property name="kdenlive:collapsed">1</property>
   </filter>
  </entry>
  <blank length="00:00:12.640"/>
  <entry producer="producer40" in="00:00:00.000" out="00:00:43.400">
   <property name="kdenlive:id">37</property>
   <property name="kdenlive:activeeffect">0</property>
   <filter id="filter56">
    <property name="rotate_center">1</property>
    <property name="mlt_service">qtblend</property>
    <property name="kdenlive_id">qtblend</property>
    <property name="rect">00:00:00.000=616 284 691 388 1</property>
    <property name="rotation">00:00:00.000=0</property>
    <property name="compositing">0</property>
    <property name="distort">0</property>
    <property name="kdenlive:collapsed">1</property>
   </filter>
  </entry>
  <blank length="00:00:17.840"/>
  <entry producer="producer40" in="00:00:00.000" out="00:01:00.120">
   <property name="kdenlive:id">37</property>
   <property name="kdenlive:activeeffect">1</property>
   <filter id="filter57">
    <property name="rotate_center">1</property>
    <property name="mlt_service">qtblend</property>
    <property name="kdenlive_id">qtblend</property>
    <property name="rect">00:00:00.000=616 284 691 388 1</property>
    <property name="rotation">00:00:00.000=0</property>
    <property name="compositing">0</property>
    <property name="distort">0</property>
    <property name="kdenlive:collapsed">1</property>
   </filter>
   <filter id="filter58">
    <property name="smooth">00:00:00.000=0;00:00:16.040=0;00:00:18.040=0.002</property>
    <property name="radius">00:00:00.000=0.354;00:00:16.040=0.354;00:00:18.040=0.013</property>
    <property name="x">00:00:00.000=0.559;00:00:16.040=0.559;00:00:18.040=0.559</property>
    <property name="y">00:00:00.000=0.526;00:00:16.040=0.526;00:00:18.040=0.526</property>
    <property name="opacity">00:00:00.000=0.636;00:00:16.040=0.636;00:00:18.040=0.636</property>
    <property name="mode">0</property>
    <property name="mlt_service">vignette</property>
    <property name="kdenlive_id">vignette</property>
    <property name="kdenlive:collapsed">0</property>
   </filter>
  </entry>
  <blank length="00:02:46.200"/>
  <entry producer="producer91" in="00:00:00.000" out="00:00:01.320">
   <property name="kdenlive:id">40</property>
   <filter id="filter59">
    <property name="rotate_center">1</property>
    <property name="mlt_service">qtblend</property>
    <property name="kdenlive_id">qtblend</property>
    <property name="rect">00:00:00.000=425 -11 1632 918 1</property>
    <property name="rotation">00:00:00.000=0</property>
    <property name="compositing">0</property>
    <property name="distort">0</property>
    <property name="kdenlive:collapsed">1</property>
   </filter>
  </entry>
  <entry producer="producer67" in="00:00:00.000" out="00:00:24.120">
   <property name="kdenlive:id">69</property>
   <filter id="filter60">
    <property name="rotate_center">1</property>
    <property name="mlt_service">qtblend</property>
    <property name="kdenlive_id">qtblend</property>
    <property name="rect">00:00:00.000=425 -11 1632 918 1</property>
    <property name="rotation">00:00:00.000=0</property>
    <property name="compositing">0</property>
    <property name="distort">0</property>
    <property name="kdenlive:collapsed">1</property>
   </filter>
  </entry>
  <entry producer="producer91" in="00:00:01.400" out="00:00:05.000">
   <property name="kdenlive:id">40</property>
   <filter id="filter135">
    <property name="rotate_center">1</property>
    <property name="mlt_service">qtblend</property>
    <property name="kdenlive_id">qtblend</property>
    <property name="rect">00:00:01.400=425 -11 1632 918 1</property>
    <property name="rotation">00:00:01.400=0</property>
    <property name="compositing">0</property>
    <property name="distort">0</property>
    <property name="kdenlive:collapsed">1</property>
   </filter>
  </entry>
  <entry producer="producer68" in="00:00:00.000" out="00:00:06.240">
   <property name="kdenlive:id">70</property>
   <filter id="filter61">
    <property name="rotate_center">1</property>
    <property name="mlt_service">qtblend</property>
    <property name="kdenlive_id">qtblend</property>
    <property name="rect">00:00:00.000=425 -11 1632 918 1</property>
    <property name="rotation">00:00:00.000=0</property>
    <property name="compositing">0</property>
    <property name="distort">0</property>
    <property name="kdenlive:collapsed">1</property>
   </filter>
  </entry>
  <entry producer="producer91" in="00:00:05.080" out="00:00:06.640">
   <property name="kdenlive:id">40</property>
   <filter id="filter137">
    <property name="rotate_center">1</property>
    <property name="mlt_service">qtblend</property>
    <property name="kdenlive_id">qtblend</property>
    <property name="rect">00:00:05.080=425 -11 1632 918 1</property>
    <property name="rotation">00:00:05.080=0</property>
    <property name="compositing">0</property>
    <property name="distort">0</property>
    <property name="kdenlive:collapsed">1</property>
   </filter>
  </entry>
  <entry producer="producer69" in="00:00:00.000" out="00:00:05.800">
   <property name="kdenlive:id">71</property>
   <filter id="filter62">
    <property name="rotate_center">1</property>
    <property name="mlt_service">qtblend</property>
    <property name="kdenlive_id">qtblend</property>
    <property name="rect">00:00:00.000=425 -11 1632 918 1</property>
    <property name="rotation">00:00:00.000=0</property>
    <property name="compositing">0</property>
    <property name="distort">0</property>
    <property name="kdenlive:collapsed">1</property>
   </filter>
  </entry>
  <blank length="00:01:00.360"/>
  <entry producer="producer70" in="00:00:00.000" out="00:00:14.600">
   <property name="kdenlive:id">72</property>
   <filter id="filter63">
    <property name="rotate_center">1</property>
    <property name="mlt_service">qtblend</property>
    <property name="kdenlive_id">qtblend</property>
    <property name="rect">00:00:00.000=425 -11 1632 918 1</property>
    <property name="rotation">00:00:00.000=0</property>
    <property name="compositing">0</property>
    <property name="distort">0</property>
    <property name="kdenlive:collapsed">1</property>
   </filter>
  </entry>
  <blank length="00:01:14.280"/>
  <entry producer="producer33" in="00:00:00.000" out="00:00:11.200">
   <property name="kdenlive:id">41</property>
   <filter id="filter140">
    <property name="rotate_center">1</property>
    <property name="mlt_service">qtblend</property>
    <property name="kdenlive_id">qtblend</property>
    <property name="rect">00:00:00.000=1137 151 864 486 1</property>
    <property name="rotation">00:00:00.000=0</property>
    <property name="compositing">0</property>
    <property name="distort">0</property>
    <property name="kdenlive:collapsed">1</property>
   </filter>
  </entry>
  <filter id="filter141" out="00:23:48.920">
   <property name="version">0.2</property>
   <property name="mlt_service">frei0r.c0rners</property>
   <property name="kdenlive_id">frei0r.c0rners</property>
   <property name="0">00:00:00.000=0.333333</property>
   <property name="1">00:00:00.000=0.333333</property>
   <property name="2">00:00:00.000=0.666667</property>
   <property name="3">00:00:00.000=0.28</property>
   <property name="4">00:00:00.000=0.666667</property>
   <property name="5">00:00:00.000=0.733167</property>
   <property name="6">00:00:00.000=0.333333</property>
   <property name="7">00:00:00.000=0.666667</property>
   <property name="9">00:00:00.000=0.5</property>
   <property name="10">00:00:00.000=0.5</property>
   <property name="13">00:00:00.000=0.05</property>
   <property name="8">0</property>
   <property name="11">0.166</property>
   <property name="12">1</property>
   <property name="14">0.5</property>
   <property name="kdenlive:collapsed">0</property>
   <property name="disable">0</property>
  </filter>
 </playlist>
 <playlist autoclose="1" id="playlist39"/>
 <tractor id="tractor19" in="00:00:00.000" out="00:23:13.000">
  <property name="kdenlive:trackheight">69</property>
  <property name="kdenlive:collapsed">43</property>
  <property name="kdenlive:track_name">UnderJeff</property>
  <property name="kdenlive:thumbs_format"/>
  <property name="kdenlive:audio_rec"/>
  <property name="kdenlive:timeline_active">1</property>
  <property name="kdenlive:locked_track">1</property>
  <track hide="audio" producer="playlist38"/>
  <track hide="audio" producer="playlist39"/>
 </tractor>
 <producer id="producer92" in="00:00:00.000" out="00:00:41.960">
  <property name="length">1050</property>
  <property name="eof">pause</property>
  <property name="resource">media/videos/walk/1080p60/Walk.mov</property>
  <property name="audio_index">-1</property>
  <property name="video_index">0</property>
  <property name="mute_on_pause">0</property>
  <property name="mlt_service">avformat-novalidate</property>
  <property name="seekable">1</property>
  <property name="aspect_ratio">1</property>
  <property name="kdenlive:clipname"/>
  <property name="kdenlive:folderid">-1</property>
  <property name="kdenlive:id">40</property>
  <property name="kdenlive:file_size">53975276</property>
  <property name="kdenlive:file_hash">ec25c6dc475b81bfec7ad9838386b2f1</property>
  <property name="global_feed">1</property>
  <property name="xml">was here</property>
  <property name="meta.media.nb_streams">1</property>
  <property name="meta.media.0.stream.type">video</property>
  <property name="meta.media.0.stream.frame_rate">60</property>
  <property name="meta.media.0.stream.sample_aspect_ratio">0</property>
  <property name="meta.media.0.codec.width">1920</property>
  <property name="meta.media.0.codec.height">1080</property>
  <property name="meta.media.0.codec.rotate">0</property>
  <property name="meta.media.0.codec.frame_rate">15360</property>
  <property name="meta.media.0.codec.pix_fmt">argb</property>
  <property name="meta.media.0.codec.sample_aspect_ratio">0</property>
  <property name="meta.media.0.codec.colorspace">709</property>
  <property name="meta.media.0.codec.name">qtrle</property>
  <property name="meta.media.0.codec.long_name">QuickTime Animation (RLE) video</property>
  <property name="meta.media.0.codec.bit_rate">10278647</property>
  <property name="meta.attr.0.stream.handler_name.markup">VideoHandler</property>
  <property name="meta.attr.0.stream.encoder.markup">Lavc58.134.100 qtrle</property>
  <property name="meta.attr.major_brand.markup">qt  </property>
  <property name="meta.attr.minor_version.markup">512</property>
  <property name="meta.attr.compatible_brands.markup">qt  </property>
  <property name="meta.attr.encoder.markup">Lavf58.76.100</property>
  <property name="meta.attr.comment.markup">Rendered with Manim Community v0.11.0</property>
  <property name="meta.media.sample_aspect_num">1</property>
  <property name="meta.media.sample_aspect_den">1</property>
  <property name="meta.media.frame_rate_num">60</property>
  <property name="meta.media.frame_rate_den">1</property>
  <property name="meta.media.colorspace">709</property>
  <property name="meta.media.color_trc">2</property>
  <property name="meta.media.width">1920</property>
  <property name="meta.media.height">1080</property>
  <property name="meta.media.color_range">mpeg</property>
  <property name="meta.media.top_field_first">0</property>
  <property name="meta.media.progressive">1</property>
  <property name="set.test_audio">1</property>
  <property name="set.test_image">0</property>
 </producer>
 <playlist autoclose="1" id="playlist40">
  <blank length="00:11:22.720"/>
  <entry producer="producer28" in="00:00:00.000" out="00:00:49.400">
   <property name="kdenlive:id">33</property>
   <filter id="filter142">
    <property name="rotate_center">1</property>
    <property name="mlt_service">qtblend</property>
    <property name="kdenlive_id">qtblend</property>
    <property name="rect">00:00:00.000=460 335 722 424 1;00:00:47.200=460 335 722 424 1;00:00:49.400=460 335 722 423 0</property>
    <property name="rotation">00:00:00.000=0;00:00:47.200=0;00:00:49.400=0</property>
    <property name="compositing">0</property>
    <property name="distort">0</property>
    <property name="kdenlive:collapsed">1</property>
   </filter>
  </entry>
  <blank length="00:02:37.200"/>
  <entry producer="producer40" in="00:00:00.000" out="00:00:12.600">
   <property name="kdenlive:id">37</property>
   <property name="kdenlive:activeeffect">0</property>
   <filter id="filter64">
    <property name="rotate_center">1</property>
    <property name="mlt_service">qtblend</property>
    <property name="kdenlive_id">qtblend</property>
    <property name="rect">00:00:00.000=-90 304 768 432 1</property>
    <property name="rotation">00:00:00.000=0</property>
    <property name="compositing">0</property>
    <property name="distort">0</property>
    <property name="kdenlive:collapsed">0</property>
   </filter>
  </entry>
  <blank length="00:00:43.440"/>
  <entry producer="producer40" in="00:00:00.000" out="00:00:17.800">
   <property name="kdenlive:id">37</property>
   <property name="kdenlive:activeeffect">0</property>
   <filter id="filter65">
    <property name="rotate_center">1</property>
    <property name="mlt_service">qtblend</property>
    <property name="kdenlive_id">qtblend</property>
    <property name="rect">00:00:00.000=-90 304 768 432 1</property>
    <property name="rotation">00:00:00.000=0</property>
    <property name="compositing">0</property>
    <property name="distort">0</property>
    <property name="kdenlive:collapsed">1</property>
   </filter>
  </entry>
  <blank length="00:01:00.160"/>
  <entry producer="producer40" in="00:00:00.000" out="00:00:36.560">
   <property name="kdenlive:id">37</property>
   <property name="kdenlive:activeeffect">1</property>
   <filter id="filter66">
    <property name="rotate_center">1</property>
    <property name="mlt_service">qtblend</property>
    <property name="kdenlive_id">qtblend</property>
    <property name="rect">0=-90 304 768 432 1</property>
    <property name="rotation">00:00:00.000=0</property>
    <property name="compositing">0</property>
    <property name="distort">0</property>
    <property name="kdenlive:collapsed">1</property>
   </filter>
   <filter id="filter67">
    <property name="smooth">00:00:00.000=0.002</property>
    <property name="radius">00:00:00.000=0.014</property>
    <property name="x">00:00:00.000=0.217</property>
    <property name="y">00:00:00.000=0.576</property>
    <property name="opacity">00:00:00.000=0.636</property>
    <property name="mode">0</property>
    <property name="mlt_service">vignette</property>
    <property name="kdenlive_id">vignette</property>
    <property name="kdenlive:collapsed">0</property>
   </filter>
   <filter id="filter68" in="00:00:34.600" out="00:00:36.600">
    <property name="start">1</property>
    <property name="mlt_service">brightness</property>
    <property name="kdenlive_id">fade_to_black</property>
    <property name="end">0</property>
    <property name="alpha">-1</property>
    <property name="kdenlive:collapsed">0</property>
   </filter>
  </entry>
  <blank length="00:02:52.480"/>
  <entry producer="producer69" in="00:00:00.000" out="00:00:45.200">
   <property name="kdenlive:id">71</property>
   <filter id="filter69">
    <property name="rotate_center">1</property>
    <property name="mlt_service">qtblend</property>
    <property name="kdenlive_id">qtblend</property>
    <property name="rect">00:00:00.000=-190 -10 1728 972 1</property>
    <property name="rotation">00:00:00.000=0</property>
    <property name="compositing">0</property>
    <property name="distort">0</property>
    <property name="kdenlive:collapsed">1</property>
   </filter>
  </entry>
  <entry producer="producer92" in="00:00:06.720" out="00:00:21.800">
   <property name="kdenlive:id">40</property>
   <filter id="filter147">
    <property name="rotate_center">1</property>
    <property name="mlt_service">qtblend</property>
    <property name="kdenlive_id">qtblend</property>
    <property name="rect">00:00:06.720=-190 -10 1728 972 1</property>
    <property name="rotation">00:00:06.720=0</property>
    <property name="compositing">0</property>
    <property name="distort">0</property>
    <property name="kdenlive:collapsed">1</property>
    <property name="disable">0</property>
   </filter>
  </entry>
  <blank length="00:00:14.640"/>
  <entry producer="producer70" in="00:00:00.000" out="00:00:45.240">
   <property name="kdenlive:id">72</property>
   <filter id="filter70">
    <property name="rotate_center">1</property>
    <property name="mlt_service">qtblend</property>
    <property name="kdenlive_id">qtblend</property>
    <property name="rect">00:00:00.000=-190 -10 1728 972 1</property>
    <property name="rotation">00:00:00.000=0</property>
    <property name="compositing">0</property>
    <property name="distort">0</property>
    <property name="kdenlive:collapsed">1</property>
   </filter>
   <filter id="filter71" in="00:00:43.240" out="00:00:45.240">
    <property name="start">1</property>
    <property name="mlt_service">brightness</property>
    <property name="kdenlive_id">fade_to_black</property>
    <property name="end">0</property>
    <property name="alpha">-1</property>
   </filter>
  </entry>
  <entry producer="producer33" in="00:00:00.000" out="00:00:28.960">
   <property name="kdenlive:id">41</property>
   <filter id="filter153">
    <property name="rotate_center">1</property>
    <property name="mlt_service">qtblend</property>
    <property name="kdenlive_id">qtblend</property>
    <property name="rect">00:00:00.000=401 155 960 540 1</property>
    <property name="rotation">00:00:00.000=0</property>
    <property name="compositing">0</property>
    <property name="distort">0</property>
    <property name="kdenlive:collapsed">0</property>
   </filter>
   <filter id="filter154" out="00:00:02.000">
    <property name="start">0</property>
    <property name="mlt_service">brightness</property>
    <property name="kdenlive_id">fade_from_black</property>
    <property name="end">1</property>
    <property name="alpha">-1</property>
    <property name="kdenlive:collapsed">0</property>
   </filter>
  </entry>
  <filter id="filter155" out="00:23:48.920">
   <property name="version">0.2</property>
   <property name="mlt_service">frei0r.c0rners</property>
   <property name="kdenlive_id">frei0r.c0rners</property>
   <property name="0">00:00:00.000=0.333333</property>
   <property name="1">00:00:00.000=0.3</property>
   <property name="2">00:00:00.000=0.666667</property>
   <property name="3">00:00:00.000=0.333333</property>
   <property name="4">00:00:00.000=0.666667</property>
   <property name="5">00:00:00.000=0.666667</property>
   <property name="6">00:00:00.000=0.331667</property>
   <property name="7">00:00:00.000=0.698167</property>
   <property name="9">00:00:00.000=0.5</property>
   <property name="10">00:00:00.000=0.5</property>
   <property name="13">00:00:00.000=0.05</property>
   <property name="8">0</property>
   <property name="11">0.166</property>
   <property name="12">1</property>
   <property name="14">0.5</property>
   <property name="kdenlive:collapsed">1</property>
   <property name="disable">0</property>
  </filter>
 </playlist>
 <playlist autoclose="1" id="playlist41"/>
 <tractor id="tractor20" in="00:00:00.000" out="00:23:01.760">
  <property name="kdenlive:trackheight">69</property>
  <property name="kdenlive:collapsed">43</property>
  <property name="kdenlive:track_name">UnderLuca</property>
  <property name="kdenlive:thumbs_format"/>
  <property name="kdenlive:audio_rec"/>
  <property name="kdenlive:timeline_active">1</property>
  <property name="kdenlive:locked_track">1</property>
  <track hide="audio" producer="playlist40"/>
  <track hide="audio" producer="playlist41"/>
 </tractor>
 <producer id="producer93" in="00:00:00.000" out="01:04:45.560">
  <property name="length">97140</property>
  <property name="eof">pause</property>
  <property name="resource">C-2-2.mp4</property>
  <property name="audio_index">1</property>
  <property name="video_index">0</property>
  <property name="mute_on_pause">0</property>
  <property name="mlt_service">avformat-novalidate</property>
  <property name="seekable">1</property>
  <property name="aspect_ratio">1</property>
  <property name="kdenlive:clipname"/>
  <property name="kdenlive:folderid">-1</property>
  <property name="kdenlive:id">6</property>
  <property name="kdenlive:file_size">27961003343</property>
  <property name="kdenlive:file_hash">653718a5ec56bf95b96ddb29369ba5f8</property>
  <property name="global_feed">1</property>
  <property name="xml">was here</property>
  <property name="meta.media.nb_streams">3</property>
  <property name="meta.media.0.stream.type">video</property>
  <property name="meta.media.0.stream.frame_rate">25</property>
  <property name="meta.media.0.stream.sample_aspect_ratio">0</property>
  <property name="meta.media.0.codec.width">3840</property>
  <property name="meta.media.0.codec.height">2160</property>
  <property name="meta.media.0.codec.rotate">0</property>
  <property name="meta.media.0.codec.frame_rate">25</property>
  <property name="meta.media.0.codec.pix_fmt">yuv420p</property>
  <property name="meta.media.0.codec.sample_aspect_ratio">1</property>
  <property name="meta.media.0.codec.colorspace">709</property>
  <property name="meta.media.0.codec.color_trc">11</property>
  <property name="meta.media.0.codec.name">h264</property>
  <property name="meta.media.0.codec.long_name">H.264 / AVC / MPEG-4 AVC / MPEG-4 part 10</property>
  <property name="meta.media.0.codec.bit_rate">55825357</property>
  <property name="meta.attr.0.stream.creation_time.markup">2021-10-08T10:01:39.000000Z</property>
  <property name="meta.attr.0.stream.handler_name.markup">Video Media Handler</property>
  <property name="meta.attr.0.stream.encoder.markup">AVC Coding</property>
  <property name="meta.media.1.stream.type">audio</property>
  <property name="meta.media.1.codec.sample_fmt">s16</property>
  <property name="meta.media.1.codec.sample_rate">48000</property>
  <property name="meta.media.1.codec.channels">2</property>
  <property name="meta.media.1.codec.name">pcm_s16be</property>
  <property name="meta.media.1.codec.long_name">PCM signed 16-bit big-endian</property>
  <property name="meta.media.1.codec.bit_rate">1536000</property>
  <property name="meta.attr.1.stream.creation_time.markup">2021-10-08T10:01:39.000000Z</property>
  <property name="meta.attr.1.stream.handler_name.markup">Sound Media Handler</property>
  <property name="meta.attr.major_brand.markup">XAVC</property>
  <property name="meta.attr.minor_version.markup">16785407</property>
  <property name="meta.attr.compatible_brands.markup">XAVCmp42iso2</property>
  <property name="meta.attr.creation_time.markup">2021-10-08T10:01:39.000000Z</property>
  <property name="meta.media.sample_aspect_num">1</property>
  <property name="meta.media.sample_aspect_den">1</property>
  <property name="meta.media.frame_rate_num">25</property>
  <property name="meta.media.frame_rate_den">1</property>
  <property name="meta.media.colorspace">709</property>
  <property name="meta.media.color_trc">11</property>
  <property name="meta.media.width">3840</property>
  <property name="meta.media.height">2160</property>
  <property name="meta.media.color_range">mpeg</property>
  <property name="meta.media.top_field_first">0</property>
  <property name="meta.media.progressive">1</property>
  <property name="set.test_audio">1</property>
  <property name="set.test_image">0</property>
 </producer>
 <playlist autoclose="1" id="playlist42">
  <blank length="00:14:00.440"/>
  <entry producer="producer93" in="00:28:54.560" out="00:29:43.440">
   <property name="kdenlive:id">6</property>
   <property name="kdenlive:activeeffect">0</property>
   <filter id="filter72">
    <property name="version">0.6</property>
    <property name="mlt_service">frei0r.select0r</property>
    <property name="kdenlive_id">frei0r.select0r</property>
    <property name="Color to select">0x1d66a7ff</property>
    <property name="Invert selection">1</property>
    <property name="Selection subspace">0.5</property>
    <property name="Subspace shape">0.5</property>
    <property name="Edge mode">0.9</property>
    <property name="Delta R / A / Hue">00:28:54.560=0.2</property>
    <property name="Delta G / B / Chroma">00:28:54.560=0.2</property>
    <property name="Delta B / I / I">00:28:54.560=0.2</property>
    <property name="Slope">00:28:54.560=0.191</property>
    <property name="Operation">0.5</property>
    <property name="kdenlive:collapsed">1</property>
   </filter>
  </entry>
  <blank length="00:00:12.640"/>
  <entry producer="producer93" in="00:29:57.760" out="00:30:41.160">
   <property name="kdenlive:id">6</property>
   <property name="kdenlive:activeeffect">0</property>
   <filter id="filter73">
    <property name="version">0.6</property>
    <property name="mlt_service">frei0r.select0r</property>
    <property name="kdenlive_id">frei0r.select0r</property>
    <property name="Color to select">0x1d66a7ff</property>
    <property name="Invert selection">1</property>
    <property name="Selection subspace">0.5</property>
    <property name="Subspace shape">0.5</property>
    <property name="Edge mode">0.9</property>
    <property name="Delta R / A / Hue">00:29:57.760=0.2</property>
    <property name="Delta G / B / Chroma">00:29:57.760=0.2</property>
    <property name="Delta B / I / I">00:29:57.760=0.2</property>
    <property name="Slope">00:29:57.760=0.191</property>
    <property name="Operation">0.5</property>
    <property name="kdenlive:collapsed">1</property>
   </filter>
  </entry>
  <blank length="00:00:17.840"/>
  <entry producer="producer93" in="00:33:21.800" out="00:34:21.920">
   <property name="kdenlive:id">6</property>
   <property name="kdenlive:activeeffect">0</property>
   <filter id="filter74">
    <property name="version">0.6</property>
    <property name="mlt_service">frei0r.select0r</property>
    <property name="kdenlive_id">frei0r.select0r</property>
    <property name="Color to select">0x1d66a7ff</property>
    <property name="Invert selection">1</property>
    <property name="Selection subspace">0.5</property>
    <property name="Subspace shape">0.5</property>
    <property name="Edge mode">0.9</property>
    <property name="Delta R / A / Hue">00:33:21.800=0.2</property>
    <property name="Delta G / B / Chroma">00:33:21.800=0.2</property>
    <property name="Delta B / I / I">00:33:21.800=0.2</property>
    <property name="Slope">00:33:21.800=0.191</property>
    <property name="Operation">0.5</property>
    <property name="kdenlive:collapsed">1</property>
   </filter>
  </entry>
  <blank length="00:00:41.760"/>
  <entry producer="producer93" in="00:41:22.440" out="00:42:25.280">
   <property name="kdenlive:id">6</property>
  </entry>
  <blank length="00:00:21.440"/>
  <entry producer="producer93" in="00:42:53.080" out="00:43:06.960">
   <property name="kdenlive:id">6</property>
  </entry>
  <blank length="00:00:17.280"/>
  <entry producer="producer93" in="00:58:54.800" out="00:59:46.560">
   <property name="kdenlive:id">6</property>
   <property name="kdenlive:activeeffect">0</property>
   <filter id="filter156">
    <property name="version">0.6</property>
    <property name="mlt_service">frei0r.select0r</property>
    <property name="kdenlive_id">frei0r.select0r</property>
    <property name="Color to select">0x1d66a7ff</property>
    <property name="Invert selection">1</property>
    <property name="Selection subspace">0.5</property>
    <property name="Subspace shape">0.5</property>
    <property name="Edge mode">0.9</property>
    <property name="Delta R / A / Hue">00:58:54.800=0.2</property>
    <property name="Delta G / B / Chroma">00:58:54.800=0.2</property>
    <property name="Delta B / I / I">00:58:54.800=0.2</property>
    <property name="Slope">00:58:54.800=0</property>
    <property name="Operation">0.5</property>
    <property name="kdenlive:collapsed">1</property>
   </filter>
  </entry>
  <blank length="00:01:00.360"/>
  <entry producer="producer93" in="01:00:46.960" out="01:01:01.560">
   <property name="kdenlive:id">6</property>
   <filter id="filter157">
    <property name="version">0.6</property>
    <property name="mlt_service">frei0r.select0r</property>
    <property name="kdenlive_id">frei0r.select0r</property>
    <property name="Color to select">0x1d66a7ff</property>
    <property name="Invert selection">1</property>
    <property name="Selection subspace">0.5</property>
    <property name="Subspace shape">0.5</property>
    <property name="Edge mode">0.9</property>
    <property name="Delta R / A / Hue">01:00:46.960=0.2</property>
    <property name="Delta G / B / Chroma">01:00:46.960=0.2</property>
    <property name="Delta B / I / I">01:00:46.960=0.2</property>
    <property name="Slope">01:00:46.960=0</property>
    <property name="Operation">0.5</property>
    <property name="kdenlive:collapsed">0</property>
   </filter>
  </entry>
  <blank length="00:01:14.280"/>
  <entry producer="producer93" in="01:02:15.880" out="01:02:27.080">
   <property name="kdenlive:id">6</property>
   <filter id="filter158">
    <property name="version">0.6</property>
    <property name="mlt_service">frei0r.select0r</property>
    <property name="kdenlive_id">frei0r.select0r</property>
    <property name="Color to select">0x1d66a7ff</property>
    <property name="Invert selection">1</property>
    <property name="Selection subspace">0</property>
    <property name="Subspace shape">0.5</property>
    <property name="Edge mode">0.9</property>
    <property name="Delta R / A / Hue">01:02:15.880=0.2</property>
    <property name="Delta G / B / Chroma">01:02:15.880=0.2</property>
    <property name="Delta B / I / I">01:02:15.880=0.2</property>
    <property name="Slope">01:02:15.880=0</property>
    <property name="Operation">0.5</property>
    <property name="kdenlive:collapsed">0</property>
   </filter>
  </entry>
 </playlist>
 <playlist autoclose="1" id="playlist43"/>
 <tractor id="tractor21" in="00:00:00.000" out="00:23:13.000">
  <property name="kdenlive:trackheight">69</property>
  <property name="kdenlive:collapsed">43</property>
  <property name="kdenlive:track_name">Jeff</property>
  <property name="kdenlive:thumbs_format"/>
  <property name="kdenlive:audio_rec"/>
  <property name="kdenlive:timeline_active">1</property>
  <property name="kdenlive:locked_track">1</property>
  <track hide="audio" producer="playlist42"/>
  <track hide="audio" producer="playlist43"/>
 </tractor>
 <producer id="producer94" in="00:00:00.000" out="01:04:50.360">
  <property name="length">97260</property>
  <property name="eof">pause</property>
  <property name="resource">C-2-3.mp4</property>
  <property name="audio_index">1</property>
  <property name="video_index">0</property>
  <property name="mute_on_pause">0</property>
  <property name="mlt_service">avformat-novalidate</property>
  <property name="seekable">1</property>
  <property name="aspect_ratio">1</property>
  <property name="kdenlive:clipname"/>
  <property name="kdenlive:folderid">-1</property>
  <property name="kdenlive:id">7</property>
  <property name="kdenlive:file_size">27873885674</property>
  <property name="kdenlive:file_hash">3f4533893ea8e243c4849ae598a8d5af</property>
  <property name="global_feed">1</property>
  <property name="xml">was here</property>
  <property name="meta.media.nb_streams">3</property>
  <property name="meta.media.0.stream.type">video</property>
  <property name="meta.media.0.stream.frame_rate">25</property>
  <property name="meta.media.0.stream.sample_aspect_ratio">0</property>
  <property name="meta.media.0.codec.width">3840</property>
  <property name="meta.media.0.codec.height">2160</property>
  <property name="meta.media.0.codec.rotate">0</property>
  <property name="meta.media.0.codec.frame_rate">25</property>
  <property name="meta.media.0.codec.pix_fmt">yuv420p</property>
  <property name="meta.media.0.codec.sample_aspect_ratio">1</property>
  <property name="meta.media.0.codec.colorspace">709</property>
  <property name="meta.media.0.codec.color_trc">11</property>
  <property name="meta.media.0.codec.name">h264</property>
  <property name="meta.media.0.codec.long_name">H.264 / AVC / MPEG-4 AVC / MPEG-4 part 10</property>
  <property name="meta.media.0.codec.bit_rate">55575185</property>
  <property name="meta.attr.0.stream.creation_time.markup">2021-10-08T08:57:16.000000Z</property>
  <property name="meta.attr.0.stream.handler_name.markup">Video Media Handler</property>
  <property name="meta.attr.0.stream.encoder.markup">AVC Coding</property>
  <property name="meta.media.1.stream.type">audio</property>
  <property name="meta.media.1.codec.sample_fmt">s16</property>
  <property name="meta.media.1.codec.sample_rate">48000</property>
  <property name="meta.media.1.codec.channels">2</property>
  <property name="meta.media.1.codec.name">pcm_s16be</property>
  <property name="meta.media.1.codec.long_name">PCM signed 16-bit big-endian</property>
  <property name="meta.media.1.codec.bit_rate">1536000</property>
  <property name="meta.attr.1.stream.creation_time.markup">2021-10-08T08:57:16.000000Z</property>
  <property name="meta.attr.1.stream.handler_name.markup">Sound Media Handler</property>
  <property name="meta.attr.major_brand.markup">XAVC</property>
  <property name="meta.attr.minor_version.markup">16785407</property>
  <property name="meta.attr.compatible_brands.markup">XAVCmp42iso2</property>
  <property name="meta.attr.creation_time.markup">2021-10-08T08:57:16.000000Z</property>
  <property name="meta.media.sample_aspect_num">1</property>
  <property name="meta.media.sample_aspect_den">1</property>
  <property name="meta.media.frame_rate_num">25</property>
  <property name="meta.media.frame_rate_den">1</property>
  <property name="meta.media.colorspace">709</property>
  <property name="meta.media.color_trc">11</property>
  <property name="meta.media.width">3840</property>
  <property name="meta.media.height">2160</property>
  <property name="meta.media.color_range">mpeg</property>
  <property name="meta.media.top_field_first">0</property>
  <property name="meta.media.progressive">1</property>
  <property name="set.test_audio">1</property>
  <property name="set.test_image">0</property>
 </producer>
 <playlist autoclose="1" id="playlist44">
  <blank length="00:11:22.720"/>
  <entry producer="producer94" in="00:21:31.320" out="00:24:09.000">
   <property name="kdenlive:id">7</property>
   <property name="kdenlive:activeeffect">0</property>
   <filter id="filter159">
    <property name="version">0.6</property>
    <property name="mlt_service">frei0r.select0r</property>
    <property name="kdenlive_id">frei0r.select0r</property>
    <property name="Color to select">0x416fa9ff</property>
    <property name="Invert selection">1</property>
    <property name="Selection subspace">0.5</property>
    <property name="Subspace shape">0.5</property>
    <property name="Edge mode">0.9</property>
    <property name="Delta R / A / Hue">00:21:31.320=0.2</property>
    <property name="Delta G / B / Chroma">00:21:31.320=0.2</property>
    <property name="Delta B / I / I">00:21:31.320=0.2</property>
    <property name="Slope">00:21:31.320=0.185</property>
    <property name="Operation">0.5</property>
    <property name="kdenlive:collapsed">0</property>
   </filter>
  </entry>
  <blank length="00:00:48.920"/>
  <entry producer="producer94" in="00:29:41.080" out="00:29:53.680">
   <property name="kdenlive:id">7</property>
   <property name="kdenlive:activeeffect">0</property>
   <filter id="filter75">
    <property name="version">0.6</property>
    <property name="mlt_service">frei0r.select0r</property>
    <property name="kdenlive_id">frei0r.select0r</property>
    <property name="Color to select">0x2471b1ff</property>
    <property name="Invert selection">1</property>
    <property name="Selection subspace">0.5</property>
    <property name="Subspace shape">0.5</property>
    <property name="Edge mode">0.9</property>
    <property name="Delta R / A / Hue">00:29:41.080=0.2</property>
    <property name="Delta G / B / Chroma">00:29:41.080=0.264</property>
    <property name="Delta B / I / I">00:29:41.080=0.26</property>
    <property name="Slope">00:29:41.080=0.3</property>
    <property name="Operation">0.5</property>
    <property name="kdenlive:collapsed">1</property>
   </filter>
  </entry>
  <blank length="00:00:43.440"/>
  <entry producer="producer94" in="00:31:21.160" out="00:31:38.960">
   <property name="kdenlive:id">7</property>
   <property name="kdenlive:activeeffect">0</property>
   <filter id="filter76">
    <property name="version">0.6</property>
    <property name="mlt_service">frei0r.select0r</property>
    <property name="kdenlive_id">frei0r.select0r</property>
    <property name="Color to select">0x2471b1ff</property>
    <property name="Invert selection">1</property>
    <property name="Selection subspace">0.5</property>
    <property name="Subspace shape">0.5</property>
    <property name="Edge mode">0.9</property>
    <property name="Delta R / A / Hue">00:31:17.160=0.2</property>
    <property name="Delta G / B / Chroma">00:31:17.160=0.264</property>
    <property name="Delta B / I / I">00:31:17.160=0.26</property>
    <property name="Slope">00:31:17.160=0.3</property>
    <property name="Operation">0.5</property>
    <property name="kdenlive:collapsed">1</property>
   </filter>
  </entry>
  <blank length="00:01:00.160"/>
  <entry producer="producer94" in="00:40:36.680" out="00:41:18.400">
   <property name="kdenlive:id">7</property>
   <property name="kdenlive:activeeffect">0</property>
   <filter id="filter77">
    <property name="version">0.6</property>
    <property name="mlt_service">frei0r.select0r</property>
    <property name="kdenlive_id">frei0r.select0r</property>
    <property name="Color to select">0x2471b1ff</property>
    <property name="Invert selection">1</property>
    <property name="Selection subspace">0.5</property>
    <property name="Subspace shape">0.5</property>
    <property name="Edge mode">0.9</property>
    <property name="Delta R / A / Hue">00:40:28.680=0.2</property>
    <property name="Delta G / B / Chroma">00:40:28.680=0.264</property>
    <property name="Delta B / I / I">00:40:28.680=0.26</property>
    <property name="Slope">00:40:28.680=0.3</property>
    <property name="Operation">0.5</property>
    <property name="kdenlive:collapsed">1</property>
   </filter>
  </entry>
  <blank length="00:01:02.880"/>
  <entry producer="producer94" in="00:42:27.640" out="00:42:49.040">
   <property name="kdenlive:id">7</property>
  </entry>
  <blank length="00:00:13.920"/>
  <entry producer="producer94" in="00:50:51.080" out="00:51:08.320">
   <property name="kdenlive:id">7</property>
  </entry>
  <blank length="00:00:51.800"/>
  <entry producer="producer94" in="00:59:42.600" out="01:00:42.920">
   <property name="kdenlive:id">7</property>
   <property name="kdenlive:activeeffect">0</property>
   <filter id="filter160">
    <property name="version">0.6</property>
    <property name="mlt_service">frei0r.select0r</property>
    <property name="kdenlive_id">frei0r.select0r</property>
    <property name="Color to select">0x2471b1ff</property>
    <property name="Invert selection">1</property>
    <property name="Selection subspace">0.5</property>
    <property name="Subspace shape">0.5</property>
    <property name="Edge mode">0.9</property>
    <property name="Delta R / A / Hue">00:59:42.600=0.2</property>
    <property name="Delta G / B / Chroma">00:59:42.600=0.264</property>
    <property name="Delta B / I / I">00:59:42.600=0.26</property>
    <property name="Slope">00:59:42.600=0.3</property>
    <property name="Operation">0.5</property>
    <property name="kdenlive:collapsed">0</property>
   </filter>
  </entry>
  <blank length="00:00:14.640"/>
  <entry producer="producer94" in="01:00:57.600" out="01:02:11.840">
   <property name="kdenlive:id">7</property>
   <filter id="filter161">
    <property name="version">0.6</property>
    <property name="mlt_service">frei0r.select0r</property>
    <property name="kdenlive_id">frei0r.select0r</property>
    <property name="Color to select">0x2471b1ff</property>
    <property name="Invert selection">1</property>
    <property name="Selection subspace">0.5</property>
    <property name="Subspace shape">0.5</property>
    <property name="Edge mode">0.9</property>
    <property name="Delta R / A / Hue">01:00:57.600=0.2</property>
    <property name="Delta G / B / Chroma">01:00:57.600=0.2</property>
    <property name="Delta B / I / I">01:00:57.600=0.2</property>
    <property name="Slope">01:00:57.600=0</property>
    <property name="Operation">0.5</property>
    <property name="kdenlive:collapsed">0</property>
   </filter>
  </entry>
  <blank length="00:00:11.240"/>
  <entry producer="producer94" in="01:04:03.040" out="01:04:24.280">
   <property name="kdenlive:id">7</property>
  </entry>
  <blank length="00:00:00.040"/>
  <entry producer="producer38" in="00:00:00.000" out="00:00:14.520">
   <property name="kdenlive:id">42</property>
  </entry>
 </playlist>
 <playlist autoclose="1" id="playlist45"/>
 <tractor id="tractor22" in="00:00:00.000" out="00:23:48.880">
  <property name="kdenlive:trackheight">69</property>
  <property name="kdenlive:collapsed">43</property>
  <property name="kdenlive:track_name">Luca</property>
  <property name="kdenlive:thumbs_format"/>
  <property name="kdenlive:audio_rec"/>
  <property name="kdenlive:timeline_active">1</property>
  <property name="kdenlive:locked_track">1</property>
  <track hide="audio" producer="playlist44"/>
  <track hide="audio" producer="playlist45"/>
 </tractor>
 <playlist autoclose="1" id="playlist46">
  <filter id="filter165" out="00:23:48.920">
   <property name="version">0.2</property>
   <property name="mlt_service">frei0r.c0rners</property>
   <property name="kdenlive_id">frei0r.c0rners</property>
   <property name="0">00:00:00.000=0.333333</property>
   <property name="1">00:00:00.000=0.333333</property>
   <property name="2">00:00:00.000=0.666667</property>
   <property name="3">00:00:00.000=0.28</property>
   <property name="4">00:00:00.000=0.666667</property>
   <property name="5">00:00:00.000=0.733333</property>
   <property name="6">00:00:00.000=0.333333</property>
   <property name="7">00:00:00.000=0.666667</property>
   <property name="9">00:00:00.000=0.5</property>
   <property name="10">00:00:00.000=0.5</property>
   <property name="13">00:00:00.000=0.05</property>
   <property name="8">0</property>
   <property name="11">0.166</property>
   <property name="12">1</property>
   <property name="14">0.5</property>
   <property name="kdenlive:collapsed">0</property>
  </filter>
 </playlist>
 <playlist autoclose="1" id="playlist47"/>
 <tractor id="tractor23" in="00:00:00.000">
  <property name="kdenlive:trackheight">69</property>
  <property name="kdenlive:collapsed">43</property>
  <property name="kdenlive:track_name">OverJeff</property>
  <property name="kdenlive:thumbs_format"/>
  <property name="kdenlive:audio_rec"/>
  <property name="kdenlive:timeline_active">1</property>
  <property name="kdenlive:locked_track">1</property>
  <track hide="audio" producer="playlist46"/>
  <track hide="audio" producer="playlist47"/>
 </tractor>
 <producer id="producer95" in="00:00:00.000" out="00:00:13.960">
  <property name="length">350</property>
  <property name="eof">pause</property>
  <property name="resource">media/videos/imply/1080p60/ImplyIBE.mov</property>
  <property name="audio_index">-1</property>
  <property name="video_index">0</property>
  <property name="mute_on_pause">0</property>
  <property name="mlt_service">avformat-novalidate</property>
  <property name="seekable">1</property>
  <property name="aspect_ratio">1</property>
  <property name="kdenlive:clipname"/>
  <property name="kdenlive:folderid">-1</property>
  <property name="kdenlive:id">36</property>
  <property name="kdenlive:file_size">8663262</property>
  <property name="kdenlive:file_hash">f71281bcbd8da38f61aaf8792f193deb</property>
  <property name="global_feed">1</property>
  <property name="xml">was here</property>
  <property name="meta.media.nb_streams">1</property>
  <property name="meta.media.0.stream.type">video</property>
  <property name="meta.media.0.stream.frame_rate">60</property>
  <property name="meta.media.0.stream.sample_aspect_ratio">0</property>
  <property name="meta.media.0.codec.width">1920</property>
  <property name="meta.media.0.codec.height">1080</property>
  <property name="meta.media.0.codec.rotate">0</property>
  <property name="meta.media.0.codec.frame_rate">15360</property>
  <property name="meta.media.0.codec.pix_fmt">argb</property>
  <property name="meta.media.0.codec.sample_aspect_ratio">0</property>
  <property name="meta.media.0.codec.colorspace">709</property>
  <property name="meta.media.0.codec.name">qtrle</property>
  <property name="meta.media.0.codec.long_name">QuickTime Animation (RLE) video</property>
  <property name="meta.media.0.codec.bit_rate">4947836</property>
  <property name="meta.attr.0.stream.handler_name.markup">VideoHandler</property>
  <property name="meta.attr.0.stream.encoder.markup">Lavc58.134.100 qtrle</property>
  <property name="meta.attr.major_brand.markup">qt  </property>
  <property name="meta.attr.minor_version.markup">512</property>
  <property name="meta.attr.compatible_brands.markup">qt  </property>
  <property name="meta.attr.encoder.markup">Lavf58.76.100</property>
  <property name="meta.attr.comment.markup">Rendered with Manim Community v0.11.0</property>
  <property name="meta.media.sample_aspect_num">1</property>
  <property name="meta.media.sample_aspect_den">1</property>
  <property name="meta.media.frame_rate_num">60</property>
  <property name="meta.media.frame_rate_den">1</property>
  <property name="meta.media.colorspace">709</property>
  <property name="meta.media.color_trc">2</property>
  <property name="meta.media.width">1920</property>
  <property name="meta.media.height">1080</property>
  <property name="meta.media.color_range">mpeg</property>
  <property name="meta.media.top_field_first">0</property>
  <property name="meta.media.progressive">1</property>
  <property name="set.test_audio">1</property>
  <property name="set.test_image">0</property>
 </producer>
 <producer id="producer96" in="00:00:00.000" out="00:00:18.960">
  <property name="length">475</property>
  <property name="eof">pause</property>
  <property name="resource">media/videos/sign/1080p60/Sign.mov</property>
  <property name="audio_index">-1</property>
  <property name="video_index">0</property>
  <property name="mute_on_pause">0</property>
  <property name="mlt_service">avformat-novalidate</property>
  <property name="seekable">1</property>
  <property name="aspect_ratio">1</property>
  <property name="kdenlive:clipname"/>
  <property name="kdenlive:folderid">-1</property>
  <property name="kdenlive:id">34</property>
  <property name="kdenlive:file_size">21758357</property>
  <property name="kdenlive:file_hash">ffadb0311d497dba1645dfcc3397e06b</property>
  <property name="global_feed">1</property>
  <property name="xml">was here</property>
  <property name="meta.media.nb_streams">1</property>
  <property name="meta.media.0.stream.type">video</property>
  <property name="meta.media.0.stream.frame_rate">60</property>
  <property name="meta.media.0.stream.sample_aspect_ratio">0</property>
  <property name="meta.media.0.codec.width">1920</property>
  <property name="meta.media.0.codec.height">1080</property>
  <property name="meta.media.0.codec.rotate">0</property>
  <property name="meta.media.0.codec.frame_rate">15360</property>
  <property name="meta.media.0.codec.pix_fmt">argb</property>
  <property name="meta.media.0.codec.sample_aspect_ratio">0</property>
  <property name="meta.media.0.codec.colorspace">709</property>
  <property name="meta.media.0.codec.name">qtrle</property>
  <property name="meta.media.0.codec.long_name">QuickTime Animation (RLE) video</property>
  <property name="meta.media.0.codec.bit_rate">9158887</property>
  <property name="meta.attr.0.stream.handler_name.markup">VideoHandler</property>
  <property name="meta.attr.0.stream.encoder.markup">Lavc58.134.100 qtrle</property>
  <property name="meta.attr.major_brand.markup">qt  </property>
  <property name="meta.attr.minor_version.markup">512</property>
  <property name="meta.attr.compatible_brands.markup">qt  </property>
  <property name="meta.attr.encoder.markup">Lavf58.76.100</property>
  <property name="meta.attr.comment.markup">Rendered with Manim Community v0.11.0</property>
  <property name="meta.media.sample_aspect_num">1</property>
  <property name="meta.media.sample_aspect_den">1</property>
  <property name="meta.media.frame_rate_num">60</property>
  <property name="meta.media.frame_rate_den">1</property>
  <property name="meta.media.colorspace">709</property>
  <property name="meta.media.color_trc">2</property>
  <property name="meta.media.width">1920</property>
  <property name="meta.media.height">1080</property>
  <property name="meta.media.color_range">mpeg</property>
  <property name="meta.media.top_field_first">0</property>
  <property name="meta.media.progressive">1</property>
  <property name="set.test_audio">1</property>
  <property name="set.test_image">0</property>
 </producer>
 <producer id="producer97" in="00:00:00.000" out="00:00:16.960">
  <property name="length">425</property>
  <property name="eof">pause</property>
  <property name="resource">media/videos/imply/1080p60/ImplyDE.mov</property>
  <property name="audio_index">-1</property>
  <property name="video_index">0</property>
  <property name="mute_on_pause">0</property>
  <property name="mlt_service">avformat-novalidate</property>
  <property name="seekable">1</property>
  <property name="aspect_ratio">1</property>
  <property name="kdenlive:clipname"/>
  <property name="kdenlive:folderid">-1</property>
  <property name="kdenlive:id">35</property>
  <property name="kdenlive:file_size">12983161</property>
  <property name="kdenlive:file_hash">79a2f14388acd7bced2e9f94a3b9207b</property>
  <property name="global_feed">1</property>
  <property name="xml">was here</property>
  <property name="meta.media.nb_streams">1</property>
  <property name="meta.media.0.stream.type">video</property>
  <property name="meta.media.0.stream.frame_rate">60</property>
  <property name="meta.media.0.stream.sample_aspect_ratio">0</property>
  <property name="meta.media.0.codec.width">1920</property>
  <property name="meta.media.0.codec.height">1080</property>
  <property name="meta.media.0.codec.rotate">0</property>
  <property name="meta.media.0.codec.frame_rate">15360</property>
  <property name="meta.media.0.codec.pix_fmt">argb</property>
  <property name="meta.media.0.codec.sample_aspect_ratio">0</property>
  <property name="meta.media.0.codec.colorspace">709</property>
  <property name="meta.media.0.codec.name">qtrle</property>
  <property name="meta.media.0.codec.long_name">QuickTime Animation (RLE) video</property>
  <property name="meta.media.0.codec.bit_rate">6107185</property>
  <property name="meta.attr.0.stream.handler_name.markup">VideoHandler</property>
  <property name="meta.attr.0.stream.encoder.markup">Lavc58.134.100 qtrle</property>
  <property name="meta.attr.major_brand.markup">qt  </property>
  <property name="meta.attr.minor_version.markup">512</property>
  <property name="meta.attr.compatible_brands.markup">qt  </property>
  <property name="meta.attr.encoder.markup">Lavf58.76.100</property>
  <property name="meta.attr.comment.markup">Rendered with Manim Community v0.11.0</property>
  <property name="meta.media.sample_aspect_num">1</property>
  <property name="meta.media.sample_aspect_den">1</property>
  <property name="meta.media.frame_rate_num">60</property>
  <property name="meta.media.frame_rate_den">1</property>
  <property name="meta.media.colorspace">709</property>
  <property name="meta.media.color_trc">2</property>
  <property name="meta.media.width">1920</property>
  <property name="meta.media.height">1080</property>
  <property name="meta.media.color_range">mpeg</property>
  <property name="meta.media.top_field_first">0</property>
  <property name="meta.media.progressive">1</property>
  <property name="set.test_audio">1</property>
  <property name="set.test_image">0</property>
 </producer>
 <playlist autoclose="1" id="playlist48">
  <blank length="00:12:12.520"/>
  <entry producer="producer95" in="00:00:00.000" out="00:00:08.640">
   <property name="kdenlive:id">36</property>
   <filter id="filter166" in="00:00:08.080" out="00:00:08.640">
    <property name="start">1</property>
    <property name="mlt_service">brightness</property>
    <property name="kdenlive_id">fade_to_black</property>
    <property name="end">0</property>
    <property name="alpha">-1</property>
    <property name="kdenlive:collapsed">0</property>
   </filter>
  </entry>
  <entry producer="producer96" in="00:00:00.000" out="00:00:03.000">
   <property name="kdenlive:id">34</property>
   <filter id="filter168">
    <property name="rotate_center">1</property>
    <property name="mlt_service">qtblend</property>
    <property name="kdenlive_id">qtblend</property>
    <property name="rect">00:00:00.000=187 11 1658 962 1</property>
    <property name="rotation">00:00:00.000=0</property>
    <property name="compositing">0</property>
    <property name="distort">0</property>
    <property name="kdenlive:collapsed">1</property>
   </filter>
  </entry>
  <entry producer="producer62" in="00:00:00.000" out="00:00:04.000">
   <property name="kdenlive:id">64</property>
   <filter id="filter78">
    <property name="rotate_center">1</property>
    <property name="mlt_service">qtblend</property>
    <property name="kdenlive_id">qtblend</property>
    <property name="rect">00:00:00.000=187 11 1658 962 1</property>
    <property name="rotation">00:00:00.000=0</property>
    <property name="compositing">0</property>
    <property name="distort">0</property>
    <property name="kdenlive:collapsed">1</property>
   </filter>
  </entry>
  <entry producer="producer96" in="00:00:03.000" out="00:00:04.680">
   <property name="kdenlive:id">34</property>
   <filter id="filter170">
    <property name="rotate_center">1</property>
    <property name="mlt_service">qtblend</property>
    <property name="kdenlive_id">qtblend</property>
    <property name="rect">00:00:03.000=187 11 1658 962 1</property>
    <property name="rotation">00:00:03.000=0</property>
    <property name="compositing">0</property>
    <property name="distort">0</property>
    <property name="kdenlive:collapsed">1</property>
   </filter>
  </entry>
  <entry producer="producer63" in="00:00:00.000" out="00:00:00.960">
   <property name="kdenlive:id">65</property>
   <filter id="filter79">
    <property name="rotate_center">1</property>
    <property name="mlt_service">qtblend</property>
    <property name="kdenlive_id">qtblend</property>
    <property name="rect">00:00:03.000=187 11 1658 962 1</property>
    <property name="rotation">00:00:03.000=0</property>
    <property name="compositing">0</property>
    <property name="distort">0</property>
    <property name="kdenlive:collapsed">1</property>
   </filter>
  </entry>
  <entry producer="producer96" in="00:00:05.000" out="00:00:16.800">
   <property name="kdenlive:id">34</property>
   <filter id="filter171">
    <property name="rotate_center">1</property>
    <property name="mlt_service">qtblend</property>
    <property name="kdenlive_id">qtblend</property>
    <property name="rect">00:00:05.000=187 11 1658 962 1</property>
    <property name="rotation">00:00:05.000=0</property>
    <property name="compositing">0</property>
    <property name="distort">0</property>
    <property name="kdenlive:collapsed">1</property>
   </filter>
   <filter id="filter172" in="00:00:15.160" out="00:00:16.800">
    <property name="start">1</property>
    <property name="mlt_service">brightness</property>
    <property name="kdenlive_id">fade_to_black</property>
    <property name="end">0</property>
    <property name="alpha">-1</property>
    <property name="kdenlive:collapsed">0</property>
   </filter>
  </entry>
  <entry producer="producer97" in="00:00:00.000" out="00:00:03.880">
   <property name="kdenlive:id">35</property>
  </entry>
  <entry producer="producer64" in="00:00:00.000" out="00:00:05.880">
   <property name="kdenlive:id">66</property>
  </entry>
  <entry producer="producer97" in="00:00:03.960" out="00:00:05.920">
   <property name="kdenlive:id">35</property>
  </entry>
  <entry producer="producer65" in="00:00:00.000" out="00:00:20.640">
   <property name="kdenlive:id">67</property>
  </entry>
  <entry producer="producer97" in="00:00:05.960" out="00:00:16.960">
   <property name="kdenlive:id">35</property>
  </entry>
  <entry producer="producer66" in="00:00:00.000" out="00:00:15.800">
   <property name="kdenlive:id">68</property>
   <filter id="filter136" in="00:00:12.840" out="00:00:15.800">
    <property name="start">1</property>
    <property name="mlt_service">brightness</property>
    <property name="kdenlive_id">fade_to_black</property>
    <property name="end">0</property>
    <property name="alpha">-1</property>
    <property name="kdenlive:collapsed">0</property>
   </filter>
  </entry>
  <blank length="00:09:30.800"/>
  <entry producer="producer33" in="00:00:00.000" out="00:00:21.240">
   <property name="kdenlive:id">41</property>
   <filter id="filter178">
    <property name="rotate_center">1</property>
    <property name="mlt_service">qtblend</property>
    <property name="kdenlive_id">qtblend</property>
    <property name="rect">00:00:00.000=401 155 960 540 1</property>
    <property name="rotation">00:00:00.000=0</property>
    <property name="compositing">0</property>
    <property name="distort">0</property>
    <property name="kdenlive:collapsed">1</property>
   </filter>
  </entry>
  <filter id="filter179" out="00:23:48.920">
   <property name="version">0.2</property>
   <property name="mlt_service">frei0r.c0rners</property>
   <property name="kdenlive_id">frei0r.c0rners</property>
   <property name="0">00:00:00.000=0.333333</property>
   <property name="1">00:00:00.000=0.3</property>
   <property name="2">00:00:00.000=0.666667</property>
   <property name="3">00:00:00.000=0.333333</property>
   <property name="4">00:00:00.000=0.666667</property>
   <property name="5">00:00:00.000=0.666667</property>
   <property name="6">00:00:00.000=0.331667</property>
   <property name="7">00:00:00.000=0.698333</property>
   <property name="9">00:00:00.000=0.5</property>
   <property name="10">00:00:00.000=0.5</property>
   <property name="13">00:00:00.000=0.05</property>
   <property name="8">0</property>
   <property name="11">0.166</property>
   <property name="12">1</property>
   <property name="14">0.5</property>
   <property name="kdenlive:collapsed">0</property>
  </filter>
 </playlist>
 <playlist autoclose="1" id="playlist49"/>
 <tractor id="tractor24" in="00:00:00.000" out="00:23:34.280">
  <property name="kdenlive:trackheight">69</property>
  <property name="kdenlive:collapsed">43</property>
  <property name="kdenlive:track_name">Over Luca</property>
  <property name="kdenlive:thumbs_format"/>
  <property name="kdenlive:audio_rec"/>
  <property name="kdenlive:timeline_active">1</property>
  <property name="kdenlive:locked_track">1</property>
  <track hide="audio" producer="playlist48"/>
  <track hide="audio" producer="playlist49"/>
 </tractor>
 <producer id="producer98" in="00:00:00.000" out="01:18:22.520">
  <property name="length">117564</property>
  <property name="eof">pause</property>
  <property name="resource">C0002.MP4</property>
  <property name="audio_index">1</property>
  <property name="video_index">0</property>
  <property name="mute_on_pause">0</property>
  <property name="mlt_service">avformat-novalidate</property>
  <property name="seekable">1</property>
  <property name="aspect_ratio">1</property>
  <property name="kdenlive:clipname"/>
  <property name="kdenlive:folderid">-1</property>
  <property name="kdenlive:id">3</property>
  <property name="kdenlive:file_size">33349940699</property>
  <property name="kdenlive:file_hash">ba0937037b10f657b22f23a49c7604ce</property>
  <property name="global_feed">1</property>
  <property name="xml">was here</property>
  <property name="meta.media.nb_streams">3</property>
  <property name="meta.media.0.stream.type">video</property>
  <property name="meta.media.0.stream.frame_rate">25</property>
  <property name="meta.media.0.stream.sample_aspect_ratio">0</property>
  <property name="meta.media.0.codec.width">3840</property>
  <property name="meta.media.0.codec.height">2160</property>
  <property name="meta.media.0.codec.rotate">0</property>
  <property name="meta.media.0.codec.frame_rate">25</property>
  <property name="meta.media.0.codec.pix_fmt">yuv420p</property>
  <property name="meta.media.0.codec.sample_aspect_ratio">1</property>
  <property name="meta.media.0.codec.colorspace">709</property>
  <property name="meta.media.0.codec.color_trc">11</property>
  <property name="meta.media.0.codec.name">h264</property>
  <property name="meta.media.0.codec.long_name">H.264 / AVC / MPEG-4 AVC / MPEG-4 part 10</property>
  <property name="meta.media.0.codec.bit_rate">54991848</property>
  <property name="meta.attr.0.stream.creation_time.markup">2021-10-07T14:55:19.000000Z</property>
  <property name="meta.attr.0.stream.handler_name.markup">Video Media Handler</property>
  <property name="meta.attr.0.stream.encoder.markup">AVC Coding</property>
  <property name="meta.media.1.stream.type">audio</property>
  <property name="meta.media.1.codec.sample_fmt">s16</property>
  <property name="meta.media.1.codec.sample_rate">48000</property>
  <property name="meta.media.1.codec.channels">2</property>
  <property name="meta.media.1.codec.name">pcm_s16be</property>
  <property name="meta.media.1.codec.long_name">PCM signed 16-bit big-endian</property>
  <property name="meta.media.1.codec.bit_rate">1536000</property>
  <property name="meta.attr.1.stream.creation_time.markup">2021-10-07T14:55:19.000000Z</property>
  <property name="meta.attr.1.stream.handler_name.markup">Sound Media Handler</property>
  <property name="meta.attr.major_brand.markup">XAVC</property>
  <property name="meta.attr.minor_version.markup">16785407</property>
  <property name="meta.attr.compatible_brands.markup">XAVCmp42iso2</property>
  <property name="meta.attr.creation_time.markup">2021-10-07T14:55:19.000000Z</property>
  <property name="meta.media.sample_aspect_num">1</property>
  <property name="meta.media.sample_aspect_den">1</property>
  <property name="meta.media.frame_rate_num">25</property>
  <property name="meta.media.frame_rate_den">1</property>
  <property name="meta.media.colorspace">709</property>
  <property name="meta.media.color_trc">11</property>
  <property name="meta.media.width">3840</property>
  <property name="meta.media.height">2160</property>
  <property name="meta.media.color_range">mpeg</property>
  <property name="set.test_audio">1</property>
  <property name="set.test_image">0</property>
 </producer>
 <playlist autoclose="1" id="playlist50">
  <blank length="00:03:08.560"/>
  <entry producer="producer98" in="00:11:24.240" out="00:13:03.720">
   <property name="kdenlive:id">3</property>
   <filter id="filter180">
    <property name="version">0.2</property>
    <property name="mlt_service">frei0r.alphagrad</property>
    <property name="kdenlive_id">frei0r.alphagrad</property>
    <property name="Position">00:11:24.240=0.664;00:12:51.760=0.664;00:12:54.120=0.224</property>
    <property name="Transition width">00:11:24.240=0.022;00:12:51.760=0.022;00:12:54.120=0.022</property>
    <property name="Tilt">00:11:24.240=1;00:12:51.760=1;00:12:54.120=1</property>
    <property name="Min">00:11:24.240=0;00:12:51.760=0;00:12:54.120=0</property>
    <property name="Max">00:11:24.240=1;00:12:51.760=1;00:12:54.120=1</property>
    <property name="Operation">0.5</property>
    <property name="kdenlive:collapsed">0</property>
    <property name="disable">0</property>
   </filter>
  </entry>
  <entry producer="producer98" in="00:34:42.480" out="00:37:30.000">
   <property name="kdenlive:id">3</property>
   <filter id="filter181">
    <property name="version">0.2</property>
    <property name="mlt_service">frei0r.alphagrad</property>
    <property name="kdenlive_id">frei0r.alphagrad</property>
    <property name="Position">00:34:42.480=0.224;00:34:44.480=0.664;00:35:12.760=0.664;00:35:14.760=0.224;00:35:27.840=0.224;00:35:29.840=0.664;00:37:13.080=0.664;00:37:14.080=0.224</property>
    <property name="Transition width">00:34:42.480=0.022;00:34:44.480=0.022;00:35:12.760=0.022;00:35:14.760=0.022;00:35:27.840=0.022;00:35:29.840=0.022;00:37:13.080=0.022;00:37:14.080=0.022</property>
    <property name="Tilt">00:34:42.480=1;00:34:44.480=1;00:35:12.760=1;00:35:14.760=1;00:35:27.840=1;00:35:29.840=1;00:37:13.080=1;00:37:14.080=1</property>
    <property name="Min">00:34:42.480=0;00:34:44.480=0;00:35:12.760=0;00:35:14.760=0;00:35:27.840=0;00:35:29.840=0;00:37:13.080=0;00:37:14.080=0</property>
    <property name="Max">00:34:42.480=1;00:34:44.480=1;00:35:12.760=1;00:35:14.760=1;00:35:27.840=1;00:35:29.840=1;00:37:13.080=1;00:37:14.080=1</property>
    <property name="Operation">0.5</property>
    <property name="kdenlive:collapsed">0</property>
   </filter>
  </entry>
  <entry producer="producer98" in="01:13:12.760" out="01:16:59.800">
   <property name="kdenlive:id">3</property>
   <filter id="filter182">
    <property name="version">0.2</property>
    <property name="mlt_service">frei0r.alphagrad</property>
    <property name="kdenlive_id">frei0r.alphagrad</property>
    <property name="Position">01:13:12.760=0.224;01:15:02.120=0.224;01:15:03.160=0.664</property>
    <property name="Transition width">01:13:12.760=0.022;01:15:02.120=0.022;01:15:03.160=0.022</property>
    <property name="Tilt">01:13:12.760=1;01:15:02.120=1;01:15:03.160=1</property>
    <property name="Min">01:13:12.760=0;01:15:02.120=0;01:15:03.160=0</property>
    <property name="Max">01:13:12.760=1;01:15:02.120=1;01:15:03.160=1</property>
    <property name="Operation">0.5</property>
    <property name="kdenlive:collapsed">0</property>
   </filter>
  </entry>
  <filter id="filter183" out="00:23:48.320">
   <property name="version">0.2</property>
   <property name="mlt_service">frei0r.alphagrad</property>
   <property name="kdenlive_id">frei0r.alphagrad</property>
   <property name="Position">00:00:00.000=0.516</property>
   <property name="Transition width">00:00:00.000=0</property>
   <property name="Tilt">00:00:00.000=1</property>
   <property name="Min">00:00:00.000=0</property>
   <property name="Max">00:00:00.000=1</property>
   <property name="Operation">0.5</property>
   <property name="kdenlive:collapsed">1</property>
   <property name="disable">0</property>
  </filter>
  <filter id="filter184" out="00:23:48.320">
   <property name="version">0.6</property>
   <property name="mlt_service">frei0r.select0r</property>
   <property name="kdenlive_id">frei0r.select0r</property>
   <property name="Color to select">0x2e7dc5ff</property>
   <property name="Invert selection">1</property>
   <property name="Selection subspace">0.5</property>
   <property name="Subspace shape">0.5</property>
   <property name="Edge mode">0.9</property>
   <property name="Delta R / A / Hue">00:00:00.000=0.2</property>
   <property name="Delta G / B / Chroma">00:00:00.000=0.28</property>
   <property name="Delta B / I / I">00:00:00.000=0.274</property>
   <property name="Slope">00:00:00.000=1</property>
   <property name="Operation">0.5</property>
   <property name="kdenlive:collapsed">1</property>
   <property name="disable">0</property>
  </filter>
 </playlist>
 <playlist autoclose="1" id="playlist51"/>
 <tractor id="tractor25" in="00:00:00.000" out="00:11:22.680">
  <property name="kdenlive:trackheight">69</property>
  <property name="kdenlive:collapsed">43</property>
  <property name="kdenlive:thumbs_format"/>
  <property name="kdenlive:audio_rec"/>
  <property name="kdenlive:timeline_active">1</property>
  <property name="kdenlive:locked_track">1</property>
  <track hide="audio" producer="playlist50"/>
  <track hide="audio" producer="playlist51"/>
 </tractor>
 <producer id="producer99" in="00:00:00.000" out="00:32:19.640">
  <property name="length">48492</property>
  <property name="eof">pause</property>
  <property name="resource">C-2-1.mp4</property>
  <property name="audio_index">1</property>
  <property name="video_index">0</property>
  <property name="mute_on_pause">0</property>
  <property name="mlt_service">avformat-novalidate</property>
  <property name="seekable">1</property>
  <property name="aspect_ratio">1</property>
  <property name="kdenlive:clipname"/>
  <property name="kdenlive:folderid">-1</property>
  <property name="kdenlive:id">5</property>
  <property name="kdenlive:file_size">13498438565</property>
  <property name="kdenlive:file_hash">8cda79d4c47072d0071e105c7ec2fad9</property>
  <property name="global_feed">1</property>
  <property name="xml">was here</property>
  <property name="meta.media.nb_streams">3</property>
  <property name="meta.media.0.stream.type">video</property>
  <property name="meta.media.0.stream.frame_rate">25</property>
  <property name="meta.media.0.stream.sample_aspect_ratio">0</property>
  <property name="meta.media.0.codec.width">3840</property>
  <property name="meta.media.0.codec.height">2160</property>
  <property name="meta.media.0.codec.rotate">0</property>
  <property name="meta.media.0.codec.frame_rate">25</property>
  <property name="meta.media.0.codec.pix_fmt">yuv420p</property>
  <property name="meta.media.0.codec.sample_aspect_ratio">1</property>
  <property name="meta.media.0.codec.colorspace">709</property>
  <property name="meta.media.0.codec.color_trc">11</property>
  <property name="meta.media.0.codec.name">h264</property>
  <property name="meta.media.0.codec.long_name">H.264 / AVC / MPEG-4 AVC / MPEG-4 part 10</property>
  <property name="meta.media.0.codec.bit_rate">53929733</property>
  <property name="meta.attr.0.stream.creation_time.markup">2021-10-08T09:00:57.000000Z</property>
  <property name="meta.attr.0.stream.handler_name.markup">Video Media Handler</property>
  <property name="meta.attr.0.stream.encoder.markup">AVC Coding</property>
  <property name="meta.media.1.stream.type">audio</property>
  <property name="meta.media.1.codec.sample_fmt">s16</property>
  <property name="meta.media.1.codec.sample_rate">48000</property>
  <property name="meta.media.1.codec.channels">2</property>
  <property name="meta.media.1.codec.name">pcm_s16be</property>
  <property name="meta.media.1.codec.long_name">PCM signed 16-bit big-endian</property>
  <property name="meta.media.1.codec.bit_rate">1536000</property>
  <property name="meta.attr.1.stream.creation_time.markup">2021-10-08T09:00:57.000000Z</property>
  <property name="meta.attr.1.stream.handler_name.markup">Sound Media Handler</property>
  <property name="meta.attr.major_brand.markup">XAVC</property>
  <property name="meta.attr.minor_version.markup">16785407</property>
  <property name="meta.attr.compatible_brands.markup">XAVCmp42iso2</property>
  <property name="meta.attr.creation_time.markup">2021-10-08T09:00:57.000000Z</property>
  <property name="meta.media.sample_aspect_num">1</property>
  <property name="meta.media.sample_aspect_den">1</property>
  <property name="meta.media.frame_rate_num">25</property>
  <property name="meta.media.frame_rate_den">1</property>
  <property name="meta.media.colorspace">709</property>
  <property name="meta.media.color_trc">11</property>
  <property name="meta.media.width">3840</property>
  <property name="meta.media.height">2160</property>
  <property name="meta.media.color_range">mpeg</property>
  <property name="meta.media.top_field_first">0</property>
  <property name="meta.media.progressive">1</property>
  <property name="set.test_audio">1</property>
  <property name="set.test_image">0</property>
 </producer>
 <playlist autoclose="1" id="playlist52">
  <blank length="00:00:14.360"/>
  <entry producer="producer99" in="00:08:09.200" out="00:08:28.480">
   <property name="kdenlive:id">5</property>
   <filter id="filter185">
    <property name="rotate_center">1</property>
    <property name="mlt_service">qtblend</property>
    <property name="kdenlive_id">qtblend</property>
    <property name="rect">00:08:09.200=480 540 960 540 1;00:08:14.200=0 0 1920 1080 1</property>
    <property name="rotation">00:08:09.200=0;00:08:14.200=0</property>
    <property name="compositing">0</property>
    <property name="distort">0</property>
    <property name="kdenlive:collapsed">0</property>
   </filter>
  </entry>
  <entry producer="producer99" in="00:11:39.120" out="00:12:10.000">
   <property name="kdenlive:id">5</property>
  </entry>
  <blank length="00:00:00.520"/>
  <entry producer="producer99" in="00:21:02.160" out="00:21:23.400">
   <property name="kdenlive:id">5</property>
  </entry>
  <entry producer="producer99" in="00:23:00.200" out="00:23:15.040">
   <property name="kdenlive:id">5</property>
  </entry>
  <blank length="00:00:00.120"/>
  <entry producer="producer99" in="00:23:15.080" out="00:23:26.880">
   <property name="kdenlive:id">5</property>
  </entry>
  <blank length="00:00:03.680"/>
  <entry producer="producer99" in="00:29:01.120" out="00:29:17.360">
   <property name="kdenlive:id">5</property>
  </entry>
  <entry producer="producer99" in="00:26:17.120" out="00:26:29.920">
   <property name="kdenlive:id">5</property>
  </entry>
  <blank length="00:00:01.080"/>
  <entry producer="producer99" in="00:31:05.160" out="00:31:18.720">
   <property name="kdenlive:id">5</property>
  </entry>
  <blank length="00:00:00.520"/>
  <entry producer="producer99" in="00:31:18.760" out="00:31:33.280">
   <property name="kdenlive:id">5</property>
  </entry>
  <filter id="filter186" out="00:55:19.000">
   <property name="version">0.6</property>
   <property name="mlt_service">frei0r.select0r</property>
   <property name="kdenlive_id">frei0r.select0r</property>
   <property name="Color to select">0x39639bff</property>
   <property name="Invert selection">1</property>
   <property name="Selection subspace">0.5</property>
   <property name="Subspace shape">0.5</property>
   <property name="Edge mode">0.9</property>
   <property name="Delta R / A / Hue">00:00:00.000=0.2</property>
   <property name="Delta G / B / Chroma">00:00:00.000=0.25</property>
   <property name="Delta B / I / I">00:00:00.000=0.228</property>
   <property name="Slope">00:00:00.000=0.312</property>
   <property name="Operation">0.5</property>
   <property name="kdenlive:collapsed">1</property>
   <property name="disable">0</property>
  </filter>
 </playlist>
 <playlist autoclose="1" id="playlist53"/>
 <tractor id="tractor26" in="00:00:00.000" out="00:02:55.760">
  <property name="kdenlive:trackheight">69</property>
  <property name="kdenlive:collapsed">43</property>
  <property name="kdenlive:thumbs_format"/>
  <property name="kdenlive:audio_rec"/>
  <property name="kdenlive:timeline_active">1</property>
  <property name="kdenlive:locked_track">1</property>
  <track hide="audio" producer="playlist52"/>
  <track hide="audio" producer="playlist53"/>
 </tractor>
 <playlist autoclose="1" id="playlist54">
  <blank length="00:00:26.920"/>
  <entry producer="producer27" in="00:00:00.000" out="00:00:01.640">
   <property name="kdenlive:id">32</property>
  </entry>
  <blank length="00:00:03.480"/>
  <entry producer="producer27" in="00:00:00.000" out="00:00:01.560">
   <property name="kdenlive:id">32</property>
  </entry>
  <blank length="00:00:28.680"/>
  <entry producer="producer27" in="00:00:00.000" out="00:00:03.200">
   <property name="kdenlive:id">32</property>
  </entry>
  <blank length="00:00:19.800"/>
  <entry producer="producer27" in="00:00:00.000" out="00:00:04.280">
   <property name="kdenlive:id">32</property>
  </entry>
  <blank length="00:00:05.840"/>
  <entry producer="producer27" in="00:00:00.000" out="00:00:02.240">
   <property name="kdenlive:id">32</property>
  </entry>
  <blank length="00:00:02.360"/>
  <entry producer="producer27" in="00:00:00.000" out="00:00:01.280">
   <property name="kdenlive:id">32</property>
  </entry>
  <blank length="00:00:01.800"/>
  <entry producer="producer27" in="00:00:00.000" out="00:00:04.800">
   <property name="kdenlive:id">32</property>
  </entry>
  <blank length="00:00:04.480"/>
  <entry producer="producer27" in="00:00:00.000" out="00:00:05.880">
   <property name="kdenlive:id">32</property>
  </entry>
  <blank length="00:00:08.800"/>
  <entry producer="producer27" in="00:00:00.000" out="00:00:07.800">
   <property name="kdenlive:id">32</property>
  </entry>
  <blank length="00:00:10.040"/>
  <entry producer="producer27" in="00:00:00.000" out="00:00:03.320">
   <property name="kdenlive:id">32</property>
  </entry>
  <blank length="00:00:01.840"/>
  <entry producer="producer27" in="00:00:00.000" out="00:00:06.840">
   <property name="kdenlive:id">32</property>
  </entry>
  <blank length="00:00:01.280"/>
  <entry producer="producer27" in="00:00:00.000" out="00:00:02.600">
   <property name="kdenlive:id">32</property>
  </entry>
  <blank length="00:00:01.320"/>
  <entry producer="producer27" in="00:00:00.000" out="00:00:05.640">
   <property name="kdenlive:id">32</property>
  </entry>
  <filter id="filter187" out="00:23:50.000">
   <property name="rotate_center">1</property>
   <property name="mlt_service">qtblend</property>
   <property name="kdenlive_id">qtblend</property>
   <property name="rect">00:00:00.000=-1296 -717 4224 2376 1</property>
   <property name="rotation">00:00:00.000=0</property>
   <property name="compositing">0</property>
   <property name="distort">0</property>
   <property name="kdenlive:collapsed">1</property>
  </filter>
 </playlist>
 <playlist autoclose="1" id="playlist55"/>
 <tractor id="tractor27" in="00:00:00.000" out="00:02:48.200">
  <property name="kdenlive:trackheight">69</property>
  <property name="kdenlive:collapsed">43</property>
  <property name="kdenlive:track_name">bjl</property>
  <property name="kdenlive:thumbs_format"/>
  <property name="kdenlive:audio_rec"/>
  <property name="kdenlive:timeline_active">1</property>
  <property name="kdenlive:locked_track">1</property>
  <track hide="audio" producer="playlist54"/>
  <track hide="audio" producer="playlist55"/>
 </tractor>
 <producer id="producer100" in="00:00:00.000" out="00:12:22.520">
  <property name="length">18564</property>
  <property name="eof">pause</property>
  <property name="resource">C0001.MP4</property>
  <property name="audio_index">1</property>
  <property name="video_index">0</property>
  <property name="mute_on_pause">0</property>
  <property name="mlt_service">avformat-novalidate</property>
  <property name="seekable">1</property>
  <property name="aspect_ratio">1</property>
  <property name="kdenlive:clipname"/>
  <property name="kdenlive:folderid">-1</property>
  <property name="kdenlive:id">2</property>
  <property name="kdenlive:file_size">5404753976</property>
  <property name="kdenlive:file_hash">0df0c1783402bc54f69a0a78d6231dd5</property>
  <property name="global_feed">1</property>
  <property name="xml">was here</property>
  <property name="meta.media.nb_streams">3</property>
  <property name="meta.media.0.stream.type">video</property>
  <property name="meta.media.0.stream.frame_rate">25</property>
  <property name="meta.media.0.stream.sample_aspect_ratio">0</property>
  <property name="meta.media.0.codec.width">3840</property>
  <property name="meta.media.0.codec.height">2160</property>
  <property name="meta.media.0.codec.rotate">0</property>
  <property name="meta.media.0.codec.frame_rate">25</property>
  <property name="meta.media.0.codec.pix_fmt">yuv420p</property>
  <property name="meta.media.0.codec.sample_aspect_ratio">1</property>
  <property name="meta.media.0.codec.colorspace">709</property>
  <property name="meta.media.0.codec.color_trc">11</property>
  <property name="meta.media.0.codec.name">h264</property>
  <property name="meta.media.0.codec.long_name">H.264 / AVC / MPEG-4 AVC / MPEG-4 part 10</property>
  <property name="meta.media.0.codec.bit_rate">56485199</property>
  <property name="meta.attr.0.stream.creation_time.markup">2021-10-07T14:18:32.000000Z</property>
  <property name="meta.attr.0.stream.handler_name.markup">Video Media Handler</property>
  <property name="meta.attr.0.stream.encoder.markup">AVC Coding</property>
  <property name="meta.media.1.stream.type">audio</property>
  <property name="meta.media.1.codec.sample_fmt">s16</property>
  <property name="meta.media.1.codec.sample_rate">48000</property>
  <property name="meta.media.1.codec.channels">2</property>
  <property name="meta.media.1.codec.name">pcm_s16be</property>
  <property name="meta.media.1.codec.long_name">PCM signed 16-bit big-endian</property>
  <property name="meta.media.1.codec.bit_rate">1536000</property>
  <property name="meta.attr.1.stream.creation_time.markup">2021-10-07T14:18:32.000000Z</property>
  <property name="meta.attr.1.stream.handler_name.markup">Sound Media Handler</property>
  <property name="meta.attr.major_brand.markup">XAVC</property>
  <property name="meta.attr.minor_version.markup">16785407</property>
  <property name="meta.attr.compatible_brands.markup">XAVCmp42iso2</property>
  <property name="meta.attr.creation_time.markup">2021-10-07T14:18:32.000000Z</property>
  <property name="meta.media.sample_aspect_num">1</property>
  <property name="meta.media.sample_aspect_den">1</property>
  <property name="meta.media.frame_rate_num">25</property>
  <property name="meta.media.frame_rate_den">1</property>
  <property name="meta.media.colorspace">709</property>
  <property name="meta.media.color_trc">11</property>
  <property name="meta.media.width">3840</property>
  <property name="meta.media.height">2160</property>
  <property name="meta.media.color_range">mpeg</property>
  <property name="meta.media.top_field_first">0</property>
  <property name="meta.media.progressive">1</property>
  <property name="set.test_audio">1</property>
  <property name="set.test_image">0</property>
 </producer>
 <playlist autoclose="1" id="playlist56">
  <blank length="00:00:26.920"/>
  <entry producer="producer100" in="00:00:27.400" out="00:00:29.040">
   <property name="kdenlive:id">2</property>
  </entry>
  <blank length="00:00:03.480"/>
  <entry producer="producer100" in="00:00:51.000" out="00:00:52.560">
   <property name="kdenlive:id">2</property>
  </entry>
  <blank length="00:00:28.680"/>
  <entry producer="producer100" in="00:01:10.160" out="00:01:13.360">
   <property name="kdenlive:id">2</property>
  </entry>
  <blank length="00:00:19.800"/>
  <entry producer="producer100" in="00:01:34.760" out="00:01:39.040">
   <property name="kdenlive:id">2</property>
  </entry>
  <blank length="00:00:05.840"/>
  <entry producer="producer100" in="00:02:35.120" out="00:02:37.360">
   <property name="kdenlive:id">2</property>
  </entry>
  <blank length="00:00:02.360"/>
  <entry producer="producer100" in="00:03:12.080" out="00:03:13.360">
   <property name="kdenlive:id">2</property>
  </entry>
  <blank length="00:00:01.800"/>
  <entry producer="producer100" in="00:03:36.880" out="00:03:41.680">
   <property name="kdenlive:id">2</property>
  </entry>
  <blank length="00:00:04.480"/>
  <entry producer="producer100" in="00:04:47.440" out="00:04:53.320">
   <property name="kdenlive:id">2</property>
  </entry>
  <blank length="00:00:08.800"/>
  <entry producer="producer100" in="00:07:36.560" out="00:07:44.360">
   <property name="kdenlive:id">2</property>
  </entry>
  <blank length="00:00:10.040"/>
  <entry producer="producer100" in="00:09:39.400" out="00:09:42.640">
   <property name="kdenlive:id">2</property>
  </entry>
  <blank length="00:00:01.920"/>
  <entry producer="producer100" in="00:10:17.400" out="00:10:24.240">
   <property name="kdenlive:id">2</property>
  </entry>
  <blank length="00:00:01.280"/>
  <entry producer="producer100" in="00:11:19.040" out="00:11:21.640">
   <property name="kdenlive:id">2</property>
  </entry>
  <blank length="00:00:01.320"/>
  <entry producer="producer100" in="00:11:56.080" out="00:12:01.720">
   <property name="kdenlive:id">2</property>
  </entry>
  <filter id="filter188" out="00:23:48.320">
   <property name="mode">alpha</property>
   <property name="alpha_operation">sub</property>
   <property name="invert">0</property>
   <property name="feather">0</property>
   <property name="feather_passes">1</property>
   <property name="mlt_service">rotoscoping</property>
   <property name="kdenlive_id">rotoscoping</property>
   <property name="spline">{
    "00000": [
        [
            [
                -0.0658465991316932,
                0.2557840616966581
            ],
            [
                -0.01808972503617945,
                0.2994858611825193
            ],
            [
                -0.00361794500723589,
                0.014138817480719783
            ]
        ],
        [
            [
                1.0123010130246017,
                -0.03984575835475575
            ],
            [
                1.0137481910274964,
                0.30976863753213374
            ],
            [
                1.0658465991316932,
                0.21979434447300777
            ]
        ],
        [
            [
                1.0270622286541229,
                0.03573264781491001
            ],
            [
                1.0137481910274964,
                -0.014138817480719795
            ],
            [
                0.860926193921851,
                -0.014138817480719795
            ]
        ],
        [
            [
                0.1376266280752531,
                -0.006426735218508998
            ],
            [
                -0.015195369030390737,
                -0.006426735218508998
            ],
            [
                -0.04500723589001446,
                0.048071979434447284
            ]
        ]
    ]
}
</property>
   <property name="kdenlive:collapsed">1</property>
   <property name="disable">0</property>
  </filter>
  <filter id="filter189" out="00:23:48.320">
   <property name="version">0.6</property>
   <property name="mlt_service">frei0r.select0r</property>
   <property name="kdenlive_id">frei0r.select0r</property>
   <property name="Color to select">0x2b6cb0ff</property>
   <property name="Invert selection">1</property>
   <property name="Selection subspace">0.5</property>
   <property name="Subspace shape">0</property>
   <property name="Edge mode">0.9</property>
   <property name="Delta R / A / Hue">00:00:00.000=0.2</property>
   <property name="Delta G / B / Chroma">00:00:00.000=0.318</property>
   <property name="Delta B / I / I">00:00:00.000=0.274</property>
   <property name="Slope">00:00:00.000=0.358</property>
   <property name="Operation">0.5</property>
   <property name="kdenlive:collapsed">1</property>
   <property name="disable">0</property>
  </filter>
  <filter id="filter190" out="00:23:48.320">
   <property name="mode">alpha</property>
   <property name="alpha_operation">max</property>
   <property name="invert">0</property>
   <property name="feather">0</property>
   <property name="feather_passes">1</property>
   <property name="mlt_service">rotoscoping</property>
   <property name="kdenlive_id">rotoscoping</property>
   <property name="spline">{
    "00000": [
        [
            [
                -0.005886646040221569,
                0.794870923578485
            ],
            [
                -0.00646551724137931,
                0.7480842911877394
            ],
            [
                0.1865880283447277,
                0.7501408464576623
            ]
        ],
        [
            [
                0.8144895578621655,
                0.754648425572989
            ],
            [
                1.0075431034482758,
                0.7567049808429118
            ],
            [
                1.0084114102500126,
                0.8029774744161768
            ]
        ],
        [
            [
                1.0158342794051596,
                0.9604324872696502
            ],
            [
                1.0167025862068966,
                1.0067049808429118
            ],
            [
                0.8233596050202102,
                1.005162564390473
            ]
        ],
        [
            [
                0.18633867084185823,
                1.0072895428892243
            ],
            [
                -0.007004310344827586,
                1.0057471264367817
            ],
            [
                -0.007583181545985327,
                0.9589604940460369
            ]
        ]
    ]
}
</property>
   <property name="kdenlive:collapsed">1</property>
   <property name="disable">0</property>
  </filter>
 </playlist>
 <playlist autoclose="1" id="playlist57"/>
 <tractor id="tractor28" in="00:00:00.000" out="00:02:48.200">
  <property name="kdenlive:trackheight">69</property>
  <property name="kdenlive:collapsed">43</property>
  <property name="kdenlive:track_name">Jeff+Luca</property>
  <property name="kdenlive:thumbs_format"/>
  <property name="kdenlive:audio_rec"/>
  <property name="kdenlive:timeline_active">1</property>
  <property name="kdenlive:locked_track">1</property>
  <track hide="audio" producer="playlist56"/>
  <track hide="audio" producer="playlist57"/>
 </tractor>
 <tractor id="tractor29" global_feed="1" in="00:00:00.000" out="00:43:48.920">
  <track producer="black_track"/>
  <track producer="tractor0"/>
  <track producer="tractor1"/>
  <track producer="tractor2"/>
  <track producer="tractor3"/>
  <track producer="tractor4"/>
  <track producer="tractor5"/>
  <track producer="tractor6"/>
  <track producer="tractor7"/>
  <track producer="tractor8"/>
  <track producer="tractor9"/>
  <track producer="tractor10"/>
  <track producer="tractor11"/>
  <track producer="tractor12"/>
  <track producer="tractor13"/>
  <track producer="tractor14"/>
  <track producer="tractor15"/>
  <track producer="tractor16"/>
  <track producer="tractor17"/>
  <track producer="tractor18"/>
  <track producer="tractor19"/>
  <track producer="tractor20"/>
  <track producer="tractor21"/>
  <track producer="tractor22"/>
  <track producer="tractor23"/>
  <track producer="tractor24"/>
  <track producer="tractor25"/>
  <track producer="tractor26"/>
  <track producer="tractor27"/>
  <track producer="tractor28"/>
  <transition id="transition0" in="00:00:01.680" out="00:00:03.840">
   <property name="a_track">18</property>
   <property name="b_track">19</property>
   <property name="factory">loader</property>
   <property name="resource">/app/share/kdenlive/lumas/HD/burst.pgm</property>
   <property name="mlt_service">luma</property>
   <property name="kdenlive_id">dissolve</property>
   <property name="force_track">0</property>
   <property name="softness">0.7</property>
   <property name="reverse">1</property>
  </transition>
  <transition id="transition1" in="00:04:08.720" out="00:04:10.160">
   <property name="a_track">16</property>
   <property name="b_track">17</property>
   <property name="factory">loader</property>
   <property name="resource"/>
   <property name="mlt_service">luma</property>
   <property name="kdenlive_id">dissolve</property>
   <property name="softness">0</property>
   <property name="reverse">1</property>
  </transition>
  <transition id="transition2" in="00:04:06.360" out="00:04:07.720">
   <property name="a_track">16</property>
   <property name="b_track">17</property>
   <property name="factory">loader</property>
   <property name="resource"/>
   <property name="mlt_service">luma</property>
   <property name="kdenlive_id">dissolve</property>
   <property name="softness">0</property>
   <property name="reverse">0</property>
  </transition>
  <transition id="transition3" in="00:04:04.320" out="00:04:05.680">
   <property name="a_track">16</property>
   <property name="b_track">17</property>
   <property name="factory">loader</property>
   <property name="resource"/>
   <property name="mlt_service">luma</property>
   <property name="kdenlive_id">dissolve</property>
   <property name="force_track">1</property>
   <property name="softness">0</property>
   <property name="reverse">1</property>
  </transition>
  <transition id="transition4" in="00:04:11.000" out="00:04:12.240">
   <property name="a_track">16</property>
   <property name="b_track">17</property>
   <property name="factory">loader</property>
   <property name="resource"/>
   <property name="mlt_service">luma</property>
   <property name="kdenlive_id">dissolve</property>
   <property name="softness">0</property>
   <property name="reverse">0</property>
  </transition>
  <transition id="transition5">
   <property name="a_track">0</property>
   <property name="b_track">1</property>
   <property name="mlt_service">mix</property>
   <property name="kdenlive_id">mix</property>
   <property name="internal_added">237</property>
   <property name="always_active">1</property>
   <property name="sum">1</property>
  </transition>
  <transition id="transition6">
   <property name="a_track">0</property>
   <property name="b_track">2</property>
   <property name="mlt_service">mix</property>
   <property name="kdenlive_id">mix</property>
   <property name="internal_added">237</property>
   <property name="always_active">1</property>
   <property name="sum">1</property>
  </transition>
  <transition id="transition7">
   <property name="a_track">0</property>
   <property name="b_track">3</property>
   <property name="mlt_service">mix</property>
   <property name="kdenlive_id">mix</property>
   <property name="internal_added">237</property>
   <property name="always_active">1</property>
   <property name="sum">1</property>
  </transition>
  <transition id="transition8">
   <property name="a_track">0</property>
   <property name="b_track">4</property>
   <property name="mlt_service">mix</property>
   <property name="kdenlive_id">mix</property>
   <property name="internal_added">237</property>
   <property name="always_active">1</property>
   <property name="sum">1</property>
  </transition>
  <transition id="transition9">
   <property name="a_track">0</property>
   <property name="b_track">5</property>
   <property name="mlt_service">mix</property>
   <property name="kdenlive_id">mix</property>
   <property name="internal_added">237</property>
   <property name="always_active">1</property>
   <property name="sum">1</property>
  </transition>
  <transition id="transition10">
   <property name="a_track">0</property>
   <property name="b_track">6</property>
   <property name="mlt_service">mix</property>
   <property name="kdenlive_id">mix</property>
   <property name="internal_added">237</property>
   <property name="always_active">1</property>
   <property name="sum">1</property>
  </transition>
  <transition id="transition11">
   <property name="a_track">0</property>
   <property name="b_track">7</property>
   <property name="mlt_service">mix</property>
   <property name="kdenlive_id">mix</property>
   <property name="internal_added">237</property>
   <property name="always_active">1</property>
   <property name="sum">1</property>
  </transition>
  <transition id="transition12">
   <property name="a_track">0</property>
   <property name="b_track">8</property>
   <property name="mlt_service">mix</property>
   <property name="kdenlive_id">mix</property>
   <property name="internal_added">237</property>
   <property name="always_active">1</property>
   <property name="sum">1</property>
  </transition>
  <transition id="transition13">
   <property name="a_track">0</property>
   <property name="b_track">9</property>
   <property name="mlt_service">mix</property>
   <property name="kdenlive_id">mix</property>
   <property name="internal_added">237</property>
   <property name="always_active">1</property>
   <property name="sum">1</property>
  </transition>
  <transition id="transition14">
   <property name="a_track">0</property>
   <property name="b_track">10</property>
   <property name="compositing">0</property>
   <property name="distort">0</property>
   <property name="rotate_center">0</property>
   <property name="mlt_service">qtblend</property>
   <property name="kdenlive_id">qtblend</property>
   <property name="internal_added">237</property>
   <property name="always_active">1</property>
  </transition>
  <transition id="transition15">
   <property name="a_track">0</property>
   <property name="b_track">11</property>
   <property name="compositing">0</property>
   <property name="distort">0</property>
   <property name="rotate_center">0</property>
   <property name="mlt_service">qtblend</property>
   <property name="kdenlive_id">qtblend</property>
   <property name="internal_added">237</property>
   <property name="always_active">1</property>
  </transition>
  <transition id="transition16">
   <property name="a_track">0</property>
   <property name="b_track">12</property>
   <property name="compositing">0</property>
   <property name="distort">0</property>
   <property name="rotate_center">0</property>
   <property name="mlt_service">qtblend</property>
   <property name="kdenlive_id">qtblend</property>
   <property name="internal_added">237</property>
   <property name="always_active">1</property>
  </transition>
  <transition id="transition17">
   <property name="a_track">0</property>
   <property name="b_track">13</property>
   <property name="compositing">0</property>
   <property name="distort">0</property>
   <property name="rotate_center">0</property>
   <property name="mlt_service">qtblend</property>
   <property name="kdenlive_id">qtblend</property>
   <property name="internal_added">237</property>
   <property name="always_active">1</property>
  </transition>
  <transition id="transition18">
   <property name="a_track">0</property>
   <property name="b_track">14</property>
   <property name="compositing">0</property>
   <property name="distort">0</property>
   <property name="rotate_center">0</property>
   <property name="mlt_service">qtblend</property>
   <property name="kdenlive_id">qtblend</property>
   <property name="internal_added">237</property>
   <property name="always_active">1</property>
  </transition>
  <transition id="transition19">
   <property name="a_track">0</property>
   <property name="b_track">15</property>
   <property name="compositing">0</property>
   <property name="distort">0</property>
   <property name="rotate_center">0</property>
   <property name="mlt_service">qtblend</property>
   <property name="kdenlive_id">qtblend</property>
   <property name="internal_added">237</property>
   <property name="always_active">1</property>
  </transition>
  <transition id="transition20">
   <property name="a_track">0</property>
   <property name="b_track">16</property>
   <property name="compositing">0</property>
   <property name="distort">0</property>
   <property name="rotate_center">0</property>
   <property name="mlt_service">qtblend</property>
   <property name="kdenlive_id">qtblend</property>
   <property name="internal_added">237</property>
   <property name="always_active">1</property>
  </transition>
  <transition id="transition21">
   <property name="a_track">0</property>
   <property name="b_track">17</property>
   <property name="compositing">0</property>
   <property name="distort">0</property>
   <property name="rotate_center">0</property>
   <property name="mlt_service">qtblend</property>
   <property name="kdenlive_id">qtblend</property>
   <property name="internal_added">237</property>
   <property name="always_active">1</property>
  </transition>
  <transition id="transition22">
   <property name="a_track">0</property>
   <property name="b_track">18</property>
   <property name="compositing">0</property>
   <property name="distort">0</property>
   <property name="rotate_center">0</property>
   <property name="mlt_service">qtblend</property>
   <property name="kdenlive_id">qtblend</property>
   <property name="internal_added">237</property>
   <property name="always_active">1</property>
  </transition>
  <transition id="transition23">
   <property name="a_track">0</property>
   <property name="b_track">19</property>
   <property name="compositing">0</property>
   <property name="distort">0</property>
   <property name="rotate_center">0</property>
   <property name="mlt_service">qtblend</property>
   <property name="kdenlive_id">qtblend</property>
   <property name="internal_added">237</property>
   <property name="always_active">1</property>
  </transition>
  <transition id="transition24">
   <property name="a_track">0</property>
   <property name="b_track">20</property>
   <property name="compositing">0</property>
   <property name="distort">0</property>
   <property name="rotate_center">0</property>
   <property name="mlt_service">qtblend</property>
   <property name="kdenlive_id">qtblend</property>
   <property name="internal_added">237</property>
   <property name="always_active">1</property>
  </transition>
  <transition id="transition25">
   <property name="a_track">0</property>
   <property name="b_track">21</property>
   <property name="compositing">0</property>
   <property name="distort">0</property>
   <property name="rotate_center">0</property>
   <property name="mlt_service">qtblend</property>
   <property name="kdenlive_id">qtblend</property>
   <property name="internal_added">237</property>
   <property name="always_active">1</property>
  </transition>
  <transition id="transition26">
   <property name="a_track">0</property>
   <property name="b_track">22</property>
   <property name="compositing">0</property>
   <property name="distort">0</property>
   <property name="rotate_center">0</property>
   <property name="mlt_service">qtblend</property>
   <property name="kdenlive_id">qtblend</property>
   <property name="internal_added">237</property>
   <property name="always_active">1</property>
  </transition>
  <transition id="transition27">
   <property name="a_track">0</property>
   <property name="b_track">23</property>
   <property name="compositing">0</property>
   <property name="distort">0</property>
   <property name="rotate_center">0</property>
   <property name="mlt_service">qtblend</property>
   <property name="kdenlive_id">qtblend</property>
   <property name="internal_added">237</property>
   <property name="always_active">1</property>
  </transition>
  <transition id="transition28">
   <property name="a_track">0</property>
   <property name="b_track">24</property>
   <property name="compositing">0</property>
   <property name="distort">0</property>
   <property name="rotate_center">0</property>
   <property name="mlt_service">qtblend</property>
   <property name="kdenlive_id">qtblend</property>
   <property name="internal_added">237</property>
   <property name="always_active">1</property>
  </transition>
  <transition id="transition29">
   <property name="a_track">0</property>
   <property name="b_track">25</property>
   <property name="compositing">0</property>
   <property name="distort">0</property>
   <property name="rotate_center">0</property>
   <property name="mlt_service">qtblend</property>
   <property name="kdenlive_id">qtblend</property>
   <property name="internal_added">237</property>
   <property name="always_active">1</property>
  </transition>
  <transition id="transition30">
   <property name="a_track">0</property>
   <property name="b_track">26</property>
   <property name="compositing">0</property>
   <property name="distort">0</property>
   <property name="rotate_center">0</property>
   <property name="mlt_service">qtblend</property>
   <property name="kdenlive_id">qtblend</property>
   <property name="internal_added">237</property>
   <property name="always_active">1</property>
  </transition>
  <transition id="transition31">
   <property name="a_track">0</property>
   <property name="b_track">27</property>
   <property name="compositing">0</property>
   <property name="distort">0</property>
   <property name="rotate_center">0</property>
   <property name="mlt_service">qtblend</property>
   <property name="kdenlive_id">qtblend</property>
   <property name="internal_added">237</property>
   <property name="always_active">1</property>
  </transition>
  <transition id="transition32">
   <property name="a_track">0</property>
   <property name="b_track">28</property>
   <property name="compositing">0</property>
   <property name="distort">0</property>
   <property name="rotate_center">0</property>
   <property name="mlt_service">qtblend</property>
   <property name="kdenlive_id">qtblend</property>
   <property name="internal_added">237</property>
   <property name="always_active">1</property>
  </transition>
  <transition id="transition33">
   <property name="a_track">0</property>
   <property name="b_track">29</property>
   <property name="compositing">0</property>
   <property name="distort">0</property>
   <property name="rotate_center">0</property>
   <property name="mlt_service">qtblend</property>
   <property name="kdenlive_id">qtblend</property>
   <property name="internal_added">237</property>
   <property name="always_active">1</property>
  </transition>
  <filter id="filter191">
   <property name="window">75</property>
   <property name="max_gain">20dB</property>
   <property name="mlt_service">volume</property>
   <property name="internal_added">237</property>
   <property name="disable">1</property>
  </filter>
  <filter id="filter192">
   <property name="channel">-1</property>
   <property name="mlt_service">panner</property>
   <property name="internal_added">237</property>
   <property name="start">0.5</property>
   <property name="disable">1</property>
  </filter>
  <filter id="filter138">
   <property name="iec_scale">0</property>
   <property name="mlt_service">audiolevel</property>
   <property name="disable">1</property>
  </filter>
 </tractor>
</mlt>
